<svg xmlns="http://www.w3.org/2000/svg" xmlns:xlink="http://www.w3.org/1999/xlink" viewBox="0 0 512 512" width="512" height="512" preserveAspectRatio="xMidYMid meet" style="width: 100%; height: 100%; transform: translate3d(0px, 0px, 0px); content-visibility: visible;"><defs><clipPath id="__lottie_element_2"><rect width="512" height="512" x="0" y="0"></rect></clipPath></defs><g clip-path="url(#__lottie_element_2)"><g transform="matrix(1,0,0,1,256,240)" opacity="1" style="display: block;"><g opacity="1" transform="matrix(1,0,0,1,0,0)"><path fill="rgb(99,102,241)" fill-opacity="1" d=" M90,-48 C90,-48 90,48 90,48 C90,54.622798919677734 84.622802734375,60 78,60 C78,60 -78,60 -78,60 C-84.622802734375,60 -90,54.622798919677734 -90,48 C-90,48 -90,-48 -90,-48 C-90,-54.622798919677734 -84.622802734375,-60 -78,-60 C-78,-60 78,-60 78,-60 C84.622802734375,-60 90,-54.622798919677734 90,-48z"></path></g></g><g transform="matrix(1,0,0,1,256,204)" opacity="1" style="display: block;"><g opacity="1" transform="matrix(1,0,0,1,0,0)"><path fill="rgb(79,70,229)" fill-opacity="1" d=" M80,-19 C80,-19 80,19 80,19 C80,22.311399459838867 77.3114013671875,25 74,25 C74,25 -74,25 -74,25 C-77.3114013671875,25 -80,22.311399459838867 -80,19 C-80,19 -80,-19 -80,-19 C-80,-22.311399459838867 -77.3114013671875,-25 -74,-25 C-74,-25 74,-25 74,-25 C77.3114013671875,-25 80,-22.311399459838867 80,-19z"></path></g></g><g transform="matrix(1,0,0,1,322.74847412109375,194.76058959960938)" opacity="0.2602441693484476" style="display: block;"><g opacity="1" transform="matrix(1,0,0,1,0,0)"><path fill="rgb(148,163,184)" fill-opacity="1" d=" M0,-6 C3.3113999366760254,-6 6,-3.3113999366760254 6,0 C6,3.3113999366760254 3.3113999366760254,6 0,6 C-3.3113999366760254,6 -6,3.3113999366760254 -6,0 C-6,-3.3113999366760254 -3.3113999366760254,-6 0,-6z"></path></g></g><g transform="matrix(1,0,0,1,325.25152587890625,135.23941040039062)" opacity="0.2602441693484477" style="display: block;"><g opacity="1" transform="matrix(1,0,0,1,0,0)"><path fill="rgb(148,163,184)" fill-opacity="1" d=" M0,-6 C3.3113999366760254,-6 6,-3.3113999366760254 6,0 C6,3.3113999366760254 3.3113999366760254,6 0,6 C-3.3113999366760254,6 -6,3.3113999366760254 -6,0 C-6,-3.3113999366760254 -3.3113999366760254,-6 0,-6z"></path></g></g><g style="display: none;"><g><path></path></g></g></g></svg>