<svg xmlns="http://www.w3.org/2000/svg" xmlns:xlink="http://www.w3.org/1999/xlink" viewBox="0 0 512 512" width="512" height="512" preserveAspectRatio="xMidYMid meet" style="width: 100%; height: 100%; transform: translate3d(0px, 0px, 0px); content-visibility: visible;"><defs><clipPath id="__lottie_element_2"><rect width="512" height="512" x="0" y="0"></rect></clipPath></defs><g clip-path="url(#__lottie_element_2)"><g transform="matrix(1,0,0,1,256,252)" opacity="1" style="display: block;"><g opacity="1" transform="matrix(1,0,0,1,0,0)"><path fill="rgb(99,102,241)" fill-opacity="1" d=" M95,-49 C95,-49 95,49 95,49 C95,57.83039855957031 87.83039855957031,65 79,65 C79,65 -79,65 -79,65 C-87.83039855957031,65 -95,57.83039855957031 -95,49 C-95,49 -95,-49 -95,-49 C-95,-57.83039855957031 -87.83039855957031,-65 -79,-65 C-79,-65 79,-65 79,-65 C87.83039855957031,-65 95,-57.83039855957031 95,-49z"></path></g></g><g transform="matrix(1,0,0,1,0,-14)" opacity="1" style="display: block;"><g opacity="1" transform="matrix(1,0,0,1,0,0)"><path fill="rgb(79,70,229)" fill-opacity="1" d=" M161,207 C161,207 351,207 351,207 C351,207 256,285 256,285 C256,285 161,207 161,207z"></path></g></g><g transform="matrix(1,0,0,1,336.0310974121094,209.81863403320312)" opacity="0.014805712266531976" style="display: block;"><g opacity="1" transform="matrix(1,0,0,1,0,0)"><path fill="rgb(148,163,184)" fill-opacity="1" d=" M0,-5 C2.759500026702881,-5 5,-2.759500026702881 5,0 C5,2.759500026702881 2.759500026702881,5 0,5 C-2.759500026702881,5 -5,2.759500026702881 -5,0 C-5,-2.759500026702881 -2.759500026702881,-5 0,-5z"></path></g></g><g transform="matrix(1,0,0,1,337.0324401855469,157.31080627441406)" opacity="0.5743842185517279" style="display: block;"><g opacity="1" transform="matrix(1,0,0,1,0,0)"><path fill="rgb(148,163,184)" fill-opacity="1" d=" M0,-6 C3.3113999366760254,-6 6,-3.3113999366760254 6,0 C6,3.3113999366760254 3.3113999366760254,6 0,6 C-3.3113999366760254,6 -6,3.3113999366760254 -6,0 C-6,-3.3113999366760254 -3.3113999366760254,-6 0,-6z"></path></g></g><g style="display: none;"><g><path></path></g></g></g></svg>