<svg xmlns="http://www.w3.org/2000/svg" xmlns:xlink="http://www.w3.org/1999/xlink" viewBox="0 0 512 512" width="512" height="512" preserveAspectRatio="xMidYMid meet" style="width: 100%; height: 100%; transform: translate3d(0px, 0px, 0px); content-visibility: visible;"><defs><clipPath id="__lottie_element_2"><rect width="512" height="512" x="0" y="0"></rect></clipPath></defs><g clip-path="url(#__lottie_element_2)"><g transform="matrix(1,0,0,1,286.0412292480469,200)" opacity="1" style="display: block;"><g opacity="1" transform="matrix(0.7071067690849304,0.7071067690849304,-0.7071067690849304,0.7071067690849304,30,30)"><path fill="rgb(71,85,105)" fill-opacity="1" d=" M35,0 C35,0 35,0 35,0 C35,4.415200233459473 31.415199279785156,8 27,8 C27,8 -27,8 -27,8 C-31.415199279785156,8 -35,4.415200233459473 -35,0 C-35,0 -35,0 -35,0 C-35,-4.415200233459473 -31.415199279785156,-8 -27,-8 C-27,-8 27,-8 27,-8 C31.415199279785156,-8 35,-4.415200233459473 35,0z"></path></g></g><g transform="matrix(1,0,0,1,286.0412292480469,200)" opacity="1" style="display: block;"><g opacity="1" transform="matrix(1,0,0,1,0,0)"><path fill="rgb(255,255,255)" fill-opacity="0.8" d=" M0,-55 C30.35449981689453,-55 55,-30.35449981689453 55,0 C55,30.35449981689453 30.35449981689453,55 0,55 C-30.35449981689453,55 -55,30.35449981689453 -55,0 C-55,-30.35449981689453 -30.35449981689453,-55 0,-55z"></path><path stroke-linecap="round" stroke-linejoin="round" fill-opacity="0" stroke="rgb(71,85,105)" stroke-opacity="1" stroke-width="8" d=" M0,-55 C30.35449981689453,-55 55,-30.35449981689453 55,0 C55,30.35449981689453 30.35449981689453,55 0,55 C-30.35449981689453,55 -55,30.35449981689453 -55,0 C-55,-30.35449981689453 -30.35449981689453,-55 0,-55z"></path></g></g></g></svg>