<svg xmlns="http://www.w3.org/2000/svg" xmlns:xlink="http://www.w3.org/1999/xlink" viewBox="0 0 512 512" width="512" height="512" preserveAspectRatio="xMidYMid meet" style="width: 100%; height: 100%; transform: translate3d(0px, 0px, 0px); content-visibility: visible;"><defs><clipPath id="__lottie_element_2"><rect width="512" height="512" x="0" y="0"></rect></clipPath></defs><g clip-path="url(#__lottie_element_2)"><g transform="matrix(1.0494508743286133,0,0,1.0494508743286133,256,256)" opacity="1" style="display: block;"><g opacity="1" transform="matrix(1,0,0,1,0,0)"><path fill="rgb(99,102,241)" fill-opacity="1" d=" M100,30 C100,30 100,30 100,30 C100,43.79750061035156 88.79750061035156,55 75,55 C75,55 -55,55 -55,55 C-68.79750061035156,55 -80,43.79750061035156 -80,30 C-80,30 -80,30 -80,30 C-80,16.202499389648438 -68.79750061035156,5 -55,5 C-55,5 75,5 75,5 C88.79750061035156,5 100,16.202499389648438 100,30z"></path></g><g opacity="1" transform="matrix(1,0,0,1,0,0)"><path fill="rgb(99,102,241)" fill-opacity="1" d=" M60,-40 C93.11399841308594,-40 120,-17.594999313354492 120,10 C120,37.595001220703125 93.11399841308594,60 60,60 C26.88599967956543,60 0,37.595001220703125 0,10 C0,-17.594999313354492 26.88599967956543,-40 60,-40z"></path></g><g opacity="1" transform="matrix(1,0,0,1,0,0)"><path fill="rgb(99,102,241)" fill-opacity="1" d=" M10,-75 C48.632999420166016,-75 80,-45.87350082397461 80,-10 C80,25.87350082397461 48.632999420166016,55 10,55 C-28.632999420166016,55 -60,25.87350082397461 -60,-10 C-60,-45.87350082397461 -28.632999420166016,-75 10,-75z"></path></g><g opacity="1" transform="matrix(1,0,0,1,0,0)"><path fill="rgb(99,102,241)" fill-opacity="1" d=" M-40,-40 C-6.886000156402588,-40 20,-17.594999313354492 20,10 C20,37.595001220703125 -6.886000156402588,60 -40,60 C-73.11399841308594,60 -100,37.595001220703125 -100,10 C-100,-17.594999313354492 -73.11399841308594,-40 -40,-40z"></path></g></g><g transform="matrix(1,0,0,1,266,259.9634704589844)" opacity="1" style="display: block;"><g opacity="1" transform="matrix(1,0,0,1,0,0)"><path fill="rgb(255,255,255)" fill-opacity="1" d=" M7,-23 C7,-23 7,23 7,23 C7,26.863300323486328 3.863300085067749,30 0,30 C0,30 0,30 0,30 C-3.863300085067749,30 -7,26.863300323486328 -7,23 C-7,23 -7,-23 -7,-23 C-7,-26.863300323486328 -3.863300085067749,-30 0,-30 C0,-30 0,-30 0,-30 C3.863300085067749,-30 7,-26.863300323486328 7,-23z"></path></g></g></g></svg>