<svg xmlns="http://www.w3.org/2000/svg" xmlns:xlink="http://www.w3.org/1999/xlink" viewBox="0 0 512 512" width="512" height="512" preserveAspectRatio="xMidYMid meet" style="width: 100%; height: 100%; transform: translate3d(0px, 0px, 0px); content-visibility: visible;"><defs><clipPath id="__lottie_element_2"><rect width="512" height="512" x="0" y="0"></rect></clipPath></defs><g clip-path="url(#__lottie_element_2)"><g transform="matrix(0.9781476259231567,-0.2079116851091385,0.2079116851091385,0.9781476259231567,272.6329345703125,334.2518005371094)" opacity="1" style="display: block;"><g opacity="1" transform="matrix(1,0,0,1,0,0)"><path fill="rgb(245,158,11)" fill-opacity="1" d=" M0,85 C5.519000053405762,85 10,89.48100280761719 10,95 C10,100.51899719238281 5.519000053405762,105 0,105 C-5.519000053405762,105 -10,100.51899719238281 -10,95 C-10,89.48100280761719 -5.519000053405762,85 0,85z"></path></g><g opacity="1" transform="matrix(1,0,0,1,0,0)"><path fill="rgb(245,158,11)" fill-opacity="1" d=" M70,70 C70,70 70,70 70,70 C70,75.51899719238281 65.51899719238281,80 60,80 C60,80 -60,80 -60,80 C-65.51899719238281,80 -70,75.51899719238281 -70,70 C-70,70 -70,70 -70,70 C-70,64.48100280761719 -65.51899719238281,60 -60,60 C-60,60 60,60 60,60 C65.51899719238281,60 70,64.48100280761719 70,70z"></path></g><g opacity="1" transform="matrix(1,0,0,1,0,0)"><path fill="rgb(245,158,11)" fill-opacity="1" d=" M60,-5 C60,-5 60,5 60,5 C60,38.11399841308594 33.11399841308594,65 0,65 C0,65 0,65 0,65 C-33.11399841308594,65 -60,38.11399841308594 -60,5 C-60,5 -60,-5 -60,-5 C-60,-38.11399841308594 -33.11399841308594,-65 0,-65 C0,-65 0,-65 0,-65 C33.11399841308594,-65 60,-38.11399841308594 60,-5z"></path></g></g><g transform="matrix(1,0,0,1,256,256)" opacity="1" style="display: block;"><g opacity="1" transform="matrix(0.7071067690849304,0.7071067690849304,-0.7071067690849304,0.7071067690849304,0,0)"><path fill="rgb(239,68,68)" fill-opacity="1" d=" M100,0 C100,0 100,0 100,0 C100,3.863300085067749 96.86329650878906,7 93,7 C93,7 -93,7 -93,7 C-96.86329650878906,7 -100,3.863300085067749 -100,0 C-100,0 -100,0 -100,0 C-100,-3.863300085067749 -96.86329650878906,-7 -93,-7 C-93,-7 93,-7 93,-7 C96.86329650878906,-7 100,-3.863300085067749 100,0z"></path></g></g></g></svg>