<svg xmlns="http://www.w3.org/2000/svg" xmlns:xlink="http://www.w3.org/1999/xlink" viewBox="0 0 512 512" width="512" height="512" preserveAspectRatio="xMidYMid meet" style="width: 100%; height: 100%; transform: translate3d(0px, 0px, 0px); content-visibility: visible;"><defs><clipPath id="__lottie_element_2"><rect width="512" height="512" x="0" y="0"></rect></clipPath></defs><g clip-path="url(#__lottie_element_2)"><g transform="matrix(0.9902680516242981,0.13917310535907745,-0.13917310535907745,0.9902680516242981,326,256)" opacity="1" style="display: block;"><g opacity="1" transform="matrix(1,0,0,1,0,0)"><path fill="rgb(239,68,68)" fill-opacity="1" d=" M50,-21 C50,-21 50,21 50,21 C50,28.726600646972656 43.726600646972656,35 36,35 C36,35 -36,35 -36,35 C-43.726600646972656,35 -50,28.726600646972656 -50,21 C-50,21 -50,-21 -50,-21 C-50,-28.726600646972656 -43.726600646972656,-35 -36,-35 C-36,-35 36,-35 36,-35 C43.726600646972656,-35 50,-28.726600646972656 50,-21z"></path></g></g><g transform="matrix(0.9902680516242981,-0.13917310535907745,0.13917310535907745,0.9902680516242981,186,256)" opacity="1" style="display: block;"><g opacity="1" transform="matrix(1,0,0,1,0,0)"><path fill="rgb(239,68,68)" fill-opacity="1" d=" M50,-21 C50,-21 50,21 50,21 C50,28.726600646972656 43.726600646972656,35 36,35 C36,35 -36,35 -36,35 C-43.726600646972656,35 -50,28.726600646972656 -50,21 C-50,21 -50,-21 -50,-21 C-50,-28.726600646972656 -43.726600646972656,-35 -36,-35 C-36,-35 36,-35 36,-35 C43.726600646972656,-35 50,-28.726600646972656 50,-21z"></path></g></g><g transform="matrix(1,0,0,1,256,212.76356506347656)" opacity="0.6943995055145223" style="display: block;"><g opacity="1" transform="matrix(1,0,0,1,0,0)"><path fill="rgb(245,158,11)" fill-opacity="1" d=" M0,-8 C4.415200233459473,-8 8,-4.415200233459473 8,0 C8,4.415200233459473 4.415200233459473,8 0,8 C-4.415200233459473,8 -8,4.415200233459473 -8,0 C-8,-4.415200233459473 -4.415200233459473,-8 0,-8z"></path></g></g><g transform="matrix(1,0,0,1,183.98654174804688,256)" opacity="0.3056004944854777" style="display: block;"><g opacity="1" transform="matrix(1,0,0,1,0,0)"><path fill="rgb(245,158,11)" fill-opacity="1" d=" M0,-8 C4.415200233459473,-8 8,-4.415200233459473 8,0 C8,4.415200233459473 4.415200233459473,8 0,8 C-4.415200233459473,8 -8,4.415200233459473 -8,0 C-8,-4.415200233459473 -4.415200233459473,-8 0,-8z"></path></g></g><g transform="matrix(1,0,0,1,256,335.5483093261719)" opacity="0.028391844822446898" style="display: block;"><g opacity="1" transform="matrix(1,0,0,1,0,0)"><path fill="rgb(245,158,11)" fill-opacity="1" d=" M0,-8 C4.415200233459473,-8 8,-4.415200233459473 8,0 C8,4.415200233459473 4.415200233459473,8 0,8 C-4.415200233459473,8 -8,4.415200233459473 -8,0 C-8,-4.415200233459473 -4.415200233459473,-8 0,-8z"></path></g></g><g transform="matrix(1,0,0,1,256,256)" opacity="1" style="display: none;"><g opacity="1" transform="matrix(1,0,0,1,0,0)"><path fill="rgb(245,158,11)" fill-opacity="1" d=" M0,-8 C4.415200233459473,-8 8,-4.415200233459473 8,0 C8,4.415200233459473 4.415200233459473,8 0,8 C-4.415200233459473,8 -8,4.415200233459473 -8,0 C-8,-4.415200233459473 -4.415200233459473,-8 0,-8z"></path></g></g></g></svg>