<svg xmlns="http://www.w3.org/2000/svg" xmlns:xlink="http://www.w3.org/1999/xlink" viewBox="0 0 512 512" width="512" height="512" preserveAspectRatio="xMidYMid meet" style="width: 100%; height: 100%; transform: translate3d(0px, 0px, 0px); content-visibility: visible;"><defs><clipPath id="__lottie_element_2"><rect width="512" height="512" x="0" y="0"></rect></clipPath></defs><g clip-path="url(#__lottie_element_2)"><g transform="matrix(1,0,0,1,366,217.95773315429688)" opacity="1" style="display: block;"><g opacity="1" transform="matrix(1,0,0,1,0,0)"><path fill="rgb(16,185,129)" fill-opacity="1" d=" M0,-18 C9.934200286865234,-18 18,-9.934200286865234 18,0 C18,9.934200286865234 9.934200286865234,18 0,18 C-9.934200286865234,18 -18,9.934200286865234 -18,0 C-18,-9.934200286865234 -9.934200286865234,-18 0,-18z"></path></g></g><g transform="matrix(1,0,0,1,311,232.48858642578125)" opacity="1" style="display: block;"><g opacity="1" transform="matrix(1,0,0,1,0,0)"><path fill="rgb(245,158,11)" fill-opacity="1" d=" M0,-18 C9.934200286865234,-18 18,-9.934200286865234 18,0 C18,9.934200286865234 9.934200286865234,18 0,18 C-9.934200286865234,18 -18,9.934200286865234 -18,0 C-18,-9.934200286865234 -9.934200286865234,-18 0,-18z"></path></g></g><g transform="matrix(1,0,0,1,256,279.51141357421875)" opacity="1" style="display: block;"><g opacity="1" transform="matrix(1,0,0,1,0,0)"><path fill="rgb(236,72,153)" fill-opacity="1" d=" M0,-18 C9.934200286865234,-18 18,-9.934200286865234 18,0 C18,9.934200286865234 9.934200286865234,18 0,18 C-9.934200286865234,18 -18,9.934200286865234 -18,0 C-18,-9.934200286865234 -9.934200286865234,-18 0,-18z"></path></g></g><g transform="matrix(1,0,0,1,201,294.0422668457031)" opacity="1" style="display: block;"><g opacity="1" transform="matrix(1,0,0,1,0,0)"><path fill="rgb(139,92,246)" fill-opacity="1" d=" M0,-18 C9.934200286865234,-18 18,-9.934200286865234 18,0 C18,9.934200286865234 9.934200286865234,18 0,18 C-9.934200286865234,18 -18,9.934200286865234 -18,0 C-18,-9.934200286865234 -9.934200286865234,-18 0,-18z"></path></g></g><g transform="matrix(1,0,0,1,146,256)" opacity="1" style="display: block;"><g opacity="1" transform="matrix(1,0,0,1,0,0)"><path fill="rgb(99,102,241)" fill-opacity="1" d=" M0,-18 C9.934200286865234,-18 18,-9.934200286865234 18,0 C18,9.934200286865234 9.934200286865234,18 0,18 C-9.934200286865234,18 -18,9.934200286865234 -18,0 C-18,-9.934200286865234 -9.934200286865234,-18 0,-18z"></path></g></g></g></svg>