<svg xmlns="http://www.w3.org/2000/svg" xmlns:xlink="http://www.w3.org/1999/xlink" viewBox="0 0 512 512" width="512" height="512" preserveAspectRatio="xMidYMid meet" style="width: 100%; height: 100%; transform: translate3d(0px, 0px, 0px); content-visibility: visible;"><defs><clipPath id="__lottie_element_2"><rect width="512" height="512" x="0" y="0"></rect></clipPath></defs><g clip-path="url(#__lottie_element_2)"><g transform="matrix(0.699999988079071,0,0,1.2999999523162842,331,256)" opacity="1" style="display: block;"><g opacity="1" transform="matrix(1,0,0,1,0,0)"><path fill="rgb(16,185,129)" fill-opacity="1" d=" M0,-22 C12.141799926757812,-22 22,-12.141799926757812 22,0 C22,12.141799926757812 12.141799926757812,22 0,22 C-12.141799926757812,22 -22,12.141799926757812 -22,0 C-22,-12.141799926757812 -12.141799926757812,-22 0,-22z"></path></g></g><g transform="matrix(0.9304675459861755,0,0,1.0695325136184692,256,256)" opacity="1" style="display: block;"><g opacity="1" transform="matrix(1,0,0,1,0,0)"><path fill="rgb(16,185,129)" fill-opacity="1" d=" M0,-22 C12.141799926757812,-22 22,-12.141799926757812 22,0 C22,12.141799926757812 12.141799926757812,22 0,22 C-12.141799926757812,22 -22,12.141799926757812 -22,0 C-22,-12.141799926757812 -12.141799926757812,-22 0,-22z"></path></g></g><g transform="matrix(1,0,0,1,181,256)" opacity="1" style="display: block;"><g opacity="1" transform="matrix(1,0,0,1,0,0)"><path fill="rgb(16,185,129)" fill-opacity="1" d=" M0,-22 C12.141799926757812,-22 22,-12.141799926757812 22,0 C22,12.141799926757812 12.141799926757812,22 0,22 C-12.141799926757812,22 -22,12.141799926757812 -22,0 C-22,-12.141799926757812 -12.141799926757812,-22 0,-22z"></path></g></g></g></svg>