<svg xmlns="http://www.w3.org/2000/svg" xmlns:xlink="http://www.w3.org/1999/xlink" viewBox="0 0 512 512" width="512" height="512" preserveAspectRatio="xMidYMid meet" style="width: 100%; height: 100%; transform: translate3d(0px, 0px, 0px); content-visibility: visible;"><defs><clipPath id="__lottie_element_2"><rect width="512" height="512" x="0" y="0"></rect></clipPath></defs><g clip-path="url(#__lottie_element_2)"><g transform="matrix(1,0,0,1,256,256)" opacity="1" style="display: block;"><g opacity="1" transform="matrix(1,0,0,1,0,0)"><path fill="rgb(10,10,15)" fill-opacity="1" d=" M256,-256 C256,-256 256,256 256,256 C256,256 -256,256 -256,256 C-256,256 -256,-256 -256,-256 C-256,-256 256,-256 256,-256z"></path></g></g><g transform="matrix(1,0,0,1,256,256)" opacity="1" style="display: block;"><g opacity="1" transform="matrix(1,0,0,1,0,0)"><path stroke-linecap="round" stroke-linejoin="round" fill-opacity="0" stroke="rgb(31,41,55)" stroke-opacity="1" stroke-width="18" d=" M0,-110 C60.70899963378906,-110 110,-60.70899963378906 110,0 C110,60.70899963378906 60.70899963378906,110 0,110 C-60.70899963378906,110 -110,60.70899963378906 -110,0 C-110,-60.70899963378906 -60.70899963378906,-110 0,-110z"></path></g></g><g transform="matrix(0,-1,1,0,256,256)" opacity="1" style="display: block;"><g opacity="1" transform="matrix(1,0,0,1,0,0)"><path stroke-linecap="round" stroke-linejoin="round" fill-opacity="0" stroke="rgb(251,191,36)" stroke-opacity="1" stroke-width="18" d="M0 0"></path></g></g><g transform="matrix(0,-1,1,0,256,256)" opacity="1" style="display: block;"><g opacity="1" transform="matrix(1,0,0,1,0,0)"><path stroke-linecap="round" stroke-linejoin="round" fill-opacity="0" stroke="rgb(167,139,250)" stroke-opacity="1" stroke-width="18" d=" M0,110 C0,110 0,110 0,110 C-51.98699951171875,110 -95.60099792480469,73.8550033569336 -107.05999755859375,25.34600067138672"></path></g></g><g transform="matrix(0,-1,1,0,256,256)" opacity="1" style="display: block;"><g opacity="1" transform="matrix(1,0,0,1,0,0)"><path stroke-linecap="round" stroke-linejoin="round" fill-opacity="0" stroke="rgb(52,211,153)" stroke-opacity="1" stroke-width="18" d=" M110,0 C110,0 110,0 110,0 C110,60.70899963378906 60.70899963378906,110 0,110 C0,110 0,110 0,110"></path></g></g><g transform="matrix(0,-1,1,0,256,256)" opacity="1" style="display: block;"><g opacity="1" transform="matrix(1,0,0,1,0,0)"><path stroke-linecap="round" stroke-linejoin="round" fill-opacity="0" stroke="rgb(244,63,94)" stroke-opacity="1" stroke-width="18" d=" M0,-110 C60.70899963378906,-110 110,-60.70899963378906 110,0 C110,0 110,0 110,0"></path></g></g><g transform="matrix(1.2000000476837158,0,0,1.2000000476837158,256,256)" opacity="1" style="display: block;"><g opacity="1" transform="matrix(1,0,0,1,0,0)"><path fill="rgb(251,191,36)" fill-opacity="1" d=" M0,-25 C13.797499656677246,-25 25,-13.797499656677246 25,0 C25,13.797499656677246 13.797499656677246,25 0,25 C-13.797499656677246,25 -25,13.797499656677246 -25,0 C-25,-13.797499656677246 -13.797499656677246,-25 0,-25z"></path></g></g></g></svg>