<svg xmlns="http://www.w3.org/2000/svg" xmlns:xlink="http://www.w3.org/1999/xlink" viewBox="0 0 512 512" width="512" height="512" preserveAspectRatio="xMidYMid meet" style="width: 100%; height: 100%; transform: translate3d(0px, 0px, 0px); content-visibility: visible;"><defs><clipPath id="__lottie_element_2"><rect width="512" height="512" x="0" y="0"></rect></clipPath></defs><g clip-path="url(#__lottie_element_2)"><g transform="matrix(1,0,0,1,256,256)" opacity="1" style="display: block;"><g opacity="1" transform="matrix(1,0,0,1,0,0)"><path fill="rgb(10,10,15)" fill-opacity="1" d=" M256,-256 C256,-256 256,256 256,256 C256,256 -256,256 -256,256 C-256,256 -256,-256 -256,-256 C-256,-256 256,-256 256,-256z"></path></g></g><g transform="matrix(1.0713963508605957,0,0,1.0713963508605957,356,356)" opacity="0.9254736692553972" style="display: block;"><g opacity="1" transform="matrix(1,0,0,1,0,0)"><path fill="rgb(251,191,36)" fill-opacity="1" d=" M40,-24 C40,-24 40,24 40,24 C40,32.83039855957031 32.83039855957031,40 24,40 C24,40 -24,40 -24,40 C-32.83039855957031,40 -40,32.83039855957031 -40,24 C-40,24 -40,-24 -40,-24 C-40,-32.83039855957031 -32.83039855957031,-40 -24,-40 C-24,-40 24,-40 24,-40 C32.83039855957031,-40 40,-32.83039855957031 40,-24z"></path></g></g><g transform="matrix(1.0185829401016235,0,0,1.0185829401016235,256,356)" opacity="0.8136241061355755" style="display: block;"><g opacity="1" transform="matrix(1,0,0,1,0,0)"><path fill="rgb(167,139,250)" fill-opacity="1" d=" M40,-24 C40,-24 40,24 40,24 C40,32.83039855957031 32.83039855957031,40 24,40 C24,40 -24,40 -24,40 C-32.83039855957031,40 -40,32.83039855957031 -40,24 C-40,24 -40,-24 -40,-24 C-40,-32.83039855957031 -32.83039855957031,-40 -24,-40 C-24,-40 24,-40 24,-40 C32.83039855957031,-40 40,-32.83039855957031 40,-24z"></path></g></g><g transform="matrix(0.7286036014556885,0,0,0.7286036014556885,156,356)" opacity="0.2745263307446028" style="display: block;"><g opacity="1" transform="matrix(1,0,0,1,0,0)"><path fill="rgb(52,211,153)" fill-opacity="1" d=" M40,-24 C40,-24 40,24 40,24 C40,32.83039855957031 32.83039855957031,40 24,40 C24,40 -24,40 -24,40 C-32.83039855957031,40 -40,32.83039855957031 -40,24 C-40,24 -40,-24 -40,-24 C-40,-32.83039855957031 -32.83039855957031,-40 -24,-40 C-24,-40 24,-40 24,-40 C32.83039855957031,-40 40,-32.83039855957031 40,-24z"></path></g></g><g transform="matrix(1.0185829401016235,0,0,1.0185829401016235,356,256)" opacity="0.8136241061355755" style="display: block;"><g opacity="1" transform="matrix(1,0,0,1,0,0)"><path fill="rgb(244,63,94)" fill-opacity="1" d=" M40,-24 C40,-24 40,24 40,24 C40,32.83039855957031 32.83039855957031,40 24,40 C24,40 -24,40 -24,40 C-32.83039855957031,40 -40,32.83039855957031 -40,24 C-40,24 -40,-24 -40,-24 C-40,-32.83039855957031 -32.83039855957031,-40 -24,-40 C-24,-40 24,-40 24,-40 C32.83039855957031,-40 40,-32.83039855957031 40,-24z"></path></g></g><g transform="matrix(0.7286036014556885,0,0,0.7286036014556885,256,256)" opacity="0.2745263307446028" style="display: block;"><g opacity="1" transform="matrix(1,0,0,1,0,0)"><path fill="rgb(56,189,248)" fill-opacity="1" d=" M40,-24 C40,-24 40,24 40,24 C40,32.83039855957031 32.83039855957031,40 24,40 C24,40 -24,40 -24,40 C-32.83039855957031,40 -40,32.83039855957031 -40,24 C-40,24 -40,-24 -40,-24 C-40,-32.83039855957031 -32.83039855957031,-40 -24,-40 C-24,-40 24,-40 24,-40 C32.83039855957031,-40 40,-32.83039855957031 40,-24z"></path></g></g><g transform="matrix(0.699999988079071,0,0,0.699999988079071,156,256)" opacity="0.2" style="display: block;"><g opacity="1" transform="matrix(1,0,0,1,0,0)"><path fill="rgb(251,191,36)" fill-opacity="1" d=" M40,-24 C40,-24 40,24 40,24 C40,32.83039855957031 32.83039855957031,40 24,40 C24,40 -24,40 -24,40 C-32.83039855957031,40 -40,32.83039855957031 -40,24 C-40,24 -40,-24 -40,-24 C-40,-32.83039855957031 -32.83039855957031,-40 -24,-40 C-24,-40 24,-40 24,-40 C32.83039855957031,-40 40,-32.83039855957031 40,-24z"></path></g></g><g transform="matrix(0.7286036014556885,0,0,0.7286036014556885,356,156)" opacity="0.2745263307446028" style="display: block;"><g opacity="1" transform="matrix(1,0,0,1,0,0)"><path fill="rgb(167,139,250)" fill-opacity="1" d=" M40,-24 C40,-24 40,24 40,24 C40,32.83039855957031 32.83039855957031,40 24,40 C24,40 -24,40 -24,40 C-32.83039855957031,40 -40,32.83039855957031 -40,24 C-40,24 -40,-24 -40,-24 C-40,-32.83039855957031 -32.83039855957031,-40 -24,-40 C-24,-40 24,-40 24,-40 C32.83039855957031,-40 40,-32.83039855957031 40,-24z"></path></g></g><g transform="matrix(0.699999988079071,0,0,0.699999988079071,256,156)" opacity="0.2" style="display: block;"><g opacity="1" transform="matrix(1,0,0,1,0,0)"><path fill="rgb(52,211,153)" fill-opacity="1" d=" M40,-24 C40,-24 40,24 40,24 C40,32.83039855957031 32.83039855957031,40 24,40 C24,40 -24,40 -24,40 C-32.83039855957031,40 -40,32.83039855957031 -40,24 C-40,24 -40,-24 -40,-24 C-40,-32.83039855957031 -32.83039855957031,-40 -24,-40 C-24,-40 24,-40 24,-40 C32.83039855957031,-40 40,-32.83039855957031 40,-24z"></path></g></g><g transform="matrix(0.699999988079071,0,0,0.699999988079071,156,156)" opacity="0.2" style="display: block;"><g opacity="1" transform="matrix(1,0,0,1,0,0)"><path fill="rgb(244,63,94)" fill-opacity="1" d=" M40,-24 C40,-24 40,24 40,24 C40,32.83039855957031 32.83039855957031,40 24,40 C24,40 -24,40 -24,40 C-32.83039855957031,40 -40,32.83039855957031 -40,24 C-40,24 -40,-24 -40,-24 C-40,-32.83039855957031 -32.83039855957031,-40 -24,-40 C-24,-40 24,-40 24,-40 C32.83039855957031,-40 40,-32.83039855957031 40,-24z"></path></g></g></g></svg>