<svg xmlns="http://www.w3.org/2000/svg" xmlns:xlink="http://www.w3.org/1999/xlink" viewBox="0 0 512 512" width="512" height="512" preserveAspectRatio="xMidYMid meet" style="width: 100%; height: 100%; transform: translate3d(0px, 0px, 0px); content-visibility: visible;"><defs><clipPath id="__lottie_element_2"><rect width="512" height="512" x="0" y="0"></rect></clipPath></defs><g clip-path="url(#__lottie_element_2)"><g transform="matrix(1,0,0,1,256,256)" opacity="1" style="display: block;"><g opacity="1" transform="matrix(1,0,0,1,0,0)"><path fill="rgb(10,10,15)" fill-opacity="1" d=" M256,-256 C256,-256 256,256 256,256 C256,256 -256,256 -256,256 C-256,256 -256,-256 -256,-256 C-256,-256 256,-256 256,-256z"></path></g></g><g transform="matrix(-0.7071067690849304,-0.7071067690849304,0.7071067690849304,-0.7071067690849304,256,256)" opacity="1" style="display: block;"><g opacity="1" transform="matrix(1,0,0,1,0,0)"><path stroke-linecap="round" stroke-linejoin="round" fill-opacity="0" stroke="rgb(167,139,250)" stroke-opacity="1" stroke-width="18" d=" M0,-60 C33.11399841308594,-60 60,-33.11399841308594 60,0 C60,26.643999099731445 42.59400177001953,49.25600051879883 18.542999267578125,57.07500076293945"></path></g></g><g transform="matrix(-0.7071067690849304,-0.7071067690849304,0.7071067690849304,-0.7071067690849304,256,256)" opacity="1" style="display: block;"><g opacity="1" transform="matrix(1,0,0,1,0,0)"><path stroke-linecap="round" stroke-linejoin="round" fill-opacity="0" stroke="rgb(52,211,153)" stroke-opacity="1" stroke-width="18" d=" M0,-85 C46.9114990234375,-85 85,-46.9114990234375 85,0 C85,46.9114990234375 46.9114990234375,85 0,85 C-18.66200065612793,85 -35.926998138427734,78.9729995727539 -49.95399856567383,68.76000213623047"></path></g></g><g transform="matrix(-1,0,0,-1,256,256)" opacity="1" style="display: block;"><g opacity="1" transform="matrix(1,0,0,1,0,0)"><path stroke-linecap="round" stroke-linejoin="round" fill-opacity="0" stroke="rgb(244,63,94)" stroke-opacity="1" stroke-width="18" d=" M0,-110 C60.70899963378906,-110 110,-60.70899963378906 110,0 C110,60.70899963378906 60.70899963378906,110 0,110 C-60.70899963378906,110 -110,60.70899963378906 -110,0 C-110,0 -110,0 -110,0"></path></g></g><g transform="matrix(-1,0,0,-1,256,256)" opacity="1" style="display: block;"><g opacity="1" transform="matrix(1,0,0,1,0,0)"><path fill="rgb(251,191,36)" fill-opacity="1" d=" M0,-22 C12.141799926757812,-22 22,-12.141799926757812 22,0 C22,12.141799926757812 12.141799926757812,22 0,22 C-12.141799926757812,22 -22,12.141799926757812 -22,0 C-22,-12.141799926757812 -12.141799926757812,-22 0,-22z"></path></g></g></g></svg>