<svg xmlns="http://www.w3.org/2000/svg" xmlns:xlink="http://www.w3.org/1999/xlink" viewBox="0 0 512 512" width="512" height="512" preserveAspectRatio="xMidYMid meet" style="width: 100%; height: 100%; transform: translate3d(0px, 0px, 0px); content-visibility: visible;"><defs><clipPath id="__lottie_element_2"><rect width="512" height="512" x="0" y="0"></rect></clipPath></defs><g clip-path="url(#__lottie_element_2)"><g transform="matrix(1,0,0,1,256,256)" opacity="1" style="display: block;"><g opacity="1" transform="matrix(1,0,0,1,0,0)"><path fill="rgb(10,10,15)" fill-opacity="1" d=" M256,-256 C256,-256 256,256 256,256 C256,256 -256,256 -256,256 C-256,256 -256,-256 -256,-256 C-256,-256 256,-256 256,-256z"></path></g></g><g transform="matrix(1.2000000476837158,0,0,1.2000000476837158,256,256)" opacity="1" style="display: block;"><g opacity="1" transform="matrix(1,0,0,1,0,0)"><path fill="rgb(251,191,36)" fill-opacity="1" d=" M0,-15 C8.278499603271484,-15 15,-8.278499603271484 15,0 C15,8.278499603271484 8.278499603271484,15 0,15 C-8.278499603271484,15 -15,8.278499603271484 -15,0 C-15,-8.278499603271484 -8.278499603271484,-15 0,-15z"></path></g></g><g transform="matrix(1,0,0,1,225.09829711914062,351.10565185546875)" opacity="0.86" style="display: block;"><g opacity="1" transform="matrix(1,0,0,1,0,0)"><path fill="rgb(56,189,248)" fill-opacity="1" d=" M0,-14 C7.726600170135498,-14 14,-7.726600170135498 14,0 C14,7.726600170135498 7.726600170135498,14 0,14 C-7.726600170135498,14 -14,7.726600170135498 -14,0 C-14,-7.726600170135498 -7.726600170135498,-14 0,-14z"></path></g></g><g transform="matrix(1,0,0,1,336.9017028808594,314.7785339355469)" opacity="0.72" style="display: block;"><g opacity="1" transform="matrix(1,0,0,1,0,0)"><path fill="rgb(251,191,36)" fill-opacity="1" d=" M0,-14 C7.726600170135498,-14 14,-7.726600170135498 14,0 C14,7.726600170135498 7.726600170135498,14 0,14 C-7.726600170135498,14 -14,7.726600170135498 -14,0 C-14,-7.726600170135498 -7.726600170135498,-14 0,-14z"></path></g></g><g transform="matrix(1,0,0,1,336.9017028808594,197.2214813232422)" opacity="0.58" style="display: block;"><g opacity="1" transform="matrix(1,0,0,1,0,0)"><path fill="rgb(167,139,250)" fill-opacity="1" d=" M0,-14 C7.726600170135498,-14 14,-7.726600170135498 14,0 C14,7.726600170135498 7.726600170135498,14 0,14 C-7.726600170135498,14 -14,7.726600170135498 -14,0 C-14,-7.726600170135498 -7.726600170135498,-14 0,-14z"></path></g></g><g transform="matrix(1,0,0,1,225.09829711914062,160.89434814453125)" opacity="0.44" style="display: block;"><g opacity="1" transform="matrix(1,0,0,1,0,0)"><path fill="rgb(52,211,153)" fill-opacity="1" d=" M0,-14 C7.726600170135498,-14 14,-7.726600170135498 14,0 C14,7.726600170135498 7.726600170135498,14 0,14 C-7.726600170135498,14 -14,7.726600170135498 -14,0 C-14,-7.726600170135498 -7.726600170135498,-14 0,-14z"></path></g></g><g transform="matrix(1,0,0,1,156,256)" opacity="0.3" style="display: block;"><g opacity="1" transform="matrix(1,0,0,1,0,0)"><path fill="rgb(244,63,94)" fill-opacity="1" d=" M0,-14 C7.726600170135498,-14 14,-7.726600170135498 14,0 C14,7.726600170135498 7.726600170135498,14 0,14 C-7.726600170135498,14 -14,7.726600170135498 -14,0 C-14,-7.726600170135498 -7.726600170135498,-14 0,-14z"></path></g></g></g></svg>