<svg xmlns="http://www.w3.org/2000/svg" xmlns:xlink="http://www.w3.org/1999/xlink" viewBox="0 0 512 512" width="512" height="512" preserveAspectRatio="xMidYMid meet" style="width: 100%; height: 100%; transform: translate3d(0px, 0px, 0px); content-visibility: visible;"><defs><clipPath id="__lottie_element_2"><rect width="512" height="512" x="0" y="0"></rect></clipPath></defs><g clip-path="url(#__lottie_element_2)"><g transform="matrix(1,0,0,1,256,256)" opacity="1" style="display: block;"><g opacity="1" transform="matrix(1,0,0,1,0,0)"><path fill="rgb(10,10,15)" fill-opacity="1" d=" M256,-256 C256,-256 256,256 256,256 C256,256 -256,256 -256,256 C-256,256 -256,-256 -256,-256 C-256,-256 256,-256 256,-256z"></path></g></g><g transform="matrix(0,-1,1,0,256,256)" opacity="1" style="display: block;"><g opacity="1" transform="matrix(1,0,0,1,0,0)"><path fill="rgb(251,191,36)" fill-opacity="1" d=" M0,-25 C13.797499656677246,-25 25,-13.797499656677246 25,0 C25,13.797499656677246 13.797499656677246,25 0,25 C-13.797499656677246,25 -25,13.797499656677246 -25,0 C-25,-13.797499656677246 -13.797499656677246,-25 0,-25z"></path></g></g><g transform="matrix(0.5302397012710571,0.6722770929336548,-0.6722770929336548,0.5302397012710571,256,256)" opacity="1" style="display: block;"><g opacity="1" transform="matrix(1,0,0,1,0,0)"><path stroke-linecap="round" stroke-linejoin="round" fill-opacity="0" stroke="rgb(251,191,36)" stroke-opacity="1" stroke-width="6" d=" M50,-38 C50,-38 50,38 50,38 C50,44.622798919677734 44.622798919677734,50 38,50 C38,50 -38,50 -38,50 C-44.622798919677734,50 -50,44.622798919677734 -50,38 C-50,38 -50,-38 -50,-38 C-50,-44.622798919677734 -44.622798919677734,-50 -38,-50 C-38,-50 38,-50 38,-50 C44.622798919677734,-50 50,-44.622798919677734 50,-38z"></path></g></g><g transform="matrix(0.6479334235191345,0.8183284401893616,-0.8183284401893616,0.6479334235191345,256,256)" opacity="1" style="display: block;"><g opacity="1" transform="matrix(1,0,0,1,0,0)"><path stroke-linecap="round" stroke-linejoin="round" fill-opacity="0" stroke="rgb(167,139,250)" stroke-opacity="1" stroke-width="6" d=" M60,-48 C60,-48 60,48 60,48 C60,54.622798919677734 54.622798919677734,60 48,60 C48,60 -48,60 -48,60 C-54.622798919677734,60 -60,54.622798919677734 -60,48 C-60,48 -60,-48 -60,-48 C-60,-54.622798919677734 -54.622798919677734,-60 -48,-60 C-48,-60 48,-60 48,-60 C54.622798919677734,-60 60,-54.622798919677734 60,-48z"></path></g></g><g transform="matrix(0.7069632411003113,0.8349977731704712,-0.8349977731704712,0.7069632411003113,256,256)" opacity="1" style="display: block;"><g opacity="1" transform="matrix(1,0,0,1,0,0)"><path stroke-linecap="round" stroke-linejoin="round" fill-opacity="0" stroke="rgb(52,211,153)" stroke-opacity="1" stroke-width="6" d=" M70,-58 C70,-58 70,58 70,58 C70,64.622802734375 64.622802734375,70 58,70 C58,70 -58,70 -58,70 C-64.622802734375,70 -70,64.622802734375 -70,58 C-70,58 -70,-58 -70,-58 C-70,-64.622802734375 -64.622802734375,-70 -58,-70 C-58,-70 58,-70 58,-70 C64.622802734375,-70 70,-64.622802734375 70,-58z"></path></g></g><g transform="matrix(0.6717514395713806,0.6717514395713806,-0.6717514395713806,0.6717514395713806,256,256)" opacity="1" style="display: block;"><g opacity="1" transform="matrix(1,0,0,1,0,0)"><path stroke-linecap="round" stroke-linejoin="round" fill-opacity="0" stroke="rgb(244,63,94)" stroke-opacity="1" stroke-width="6" d=" M80,-68 C80,-68 80,68 80,68 C80,74.622802734375 74.622802734375,80 68,80 C68,80 -68,80 -68,80 C-74.622802734375,80 -80,74.622802734375 -80,68 C-80,68 -80,-68 -80,-68 C-80,-74.622802734375 -74.622802734375,-80 -68,-80 C-68,-80 68,-80 68,-80 C74.622802734375,-80 80,-74.622802734375 80,-68z"></path></g></g></g></svg>