<svg xmlns="http://www.w3.org/2000/svg" xmlns:xlink="http://www.w3.org/1999/xlink" viewBox="0 0 512 512" width="512" height="512" preserveAspectRatio="xMidYMid meet" style="width: 100%; height: 100%; transform: translate3d(0px, 0px, 0px); content-visibility: visible;"><defs><clipPath id="__lottie_element_2"><rect width="512" height="512" x="0" y="0"></rect></clipPath></defs><g clip-path="url(#__lottie_element_2)"><g transform="matrix(1,0,0,1,256,256)" opacity="1" style="display: block;"><g opacity="1" transform="matrix(1,0,0,1,0,0)"><path fill="rgb(24,119,242)" fill-opacity="1" d=" M170,-114 C170,-114 170,114 170,114 C170,144.90640258789062 144.90640258789062,170 114,170 C114,170 -114,170 -114,170 C-144.90640258789062,170 -170,144.90640258789062 -170,114 C-170,114 -170,-114 -170,-114 C-170,-144.90640258789062 -144.90640258789062,-170 -114,-170 C-114,-170 114,-170 114,-170 C144.90640258789062,-170 170,-144.90640258789062 170,-114z"></path></g></g><g transform="matrix(1.0399999618530273,0,0,1.0399999618530273,-10.239990234375,-10.239990234375)" opacity="1" style="display: block;"><g opacity="1" transform="matrix(1,0,0,1,0,0)"><path fill="rgb(255,255,255)" fill-opacity="1" d=" M301,241 C301,241 301,259 301,259 C301,262.3114013671875 298.3114013671875,265 295,265 C295,265 217,265 217,265 C213.6885986328125,265 211,262.3114013671875 211,259 C211,259 211,241 211,241 C211,237.6885986328125 213.6885986328125,235 217,235 C217,235 295,235 295,235 C298.3114013671875,235 301,237.6885986328125 301,241z"></path></g><g opacity="1" transform="matrix(1,0,0,1,0,0)"><path fill="rgb(255,255,255)" fill-opacity="1" d=" M313,184 C313,184 313,206 313,206 C313,209.3114013671875 310.3114013671875,212 307,212 C307,212 259,212 259,212 C255.6885986328125,212 253,209.3114013671875 253,206 C253,206 253,184 253,184 C253,180.6885986328125 255.6885986328125,178 259,178 C259,178 307,178 307,178 C310.3114013671875,178 313,180.6885986328125 313,184z"></path></g><g opacity="1" transform="matrix(1,0,0,1,0,0)"><path fill="rgb(255,255,255)" fill-opacity="1" d=" M283,193 C283,193 283,331 283,331 C283,334.3114013671875 280.3114013671875,337 277,337 C277,337 255,337 255,337 C251.6885986328125,337 249,334.3114013671875 249,331 C249,331 249,193 249,193 C249,189.6885986328125 251.6885986328125,187 255,187 C255,187 277,187 277,187 C280.3114013671875,187 283,189.6885986328125 283,193z"></path></g></g></g></svg>