<svg xmlns="http://www.w3.org/2000/svg" xmlns:xlink="http://www.w3.org/1999/xlink" viewBox="0 0 512 512" width="512" height="512" preserveAspectRatio="xMidYMid meet" style="width: 100%; height: 100%; transform: translate3d(0px, 0px, 0px); content-visibility: visible;"><defs><clipPath id="__lottie_element_2"><rect width="512" height="512" x="0" y="0"></rect></clipPath></defs><g clip-path="url(#__lottie_element_2)"><g transform="matrix(1,0,0,1,256,256)" opacity="1" style="display: block;"><g opacity="1" transform="matrix(1,0,0,1,0,0)"><path fill="rgb(255,0,0)" fill-opacity="1" d=" M170,-114 C170,-114 170,114 170,114 C170,144.90640258789062 144.90640258789062,170 114,170 C114,170 -114,170 -114,170 C-144.90640258789062,170 -170,144.90640258789062 -170,114 C-170,114 -170,-114 -170,-114 C-170,-144.90640258789062 -144.90640258789062,-170 -114,-170 C-114,-170 114,-170 114,-170 C144.90640258789062,-170 170,-144.90640258789062 170,-114z"></path></g></g><g transform="matrix(1.059999942779541,0,0,1.059999942779541,256,256)" opacity="1" style="display: block;"><g opacity="1" transform="matrix(1,0,0,1,0,0)"><path fill="rgb(255,255,255)" fill-opacity="1" d=" M105,-35 C105,-35 105,35 105,35 C105,57.07600021362305 87.07599639892578,75 65,75 C65,75 -65,75 -65,75 C-87.07599639892578,75 -105,57.07600021362305 -105,35 C-105,35 -105,-35 -105,-35 C-105,-57.07600021362305 -87.07599639892578,-75 -65,-75 C-65,-75 65,-75 65,-75 C87.07599639892578,-75 105,-57.07600021362305 105,-35z"></path></g></g><g transform="matrix(1.0620448589324951,0,0,1.0620448589324951,264,256)" opacity="1" style="display: block;"><g opacity="1" transform="matrix(1,0,0,1,0,0)"><path fill="rgb(255,0,0)" fill-opacity="1" d=" M48,0 C48,1.0053097009658813 -23.129375457763672,42.07187271118164 -24,41.569217681884766 C-24.870624542236328,41.06656265258789 -24.870624542236328,-41.06656265258789 -24,-41.569217681884766 C-23.129375457763672,-42.07187271118164 48,-1.0053097009658813 48,0z"></path></g></g></g></svg>