<svg xmlns="http://www.w3.org/2000/svg" xmlns:xlink="http://www.w3.org/1999/xlink" viewBox="0 0 512 512" width="512" height="512" preserveAspectRatio="xMidYMid meet" style="width: 100%; height: 100%; transform: translate3d(0px, 0px, 0px); content-visibility: visible;"><defs><clipPath id="__lottie_element_2"><rect width="512" height="512" x="0" y="0"></rect></clipPath></defs><g clip-path="url(#__lottie_element_2)"><g transform="matrix(1,0,0,1,256,256)" opacity="1" style="display: block;"><g opacity="1" transform="matrix(1,0,0,1,0,0)"><path fill="rgb(255,255,255)" fill-opacity="0.25" d=" M150,-130 C150,-130 150,-130 150,-130 C150,-113.44300079345703 136.5570068359375,-100 120,-100 C120,-100 -120,-100 -120,-100 C-136.5570068359375,-100 -150,-113.44300079345703 -150,-130 C-150,-130 -150,-130 -150,-130 C-150,-146.5570068359375 -136.5570068359375,-160 -120,-160 C-120,-160 120,-160 120,-160 C136.5570068359375,-160 150,-146.5570068359375 150,-130z"></path></g><g opacity="1" transform="matrix(1,0,0,1,0,0)"><path fill="rgb(204,0,0)" fill-opacity="0.6" d=" M152,-110 C152,-110 152,-10 152,-10 C152,17.594999313354492 129.59500122070312,40 102,40 C102,40 -118,40 -118,40 C-145.59500122070312,40 -168,17.594999313354492 -168,-10 C-168,-10 -168,-110 -168,-110 C-168,-137.59500122070312 -145.59500122070312,-160 -118,-160 C-118,-160 102,-160 102,-160 C129.59500122070312,-160 152,-137.59500122070312 152,-110z"></path></g><g opacity="1" transform="matrix(1,0,0,1,0,0)"><path fill="rgb(255,0,0)" fill-opacity="1" d=" M170,-114 C170,-114 170,114 170,114 C170,144.90640258789062 144.90640258789062,170 114,170 C114,170 -114,170 -114,170 C-144.90640258789062,170 -170,144.90640258789062 -170,114 C-170,114 -170,-114 -170,-114 C-170,-144.90640258789062 -144.90640258789062,-170 -114,-170 C-114,-170 114,-170 114,-170 C144.90640258789062,-170 170,-144.90640258789062 170,-114z"></path></g></g><g transform="matrix(0.800000011920929,0,0,0.800000011920929,256,256)" opacity="1" style="display: block;"><g opacity="1" transform="matrix(0.7071067690849304,0.7071067690849304,-0.7071067690849304,0.7071067690849304,0,0)"><path fill="rgb(255,255,255)" fill-opacity="1" d=" M40,-24 C40,-24 40,24 40,24 C40,32.83039855957031 32.83039855957031,40 24,40 C24,40 -24,40 -24,40 C-32.83039855957031,40 -40,32.83039855957031 -40,24 C-40,24 -40,-24 -40,-24 C-40,-32.83039855957031 -32.83039855957031,-40 -24,-40 C-24,-40 24,-40 24,-40 C32.83039855957031,-40 40,-32.83039855957031 40,-24z"></path></g></g></g></svg>