<svg xmlns="http://www.w3.org/2000/svg" xmlns:xlink="http://www.w3.org/1999/xlink" viewBox="0 0 512 512" width="512" height="512" preserveAspectRatio="xMidYMid meet" style="width: 100%; height: 100%; transform: translate3d(0px, 0px, 0px); content-visibility: visible;"><defs><clipPath id="__lottie_element_2"><rect width="512" height="512" x="0" y="0"></rect></clipPath></defs><g clip-path="url(#__lottie_element_2)"><g transform="matrix(1,0,0,1,256,256)" opacity="1" style="display: block;"><g opacity="1" transform="matrix(1,0,0,1,0,0)"><path fill="rgb(9,9,11)" fill-opacity="1" d=" M256,-256 C256,-256 256,256 256,256 C256,256 -256,256 -256,256 C-256,256 -256,-256 -256,-256 C-256,-256 256,-256 256,-256z"></path></g></g><g transform="matrix(-1,0,0,-1,512,512)" opacity="1" style="display: block;"><g opacity="1" transform="matrix(0.7071067690849304,0.7071067690849304,-0.7071067690849304,0.7071067690849304,321.0538330078125,190.94618225097656)"><path fill="rgb(79,70,229)" fill-opacity="1" d=" M15,-13 C15,-13 15,13 15,13 C15,16.311399459838867 12.311400413513184,19 9,19 C9,19 -9,19 -9,19 C-12.311400413513184,19 -15,16.311399459838867 -15,13 C-15,13 -15,-13 -15,-13 C-15,-16.311399459838867 -12.311400413513184,-19 -9,-19 C-9,-19 9,-19 9,-19 C12.311400413513184,-19 15,-16.311399459838867 15,-13z"></path></g><g opacity="1" transform="matrix(1,0,0,1,256,164)"><path fill="rgb(79,70,229)" fill-opacity="1" d=" M15,-13 C15,-13 15,13 15,13 C15,16.311399459838867 12.311400413513184,19 9,19 C9,19 -9,19 -9,19 C-12.311400413513184,19 -15,16.311399459838867 -15,13 C-15,13 -15,-13 -15,-13 C-15,-16.311399459838867 -12.311400413513184,-19 -9,-19 C-9,-19 9,-19 9,-19 C12.311400413513184,-19 15,-16.311399459838867 15,-13z"></path></g><g opacity="1" transform="matrix(0.7071067690849304,-0.7071067690849304,0.7071067690849304,0.7071067690849304,190.94618225097656,190.94618225097656)"><path fill="rgb(79,70,229)" fill-opacity="1" d=" M15,-13 C15,-13 15,13 15,13 C15,16.311399459838867 12.311400413513184,19 9,19 C9,19 -9,19 -9,19 C-12.311400413513184,19 -15,16.311399459838867 -15,13 C-15,13 -15,-13 -15,-13 C-15,-16.311399459838867 -12.311400413513184,-19 -9,-19 C-9,-19 9,-19 9,-19 C12.311400413513184,-19 15,-16.311399459838867 15,-13z"></path></g><g opacity="1" transform="matrix(0,-1,1,0,164,256)"><path fill="rgb(79,70,229)" fill-opacity="1" d=" M15,-13 C15,-13 15,13 15,13 C15,16.311399459838867 12.311400413513184,19 9,19 C9,19 -9,19 -9,19 C-12.311400413513184,19 -15,16.311399459838867 -15,13 C-15,13 -15,-13 -15,-13 C-15,-16.311399459838867 -12.311400413513184,-19 -9,-19 C-9,-19 9,-19 9,-19 C12.311400413513184,-19 15,-16.311399459838867 15,-13z"></path></g><g opacity="1" transform="matrix(-0.7071067690849304,-0.7071067690849304,0.7071067690849304,-0.7071067690849304,190.94618225097656,321.0538330078125)"><path fill="rgb(79,70,229)" fill-opacity="1" d=" M15,-13 C15,-13 15,13 15,13 C15,16.311399459838867 12.311400413513184,19 9,19 C9,19 -9,19 -9,19 C-12.311400413513184,19 -15,16.311399459838867 -15,13 C-15,13 -15,-13 -15,-13 C-15,-16.311399459838867 -12.311400413513184,-19 -9,-19 C-9,-19 9,-19 9,-19 C12.311400413513184,-19 15,-16.311399459838867 15,-13z"></path></g><g opacity="1" transform="matrix(-1,0,0,-1,256,348)"><path fill="rgb(79,70,229)" fill-opacity="1" d=" M15,-13 C15,-13 15,13 15,13 C15,16.311399459838867 12.311400413513184,19 9,19 C9,19 -9,19 -9,19 C-12.311400413513184,19 -15,16.311399459838867 -15,13 C-15,13 -15,-13 -15,-13 C-15,-16.311399459838867 -12.311400413513184,-19 -9,-19 C-9,-19 9,-19 9,-19 C12.311400413513184,-19 15,-16.311399459838867 15,-13z"></path></g><g opacity="1" transform="matrix(-0.7071067690849304,0.7071067690849304,-0.7071067690849304,-0.7071067690849304,321.0538330078125,321.0538330078125)"><path fill="rgb(79,70,229)" fill-opacity="1" d=" M15,-13 C15,-13 15,13 15,13 C15,16.311399459838867 12.311400413513184,19 9,19 C9,19 -9,19 -9,19 C-12.311400413513184,19 -15,16.311399459838867 -15,13 C-15,13 -15,-13 -15,-13 C-15,-16.311399459838867 -12.311400413513184,-19 -9,-19 C-9,-19 9,-19 9,-19 C12.311400413513184,-19 15,-16.311399459838867 15,-13z"></path></g><g opacity="1" transform="matrix(0,1,-1,0,348,256)"><path fill="rgb(79,70,229)" fill-opacity="1" d=" M15,-13 C15,-13 15,13 15,13 C15,16.311399459838867 12.311400413513184,19 9,19 C9,19 -9,19 -9,19 C-12.311400413513184,19 -15,16.311399459838867 -15,13 C-15,13 -15,-13 -15,-13 C-15,-16.311399459838867 -12.311400413513184,-19 -9,-19 C-9,-19 9,-19 9,-19 C12.311400413513184,-19 15,-16.311399459838867 15,-13z"></path></g><g opacity="1" transform="matrix(1,0,0,1,0,0)"><path fill="rgb(79,70,229)" fill-opacity="1" d=" M256,181 C297.3924865722656,181 331,214.6074981689453 331,256 C331,297.3924865722656 297.3924865722656,331 256,331 C214.6074981689453,331 181,297.3924865722656 181,256 C181,214.6074981689453 214.6074981689453,181 256,181z"></path></g><g opacity="1" transform="matrix(1,0,0,1,0,0)"><path fill="rgb(9,9,11)" fill-opacity="1" d=" M256,221 C275.3164978027344,221 291,236.68350219726562 291,256 C291,275.3164978027344 275.3164978027344,291 256,291 C236.68350219726562,291 221,275.3164978027344 221,256 C221,236.68350219726562 236.68350219726562,221 256,221z"></path></g></g><g transform="matrix(1.2000000476837158,0,0,1.2000000476837158,256,256)" opacity="1" style="display: block;"><g opacity="1" transform="matrix(1,0,0,1,0,0)"><path fill="rgb(245,158,11)" fill-opacity="1" d=" M0,-22 C12.141799926757812,-22 22,-12.141799926757812 22,0 C22,12.141799926757812 12.141799926757812,22 0,22 C-12.141799926757812,22 -22,12.141799926757812 -22,0 C-22,-12.141799926757812 -12.141799926757812,-22 0,-22z"></path></g></g></g></svg>