<svg xmlns="http://www.w3.org/2000/svg" xmlns:xlink="http://www.w3.org/1999/xlink" viewBox="0 0 512 512" width="512" height="512" preserveAspectRatio="xMidYMid meet" style="width: 100%; height: 100%; transform: translate3d(0px, 0px, 0px); content-visibility: visible;"><defs><clipPath id="__lottie_element_2"><rect width="512" height="512" x="0" y="0"></rect></clipPath></defs><g clip-path="url(#__lottie_element_2)"><g transform="matrix(1,0,0,1,256,256)" opacity="1" style="display: block;"><g opacity="1" transform="matrix(1,0,0,1,0,0)"><path fill="rgb(9,9,11)" fill-opacity="1" d=" M256,-256 C256,-256 256,256 256,256 C256,256 -256,256 -256,256 C-256,256 -256,-256 -256,-256 C-256,-256 256,-256 256,-256z"></path></g></g><g transform="matrix(1,0,0,1,263.44927978515625,263.44927978515625)" opacity="1" style="display: block;"><g opacity="1" transform="matrix(1,0,0,1,0,0)"><path fill="rgb(9,9,11)" fill-opacity="0.8" d=" M0,-60 C33.11399841308594,-60 60,-33.11399841308594 60,0 C60,33.11399841308594 33.11399841308594,60 0,60 C-33.11399841308594,60 -60,33.11399841308594 -60,0 C-60,-33.11399841308594 -33.11399841308594,-60 0,-60z"></path><path stroke-linecap="round" stroke-linejoin="round" fill-opacity="0" stroke="rgb(79,70,229)" stroke-opacity="1" stroke-width="10" d=" M0,-60 C33.11399841308594,-60 60,-33.11399841308594 60,0 C60,33.11399841308594 33.11399841308594,60 0,60 C-33.11399841308594,60 -60,33.11399841308594 -60,0 C-60,-33.11399841308594 -33.11399841308594,-60 0,-60z"></path></g></g><g transform="matrix(1,0,0,1,263.44927978515625,263.44927978515625)" opacity="1" style="display: block;"><g opacity="1" transform="matrix(0.7071067690849304,0.7071067690849304,-0.7071067690849304,0.7071067690849304,36,36)"><path fill="rgb(248,250,252)" fill-opacity="1" d=" M7,-23 C7,-23 7,23 7,23 C7,26.863300323486328 3.863300085067749,30 0,30 C0,30 0,30 0,30 C-3.863300085067749,30 -7,26.863300323486328 -7,23 C-7,23 -7,-23 -7,-23 C-7,-26.863300323486328 -3.863300085067749,-30 0,-30 C0,-30 0,-30 0,-30 C3.863300085067749,-30 7,-26.863300323486328 7,-23z"></path></g></g><g transform="matrix(0,0,0,0,256,256)" opacity="1" style="display: block;"><g opacity="1" transform="matrix(1,0,0,1,0,0)"><path fill="rgb(245,158,11)" fill-opacity="1" d=" M0,-20 C11.038000106811523,-20 20,-11.038000106811523 20,0 C20,11.038000106811523 11.038000106811523,20 0,20 C-11.038000106811523,20 -20,11.038000106811523 -20,0 C-20,-11.038000106811523 -11.038000106811523,-20 0,-20z"></path></g></g></g></svg>