<svg xmlns="http://www.w3.org/2000/svg" xmlns:xlink="http://www.w3.org/1999/xlink" viewBox="0 0 512 512" width="512" height="512" preserveAspectRatio="xMidYMid meet" style="width: 100%; height: 100%; transform: translate3d(0px, 0px, 0px); content-visibility: visible;"><defs><clipPath id="__lottie_element_2"><rect width="512" height="512" x="0" y="0"></rect></clipPath></defs><g clip-path="url(#__lottie_element_2)"><g transform="matrix(1,0,0,1,256,256)" opacity="1" style="display: block;"><g opacity="1" transform="matrix(1,0,0,1,0,0)"><path fill="rgb(9,9,11)" fill-opacity="1" d=" M256,-256 C256,-256 256,256 256,256 C256,256 -256,256 -256,256 C-256,256 -256,-256 -256,-256 C-256,-256 256,-256 256,-256z"></path></g></g><g transform="matrix(0.7071067690849304,-0.7071067690849304,0.7071067690849304,0.7071067690849304,256,256)" opacity="1" style="display: block;"><g opacity="1" transform="matrix(1,0,0,1,0,0)"><path fill="rgb(248,250,252)" fill-opacity="1" d=" M80,0 C80,0 80,0 80,0 C80,4.415200233459473 76.41519927978516,8 72,8 C72,8 -72,8 -72,8 C-76.41519927978516,8 -80,4.415200233459473 -80,0 C-80,0 -80,0 -80,0 C-80,-4.415200233459473 -76.41519927978516,-8 -72,-8 C-72,-8 72,-8 72,-8 C76.41519927978516,-8 80,-4.415200233459473 80,0z"></path></g></g><g transform="matrix(1,0,0,1,256,256)" opacity="1" style="display: none;"><g opacity="1" transform="matrix(1,0,0,1,0,0)"><path fill="rgb(79,70,229)" fill-opacity="1" d=" M80,0 C80,0 80,0 80,0 C80,4.415200233459473 76.41519927978516,8 72,8 C72,8 -72,8 -72,8 C-76.41519927978516,8 -80,4.415200233459473 -80,0 C-80,0 -80,0 -80,0 C-80,-4.415200233459473 -76.41519927978516,-8 -72,-8 C-72,-8 72,-8 72,-8 C76.41519927978516,-8 80,-4.415200233459473 80,0z"></path></g></g><g transform="matrix(0.7071067690849304,0.7071067690849304,-0.7071067690849304,0.7071067690849304,256,256)" opacity="1" style="display: block;"><g opacity="1" transform="matrix(1,0,0,1,0,0)"><path fill="rgb(248,250,252)" fill-opacity="1" d=" M80,0 C80,0 80,0 80,0 C80,4.415200233459473 76.41519927978516,8 72,8 C72,8 -72,8 -72,8 C-76.41519927978516,8 -80,4.415200233459473 -80,0 C-80,0 -80,0 -80,0 C-80,-4.415200233459473 -76.41519927978516,-8 -72,-8 C-72,-8 72,-8 72,-8 C76.41519927978516,-8 80,-4.415200233459473 80,0z"></path></g></g></g></svg>