<svg xmlns="http://www.w3.org/2000/svg" xmlns:xlink="http://www.w3.org/1999/xlink" viewBox="0 0 512 512" width="512" height="512" preserveAspectRatio="xMidYMid meet" style="width: 100%; height: 100%; transform: translate3d(0px, 0px, 0px); content-visibility: visible;"><defs><clipPath id="__lottie_element_2"><rect width="512" height="512" x="0" y="0"></rect></clipPath></defs><g clip-path="url(#__lottie_element_2)"><g transform="matrix(1,0,0,1,256,256)" opacity="1" style="display: block;"><g opacity="1" transform="matrix(1,0,0,1,0,0)"><path fill="rgb(9,9,11)" fill-opacity="1" d=" M256,-256 C256,-256 256,256 256,256 C256,256 -256,256 -256,256 C-256,256 -256,-256 -256,-256 C-256,-256 256,-256 256,-256z"></path></g></g><g transform="matrix(0.5903894305229187,0,0,1,211.72079467773438,350)" opacity="1" style="display: block;"><g opacity="1" transform="matrix(1,0,0,1,0,0)"><path fill="rgb(245,158,11)" fill-opacity="1" d=" M75,0 C75,0 75,0 75,0 C75,4.415200233459473 71.41519927978516,8 67,8 C67,8 -67,8 -67,8 C-71.41519927978516,8 -75,4.415200233459473 -75,0 C-75,0 -75,0 -75,0 C-75,-4.415200233459473 -71.41519927978516,-8 -67,-8 C-67,-8 67,-8 67,-8 C71.41519927978516,-8 75,-4.415200233459473 75,0z"></path></g></g><g transform="matrix(1,0,0,1,0,20)" opacity="1" style="display: block;"><g opacity="1" transform="matrix(1,0,0,1,0,0)"><path fill="rgb(79,70,229)" fill-opacity="1" d=" M256,306 C255.20413208007812,306 222.69309997558594,249.68923950195312 223.09103393554688,249 C223.4889678955078,248.31076049804688 288.5110168457031,248.31076049804688 288.9089660644531,249 C289.3069152832031,249.68923950195312 256.7958679199219,306 256,306z"></path></g><g opacity="1" transform="matrix(1,0,0,1,0,0)"><path fill="rgb(79,70,229)" fill-opacity="1" d=" M266,175 C266,175 266,235 266,235 C266,240.5189971923828 261.5190124511719,245 256,245 C256,245 256,245 256,245 C250.4810028076172,245 246,240.5189971923828 246,235 C246,235 246,175 246,175 C246,169.4810028076172 250.4810028076172,165 256,165 C256,165 256,165 256,165 C261.5190124511719,165 266,169.4810028076172 266,175z"></path></g></g></g></svg>