<svg xmlns="http://www.w3.org/2000/svg" xmlns:xlink="http://www.w3.org/1999/xlink" viewBox="0 0 512 512" width="512" height="512" preserveAspectRatio="xMidYMid meet" style="width: 100%; height: 100%; transform: translate3d(0px, 0px, 0px); content-visibility: visible;"><defs><clipPath id="__lottie_element_2"><rect width="512" height="512" x="0" y="0"></rect></clipPath></defs><g clip-path="url(#__lottie_element_2)"><g transform="matrix(1,0,0,1,256,256)" opacity="1" style="display: block;"><g opacity="1" transform="matrix(1,0,0,1,0,0)"><path fill="rgb(9,9,11)" fill-opacity="1" d=" M256,-256 C256,-256 256,256 256,256 C256,256 -256,256 -256,256 C-256,256 -256,-256 -256,-256 C-256,-256 256,-256 256,-256z"></path></g></g><g transform="matrix(1,0,0,1,256,237.4451446533203)" opacity="1" style="display: block;"><g opacity="1" transform="matrix(1,0,0,1,0,0)"><path fill="rgb(79,70,229)" fill-opacity="1" d=" M8,-42 C8,-42 8,42 8,42 C8,46.415199279785156 4.415200233459473,50 0,50 C0,50 0,50 0,50 C-4.415200233459473,50 -8,46.415199279785156 -8,42 C-8,42 -8,-42 -8,-42 C-8,-46.415199279785156 -4.415200233459473,-50 0,-50 C0,-50 0,-50 0,-50 C4.415200233459473,-50 8,-46.415199279785156 8,-42z"></path></g></g><g transform="matrix(1,0,0,1,280,317.95611572265625)" opacity="1" style="display: block;"><g opacity="1" transform="matrix(0.7660444378852844,-0.6427876353263855,0.6427876353263855,0.7660444378852844,0,0)"><path fill="rgb(79,70,229)" fill-opacity="1" d=" M7,-23 C7,-23 7,23 7,23 C7,26.863300323486328 3.863300085067749,30 0,30 C0,30 0,30 0,30 C-3.863300085067749,30 -7,26.863300323486328 -7,23 C-7,23 -7,-23 -7,-23 C-7,-26.863300323486328 -3.863300085067749,-30 0,-30 C0,-30 0,-30 0,-30 C3.863300085067749,-30 7,-26.863300323486328 7,-23z"></path></g></g><g transform="matrix(1,0,0,1,232,317.95611572265625)" opacity="1" style="display: block;"><g opacity="1" transform="matrix(0.7660444378852844,0.6427876353263855,-0.6427876353263855,0.7660444378852844,0,0)"><path fill="rgb(79,70,229)" fill-opacity="1" d=" M7,-23 C7,-23 7,23 7,23 C7,26.863300323486328 3.863300085067749,30 0,30 C0,30 0,30 0,30 C-3.863300085067749,30 -7,26.863300323486328 -7,23 C-7,23 -7,-23 -7,-23 C-7,-26.863300323486328 -3.863300085067749,-30 0,-30 C0,-30 0,-30 0,-30 C3.863300085067749,-30 7,-26.863300323486328 7,-23z"></path></g></g><g transform="matrix(0.5,0,0,1,216,360)" opacity="1" style="display: block;"><g opacity="1" transform="matrix(1,0,0,1,0,0)"><path fill="rgb(245,158,11)" fill-opacity="1" d=" M80,0 C80,0 80,0 80,0 C80,3.863300085067749 76.86329650878906,7 73,7 C73,7 -73,7 -73,7 C-76.86329650878906,7 -80,3.863300085067749 -80,0 C-80,0 -80,0 -80,0 C-80,-3.863300085067749 -76.86329650878906,-7 -73,-7 C-73,-7 73,-7 73,-7 C76.86329650878906,-7 80,-3.863300085067749 80,0z"></path></g></g></g></svg>