<svg xmlns="http://www.w3.org/2000/svg" xmlns:xlink="http://www.w3.org/1999/xlink" viewBox="0 0 512 512" width="512" height="512" preserveAspectRatio="xMidYMid meet" style="width: 100%; height: 100%; transform: translate3d(0px, 0px, 0px); content-visibility: visible;"><defs><clipPath id="__lottie_element_2"><rect width="512" height="512" x="0" y="0"></rect></clipPath></defs><g clip-path="url(#__lottie_element_2)"><g transform="matrix(1,0,0,1,256,256)" opacity="1" style="display: block;"><g opacity="1" transform="matrix(1,0,0,1,0,0)"><path fill="rgb(9,9,11)" fill-opacity="1" d=" M256,-256 C256,-256 256,256 256,256 C256,256 -256,256 -256,256 C-256,256 -256,-256 -256,-256 C-256,-256 256,-256 256,-256z"></path></g></g><g transform="matrix(0.9789117574691772,0.2042836993932724,-0.2042836993932724,0.9789117574691772,239.6573028564453,334.31292724609375)" opacity="1" style="display: block;"><g opacity="1" transform="matrix(1,0,0,1,0,0)"><path fill="rgb(248,250,252)" fill-opacity="1" d=" M0,83 C6.622799873352051,83 12,88.377197265625 12,95 C12,101.622802734375 6.622799873352051,107 0,107 C-6.622799873352051,107 -12,101.622802734375 -12,95 C-12,88.377197265625 -6.622799873352051,83 0,83z"></path></g><g opacity="1" transform="matrix(1,0,0,1,0,0)"><path fill="rgb(79,70,229)" fill-opacity="1" d=" M75,65 C75,65 75,75 75,75 C75,80.51899719238281 70.51899719238281,85 65,85 C65,85 -65,85 -65,85 C-70.51899719238281,85 -75,80.51899719238281 -75,75 C-75,75 -75,65 -75,65 C-75,59.48099899291992 -70.51899719238281,55 -65,55 C-65,55 65,55 65,55 C70.51899719238281,55 75,59.48099899291992 75,65z"></path></g><g opacity="1" transform="matrix(1,0,0,1,0,0)"><path fill="rgb(79,70,229)" fill-opacity="1" d=" M65,-5 C65,-5 65,5 65,5 C65,40.87350082397461 35.87350082397461,70 0,70 C0,70 0,70 0,70 C-35.87350082397461,70 -65,40.87350082397461 -65,5 C-65,5 -65,-5 -65,-5 C-65,-40.87350082397461 -35.87350082397461,-70 0,-70 C0,-70 0,-70 0,-70 C35.87350082397461,-70 65,-40.87350082397461 65,-5z"></path></g></g><g transform="matrix(1.0258324146270752,0,0,1.0258324146270752,306,186)" opacity="1" style="display: block;"><g opacity="1" transform="matrix(1,0,0,1,0,0)"><path fill="rgb(245,158,11)" fill-opacity="1" d=" M0,-18 C9.934200286865234,-18 18,-9.934200286865234 18,0 C18,9.934200286865234 9.934200286865234,18 0,18 C-9.934200286865234,18 -18,9.934200286865234 -18,0 C-18,-9.934200286865234 -9.934200286865234,-18 0,-18z"></path></g></g></g></svg>