<svg xmlns="http://www.w3.org/2000/svg" xmlns:xlink="http://www.w3.org/1999/xlink" viewBox="0 0 512 512" width="512" height="512" preserveAspectRatio="xMidYMid meet" style="width: 100%; height: 100%; transform: translate3d(0px, 0px, 0px); content-visibility: visible;"><defs><clipPath id="__lottie_element_2"><rect width="512" height="512" x="0" y="0"></rect></clipPath></defs><g clip-path="url(#__lottie_element_2)"><g transform="matrix(-1,0,0,-1,256,256)" opacity="1" style="display: block;"><g opacity="1" transform="matrix(1,0,0,1,0,0)"><path fill="rgb(30,41,59)" fill-opacity="1" d=" M77.9422836303711,-52 C81.80558013916016,-52 84.9422836303711,-48.86330032348633 84.9422836303711,-45 C84.9422836303711,-41.13669967651367 81.80558013916016,-38 77.9422836303711,-38 C74.07898712158203,-38 70.9422836303711,-41.13669967651367 70.9422836303711,-45 C70.9422836303711,-48.86330032348633 74.07898712158203,-52 77.9422836303711,-52z"></path></g><g opacity="1" transform="matrix(1,0,0,1,0,0)"><path fill="rgb(30,41,59)" fill-opacity="1" d=" M45,-84.9422836303711 C48.86330032348633,-84.9422836303711 52,-81.80558013916016 52,-77.9422836303711 C52,-74.07898712158203 48.86330032348633,-70.9422836303711 45,-70.9422836303711 C41.13669967651367,-70.9422836303711 38,-74.07898712158203 38,-77.9422836303711 C38,-81.80558013916016 41.13669967651367,-84.9422836303711 45,-84.9422836303711z"></path></g><g opacity="1" transform="matrix(1,0,0,1,0,0)"><path fill="rgb(30,41,59)" fill-opacity="1" d=" M-1.6532731265820125e-14,-97 C3.863300085067749,-97 7,-93.86329650878906 7,-90 C7,-86.13670349121094 3.863300085067749,-83 -1.6532731265820125e-14,-83 C-3.863300085067749,-83 -7,-86.13670349121094 -7,-90 C-7,-93.86329650878906 -3.863300085067749,-97 -1.6532731265820125e-14,-97z"></path></g><g opacity="1" transform="matrix(1,0,0,1,0,0)"><path fill="rgb(30,41,59)" fill-opacity="1" d=" M-45,-84.9422836303711 C-41.13669967651367,-84.9422836303711 -38,-81.80558013916016 -38,-77.9422836303711 C-38,-74.07898712158203 -41.13669967651367,-70.9422836303711 -45,-70.9422836303711 C-48.86330032348633,-70.9422836303711 -52,-74.07898712158203 -52,-77.9422836303711 C-52,-81.80558013916016 -48.86330032348633,-84.9422836303711 -45,-84.9422836303711z"></path></g><g opacity="1" transform="matrix(1,0,0,1,0,0)"><path fill="rgb(30,41,59)" fill-opacity="1" d=" M-77.9422836303711,-52 C-74.07898712158203,-52 -70.9422836303711,-48.86330032348633 -70.9422836303711,-45 C-70.9422836303711,-41.13669967651367 -74.07898712158203,-38 -77.9422836303711,-38 C-81.80558013916016,-38 -84.9422836303711,-41.13669967651367 -84.9422836303711,-45 C-84.9422836303711,-48.86330032348633 -81.80558013916016,-52 -77.9422836303711,-52z"></path></g><g opacity="1" transform="matrix(1,0,0,1,0,0)"><path fill="rgb(30,41,59)" fill-opacity="1" d=" M-90,-7 C-86.13670349121094,-7 -83,-3.863300085067749 -83,1.1021821408568715e-14 C-83,3.863300085067749 -86.13670349121094,7 -90,7 C-93.86329650878906,7 -97,3.863300085067749 -97,1.1021821408568715e-14 C-97,-3.863300085067749 -93.86329650878906,-7 -90,-7z"></path></g><g opacity="1" transform="matrix(1,0,0,1,0,0)"><path fill="rgb(30,41,59)" fill-opacity="1" d=" M-77.9422836303711,38 C-74.07898712158203,38 -70.9422836303711,41.13669967651367 -70.9422836303711,45 C-70.9422836303711,48.86330032348633 -74.07898712158203,52 -77.9422836303711,52 C-81.80558013916016,52 -84.9422836303711,48.86330032348633 -84.9422836303711,45 C-84.9422836303711,41.13669967651367 -81.80558013916016,38 -77.9422836303711,38z"></path></g><g opacity="1" transform="matrix(1,0,0,1,0,0)"><path fill="rgb(30,41,59)" fill-opacity="1" d=" M-45,70.9422836303711 C-41.13669967651367,70.9422836303711 -38,74.07898712158203 -38,77.9422836303711 C-38,81.80558013916016 -41.13669967651367,84.9422836303711 -45,84.9422836303711 C-48.86330032348633,84.9422836303711 -52,81.80558013916016 -52,77.9422836303711 C-52,74.07898712158203 -48.86330032348633,70.9422836303711 -45,70.9422836303711z"></path></g><g opacity="1" transform="matrix(1,0,0,1,0,0)"><path fill="rgb(16,185,129)" fill-opacity="1" d=" M5.510910704284357e-15,83 C3.863300085067749,83 7,86.13670349121094 7,90 C7,93.86329650878906 3.863300085067749,97 5.510910704284357e-15,97 C-3.863300085067749,97 -7,93.86329650878906 -7,90 C-7,86.13670349121094 -3.863300085067749,83 5.510910704284357e-15,83z"></path></g><g opacity="1" transform="matrix(1,0,0,1,0,0)"><path fill="rgb(16,185,129)" fill-opacity="1" d=" M45,70.9422836303711 C48.86330032348633,70.9422836303711 52,74.07898712158203 52,77.9422836303711 C52,81.80558013916016 48.86330032348633,84.9422836303711 45,84.9422836303711 C41.13669967651367,84.9422836303711 38,81.80558013916016 38,77.9422836303711 C38,74.07898712158203 41.13669967651367,70.9422836303711 45,70.9422836303711z"></path></g><g opacity="1" transform="matrix(1,0,0,1,0,0)"><path fill="rgb(16,185,129)" fill-opacity="1" d=" M77.9422836303711,38 C81.80558013916016,38 84.9422836303711,41.13669967651367 84.9422836303711,45 C84.9422836303711,48.86330032348633 81.80558013916016,52 77.9422836303711,52 C74.07898712158203,52 70.9422836303711,48.86330032348633 70.9422836303711,45 C70.9422836303711,41.13669967651367 74.07898712158203,38 77.9422836303711,38z"></path></g><g opacity="1" transform="matrix(1,0,0,1,0,0)"><path fill="rgb(16,185,129)" fill-opacity="1" d=" M90,-7 C93.86329650878906,-7 97,-3.863300085067749 97,0 C97,3.863300085067749 93.86329650878906,7 90,7 C86.13670349121094,7 83,3.863300085067749 83,0 C83,-3.863300085067749 86.13670349121094,-7 90,-7z"></path></g></g><g transform="matrix(1,0,0,1,256,256)" opacity="1" style="display: block;"><g opacity="1" transform="matrix(1,0,0,1,0,0)"><path stroke-linecap="round" stroke-linejoin="round" fill-opacity="0" stroke="rgb(16,185,129)" stroke-opacity="1" stroke-width="4" d=" M0,-55 C30.35449981689453,-55 55,-30.35449981689453 55,0 C55,30.35449981689453 30.35449981689453,55 0,55 C-30.35449981689453,55 -55,30.35449981689453 -55,0 C-55,-30.35449981689453 -30.35449981689453,-55 0,-55z"></path><path fill="rgb(15,23,42)" fill-opacity="1" d=" M0,-55 C30.35449981689453,-55 55,-30.35449981689453 55,0 C55,30.35449981689453 30.35449981689453,55 0,55 C-30.35449981689453,55 -55,30.35449981689453 -55,0 C-55,-30.35449981689453 -30.35449981689453,-55 0,-55z"></path></g></g></g></svg>