<svg xmlns="http://www.w3.org/2000/svg" xmlns:xlink="http://www.w3.org/1999/xlink" viewBox="0 0 512 512" width="512" height="512" preserveAspectRatio="xMidYMid meet" style="width: 100%; height: 100%; transform: translate3d(0px, 0px, 0px); content-visibility: visible;"><defs><clipPath id="__lottie_element_2"><rect width="512" height="512" x="0" y="0"></rect></clipPath></defs><g clip-path="url(#__lottie_element_2)"><g transform="matrix(1,0,0,1,256,256)" opacity="1" style="display: block;"><g opacity="1" transform="matrix(1,0,0,1,0,0)"><path fill="rgb(16,185,129)" fill-opacity="1" d=" M0,-100 C55.189998626708984,-100 100,-55.189998626708984 100,0 C100,55.189998626708984 55.189998626708984,100 0,100 C-55.189998626708984,100 -100,55.189998626708984 -100,0 C-100,-55.189998626708984 -55.189998626708984,-100 0,-100z"></path></g></g><g transform="matrix(0.8759679198265076,0,0,0.8759679198265076,256,256)" opacity="1" style="display: block;"><g opacity="1" transform="matrix(0.7071067690849304,-0.7071067690849304,0.7071067690849304,0.7071067690849304,20,-4)"><path fill="rgb(255,255,255)" fill-opacity="1" d=" M40,0 C40,0 40,0 40,0 C40,3.3113999366760254 37.3114013671875,6 34,6 C34,6 -34,6 -34,6 C-37.3114013671875,6 -40,3.3113999366760254 -40,0 C-40,0 -40,0 -40,0 C-40,-3.3113999366760254 -37.3114013671875,-6 -34,-6 C-34,-6 34,-6 34,-6 C37.3114013671875,-6 40,-3.3113999366760254 40,0z"></path></g></g><g transform="matrix(0.9867249131202698,0,0,0.9867249131202698,256,256)" opacity="1" style="display: block;"><g opacity="1" transform="matrix(0.7071067690849304,0.7071067690849304,-0.7071067690849304,0.7071067690849304,-14,14)"><path fill="rgb(255,255,255)" fill-opacity="1" d=" M20,0 C20,0 20,0 20,0 C20,3.3113999366760254 17.311399459838867,6 14,6 C14,6 -14,6 -14,6 C-17.311399459838867,6 -20,3.3113999366760254 -20,0 C-20,0 -20,0 -20,0 C-20,-3.3113999366760254 -17.311399459838867,-6 -14,-6 C-14,-6 14,-6 14,-6 C17.311399459838867,-6 20,-3.3113999366760254 20,0z"></path></g></g></g></svg>