<svg xmlns="http://www.w3.org/2000/svg" xmlns:xlink="http://www.w3.org/1999/xlink" viewBox="0 0 512 512" width="512" height="512" preserveAspectRatio="xMidYMid meet" style="width: 100%; height: 100%; transform: translate3d(0px, 0px, 0px); content-visibility: visible;"><defs><clipPath id="__lottie_element_2"><rect width="512" height="512" x="0" y="0"></rect></clipPath></defs><g clip-path="url(#__lottie_element_2)"><g transform="matrix(1,0,0,1,400,256)" opacity="1" style="display: block;"><g opacity="1" transform="matrix(1,0,0,1,0,0)"><path fill="rgb(34,211,238)" fill-opacity="1" d=" M55,-28 C55,-28 55,28 55,28 C55,34.622798919677734 49.622798919677734,40 43,40 C43,40 -43,40 -43,40 C-49.622798919677734,40 -55,34.622798919677734 -55,28 C-55,28 -55,-28 -55,-28 C-55,-34.622798919677734 -49.622798919677734,-40 -43,-40 C-43,-40 43,-40 43,-40 C49.622798919677734,-40 55,-34.622798919677734 55,-28z"></path></g></g><g transform="matrix(1,0,0,1,110,256)" opacity="1" style="display: block;"><g opacity="1" transform="matrix(1,0,0,1,0,0)"><path fill="rgb(59,130,246)" fill-opacity="1" d=" M55,-28 C55,-28 55,28 55,28 C55,34.622798919677734 49.622798919677734,40 43,40 C43,40 -43,40 -43,40 C-49.622798919677734,40 -55,34.622798919677734 -55,28 C-55,28 -55,-28 -55,-28 C-55,-34.622798919677734 -49.622798919677734,-40 -43,-40 C-43,-40 43,-40 43,-40 C49.622798919677734,-40 55,-34.622798919677734 55,-28z"></path></g></g><g transform="matrix(1.1601359844207764,0,0,1.1601359844207764,280.43707275390625,192.8973388671875)" opacity="1" style="display: block;"><g opacity="1" transform="matrix(1,0,0,1,0,0)"><path stroke-linecap="round" stroke-linejoin="round" fill-opacity="0" stroke="rgb(255,255,255)" stroke-opacity="1" stroke-width="3" d=" M0,-25 C13.797499656677246,-25 25,-13.797499656677246 25,0 C25,13.797499656677246 13.797499656677246,25 0,25 C-13.797499656677246,25 -25,13.797499656677246 -25,0 C-25,-13.797499656677246 -13.797499656677246,-25 0,-25z"></path><path fill="rgb(245,158,11)" fill-opacity="1" d=" M0,-25 C13.797499656677246,-25 25,-13.797499656677246 25,0 C25,13.797499656677246 13.797499656677246,25 0,25 C-13.797499656677246,25 -25,13.797499656677246 -25,0 C-25,-13.797499656677246 -13.797499656677246,-25 0,-25z"></path></g></g></g></svg>