<svg xmlns="http://www.w3.org/2000/svg" xmlns:xlink="http://www.w3.org/1999/xlink" viewBox="0 0 512 512" width="512" height="512" preserveAspectRatio="xMidYMid meet" style="width: 100%; height: 100%; transform: translate3d(0px, 0px, 0px); content-visibility: visible;"><defs><clipPath id="__lottie_element_2"><rect width="512" height="512" x="0" y="0"></rect></clipPath></defs><g clip-path="url(#__lottie_element_2)"><g transform="matrix(0.5020266175270081,0,0,0.5020266175270081,256,256)" opacity="0.898600734347959" style="display: block;"><g opacity="1" transform="matrix(1,0,0,1,0,0)"><path stroke-linecap="round" stroke-linejoin="round" fill-opacity="0" stroke="rgb(16,185,129)" stroke-opacity="1" stroke-width="3" d=" M0,-75 C41.39250183105469,-75 75,-41.39250183105469 75,0 C75,41.39250183105469 41.39250183105469,75 0,75 C-41.39250183105469,75 -75,41.39250183105469 -75,0 C-75,-41.39250183105469 -41.39250183105469,-75 0,-75z"></path></g></g><g transform="matrix(1.9449070692062378,0,0,1.9449070692062378,256,256)" opacity="0.41949133451696197" style="display: block;"><g opacity="1" transform="matrix(1,0,0,1,0,0)"><path stroke-linecap="round" stroke-linejoin="round" fill-opacity="0" stroke="rgb(16,185,129)" stroke-opacity="1" stroke-width="3" d=" M0,-75 C41.39250183105469,-75 75,-41.39250183105469 75,0 C75,41.39250183105469 41.39250183105469,75 0,75 C-41.39250183105469,75 -75,41.39250183105469 -75,0 C-75,-41.39250183105469 -41.39250183105469,-75 0,-75z"></path></g></g><g transform="matrix(0.5,0,0,0.5,256,256)" opacity="0.9" style="display: none;"><g opacity="1" transform="matrix(1,0,0,1,0,0)"><path stroke-linecap="round" stroke-linejoin="round" fill-opacity="0" stroke="rgb(16,185,129)" stroke-opacity="1" stroke-width="3" d=" M0,-75 C41.39250183105469,-75 75,-41.39250183105469 75,0 C75,41.39250183105469 41.39250183105469,75 0,75 C-41.39250183105469,75 -75,41.39250183105469 -75,0 C-75,-41.39250183105469 -41.39250183105469,-75 0,-75z"></path></g></g><g transform="matrix(1.0399999618530273,0,0,1.0399999618530273,-10.239990234375,-10.47998046875)" opacity="1" style="display: block;"><g opacity="1" transform="matrix(1,0,0,1,0,0)"><path fill="rgb(16,185,129)" fill-opacity="1" d=" M256,176 C256,176 330,206 330,206 C330,206 330,286 330,286 C330,286 256,348 256,348 C256,348 182,286 182,286 C182,286 182,206 182,206 C182,206 256,176 256,176z"></path></g></g><g transform="matrix(1,0,0,1,270,256)" opacity="1" style="display: block;"><g opacity="1" transform="matrix(0.7071067690849304,-0.7071067690849304,0.7071067690849304,0.7071067690849304,0,0)"><path fill="rgb(255,255,255)" fill-opacity="1" d=" M31,0 C31,0 31,0 31,0 C31,3.863300085067749 27.863300323486328,7 24,7 C24,7 -24,7 -24,7 C-27.863300323486328,7 -31,3.863300085067749 -31,0 C-31,0 -31,0 -31,0 C-31,-3.863300085067749 -27.863300323486328,-7 -24,-7 C-24,-7 24,-7 24,-7 C27.863300323486328,-7 31,-3.863300085067749 31,0z"></path></g></g><g transform="matrix(1,0,0,1,240,268)" opacity="1" style="display: block;"><g opacity="1" transform="matrix(0.7071067690849304,0.7071067690849304,-0.7071067690849304,0.7071067690849304,0,0)"><path fill="rgb(255,255,255)" fill-opacity="1" d=" M15,0 C15,0 15,0 15,0 C15,3.863300085067749 11.863300323486328,7 8,7 C8,7 -8,7 -8,7 C-11.863300323486328,7 -15,3.863300085067749 -15,0 C-15,0 -15,0 -15,0 C-15,-3.863300085067749 -11.863300323486328,-7 -8,-7 C-8,-7 8,-7 8,-7 C11.863300323486328,-7 15,-3.863300085067749 15,0z"></path></g></g></g></svg>