<svg xmlns="http://www.w3.org/2000/svg" xmlns:xlink="http://www.w3.org/1999/xlink" viewBox="0 0 512 512" width="512" height="512" preserveAspectRatio="xMidYMid meet" style="width: 100%; height: 100%; transform: translate3d(0px, 0px, 0px); content-visibility: visible;"><defs><clipPath id="__lottie_element_2"><rect width="512" height="512" x="0" y="0"></rect></clipPath></defs><g clip-path="url(#__lottie_element_2)"><g transform="matrix(0.573046863079071,0,0,0.573046863079071,256,256)" opacity="0.9564895497162322" style="display: block;"><g opacity="1" transform="matrix(1,0,0,1,0,0)"><path stroke-linecap="round" stroke-linejoin="round" fill-opacity="0" stroke="rgb(16,185,129)" stroke-opacity="1" stroke-width="3" d=" M0,-70 C38.632999420166016,-70 70,-38.632999420166016 70,0 C70,38.632999420166016 38.632999420166016,70 0,70 C-38.632999420166016,70 -70,38.632999420166016 -70,0 C-70,-38.632999420166016 -38.632999420166016,-70 0,-70z"></path></g></g><g transform="matrix(2.0206069946289062,0,0,2.0206069946289062,256,256)" opacity="0.31722714219763004" style="display: block;"><g opacity="1" transform="matrix(1,0,0,1,0,0)"><path stroke-linecap="round" stroke-linejoin="round" fill-opacity="0" stroke="rgb(16,185,129)" stroke-opacity="1" stroke-width="3" d=" M0,-70 C38.632999420166016,-70 70,-38.632999420166016 70,0 C70,38.632999420166016 38.632999420166016,70 0,70 C-38.632999420166016,70 -70,38.632999420166016 -70,0 C-70,-38.632999420166016 -38.632999420166016,-70 0,-70z"></path></g></g><g transform="matrix(0.5,0,0,0.5,256,256)" opacity="1" style="display: none;"><g opacity="1" transform="matrix(1,0,0,1,0,0)"><path stroke-linecap="round" stroke-linejoin="round" fill-opacity="0" stroke="rgb(16,185,129)" stroke-opacity="1" stroke-width="3" d=" M0,-70 C38.632999420166016,-70 70,-38.632999420166016 70,0 C70,38.632999420166016 38.632999420166016,70 0,70 C-38.632999420166016,70 -70,38.632999420166016 -70,0 C-70,-38.632999420166016 -38.632999420166016,-70 0,-70z"></path></g></g><g transform="matrix(1.0499999523162842,0,0,1.0499999523162842,256,256)" opacity="1" style="display: block;"><g opacity="1" transform="matrix(1,0,0,1,0,0)"><path fill="rgb(16,185,129)" fill-opacity="1" d=" M65,-20 C65,-20 65,20 65,20 C65,53.11399841308594 38.11399841308594,80 5,80 C5,80 -5,80 -5,80 C-38.11399841308594,80 -65,53.11399841308594 -65,20 C-65,20 -65,-20 -65,-20 C-65,-53.11399841308594 -38.11399841308594,-80 -5,-80 C-5,-80 5,-80 5,-80 C38.11399841308594,-80 65,-53.11399841308594 65,-20z"></path></g></g></g></svg>