<svg xmlns="http://www.w3.org/2000/svg" xmlns:xlink="http://www.w3.org/1999/xlink" viewBox="0 0 512 512" width="512" height="512" preserveAspectRatio="xMidYMid meet" style="width: 100%; height: 100%; transform: translate3d(0px, 0px, 0px); content-visibility: visible;"><defs><clipPath id="__lottie_element_2"><rect width="512" height="512" x="0" y="0"></rect></clipPath></defs><g clip-path="url(#__lottie_element_2)"><g transform="matrix(1,0,0,0.9382454752922058,336,360)" opacity="1" style="display: block;"><g opacity="1" transform="matrix(1,0,0,1,0,-85)"><path fill="rgb(245,158,11)" fill-opacity="1" d=" M21,-77 C21,-77 21,77 21,77 C21,81.41519927978516 17.415199279785156,85 13,85 C13,85 -13,85 -13,85 C-17.415199279785156,85 -21,81.41519927978516 -21,77 C-21,77 -21,-77 -21,-77 C-21,-81.41519927978516 -17.415199279785156,-85 -13,-85 C-13,-85 13,-85 13,-85 C17.415199279785156,-85 21,-81.41519927978516 21,-77z"></path></g></g><g transform="matrix(1,0,0,0.999406099319458,276,360)" opacity="1" style="display: block;"><g opacity="1" transform="matrix(1,0,0,1,0,-50)"><path fill="rgb(16,185,129)" fill-opacity="1" d=" M21,-42 C21,-42 21,42 21,42 C21,46.415199279785156 17.415199279785156,50 13,50 C13,50 -13,50 -13,50 C-17.415199279785156,50 -21,46.415199279785156 -21,42 C-21,42 -21,-42 -21,-42 C-21,-46.415199279785156 -17.415199279785156,-50 -13,-50 C-13,-50 13,-50 13,-50 C17.415199279785156,-50 21,-46.415199279785156 21,-42z"></path></g></g><g transform="matrix(1,0,0,1,216,360)" opacity="1" style="display: block;"><g opacity="1" transform="matrix(1,0,0,1,0,-65)"><path fill="rgb(59,130,246)" fill-opacity="1" d=" M21,-57 C21,-57 21,57 21,57 C21,61.415199279785156 17.415199279785156,65 13,65 C13,65 -13,65 -13,65 C-17.415199279785156,65 -21,61.415199279785156 -21,57 C-21,57 -21,-57 -21,-57 C-21,-61.415199279785156 -17.415199279785156,-65 -13,-65 C-13,-65 13,-65 13,-65 C17.415199279785156,-65 21,-61.415199279785156 21,-57z"></path></g></g><g transform="matrix(1,0,0,1,156,360)" opacity="1" style="display: block;"><g opacity="1" transform="matrix(1,0,0,1,0,-40)"><path fill="rgb(34,211,238)" fill-opacity="1" d=" M21,-32 C21,-32 21,32 21,32 C21,36.415199279785156 17.415199279785156,40 13,40 C13,40 -13,40 -13,40 C-17.415199279785156,40 -21,36.415199279785156 -21,32 C-21,32 -21,-32 -21,-32 C-21,-36.415199279785156 -17.415199279785156,-40 -13,-40 C-13,-40 13,-40 13,-40 C17.415199279785156,-40 21,-36.415199279785156 21,-32z"></path></g></g></g></svg>