<svg xmlns="http://www.w3.org/2000/svg" xmlns:xlink="http://www.w3.org/1999/xlink" viewBox="0 0 512 512" width="512" height="512" preserveAspectRatio="xMidYMid meet" style="width: 100%; height: 100%; transform: translate3d(0px, 0px, 0px); content-visibility: visible;"><defs><clipPath id="__lottie_element_2"><rect width="512" height="512" x="0" y="0"></rect></clipPath></defs><g clip-path="url(#__lottie_element_2)"><g transform="matrix(1,0,0,1,256,256)" opacity="1" style="display: block;"><g opacity="1" transform="matrix(1,0,0,1,0,0)"><path fill="rgb(251,191,36)" fill-opacity="1" d=" M0,-55 C30.35449981689453,-55 55,-30.35449981689453 55,0 C55,30.35449981689453 30.35449981689453,55 0,55 C-30.35449981689453,55 -55,30.35449981689453 -55,0 C-55,-30.35449981689453 -30.35449981689453,-55 0,-55z"></path></g></g><g transform="matrix(0.7071067690849304,-0.7071067690849304,0.7071067690849304,0.7071067690849304,326.710693359375,185.28932189941406)" opacity="0.8" style="display: block;"><g opacity="1" transform="matrix(1,0,0,1,0,0)"><path fill="rgb(251,191,36)" fill-opacity="1" d=" M4,-16 C4,-16 4,16 4,16 C4,18.207599639892578 2.2076001167297363,20 0,20 C0,20 0,20 0,20 C-2.2076001167297363,20 -4,18.207599639892578 -4,16 C-4,16 -4,-16 -4,-16 C-4,-18.207599639892578 -2.2076001167297363,-20 0,-20 C0,-20 0,-20 0,-20 C2.2076001167297363,-20 4,-18.207599639892578 4,-16z"></path></g></g><g transform="matrix(0,-1,1,0,256,156)" opacity="0.8" style="display: block;"><g opacity="1" transform="matrix(1,0,0,1,0,0)"><path fill="rgb(251,191,36)" fill-opacity="1" d=" M4,-16 C4,-16 4,16 4,16 C4,18.207599639892578 2.2076001167297363,20 0,20 C0,20 0,20 0,20 C-2.2076001167297363,20 -4,18.207599639892578 -4,16 C-4,16 -4,-16 -4,-16 C-4,-18.207599639892578 -2.2076001167297363,-20 0,-20 C0,-20 0,-20 0,-20 C2.2076001167297363,-20 4,-18.207599639892578 4,-16z"></path></g></g><g transform="matrix(-0.7071067690849304,-0.7071067690849304,0.7071067690849304,-0.7071067690849304,185.28932189941406,185.28932189941406)" opacity="0.8" style="display: block;"><g opacity="1" transform="matrix(1,0,0,1,0,0)"><path fill="rgb(251,191,36)" fill-opacity="1" d=" M4,-16 C4,-16 4,16 4,16 C4,18.207599639892578 2.2076001167297363,20 0,20 C0,20 0,20 0,20 C-2.2076001167297363,20 -4,18.207599639892578 -4,16 C-4,16 -4,-16 -4,-16 C-4,-18.207599639892578 -2.2076001167297363,-20 0,-20 C0,-20 0,-20 0,-20 C2.2076001167297363,-20 4,-18.207599639892578 4,-16z"></path></g></g><g transform="matrix(-1,0,0,-1,156,256)" opacity="0.8" style="display: block;"><g opacity="1" transform="matrix(1,0,0,1,0,0)"><path fill="rgb(251,191,36)" fill-opacity="1" d=" M4,-16 C4,-16 4,16 4,16 C4,18.207599639892578 2.2076001167297363,20 0,20 C0,20 0,20 0,20 C-2.2076001167297363,20 -4,18.207599639892578 -4,16 C-4,16 -4,-16 -4,-16 C-4,-18.207599639892578 -2.2076001167297363,-20 0,-20 C0,-20 0,-20 0,-20 C2.2076001167297363,-20 4,-18.207599639892578 4,-16z"></path></g></g><g transform="matrix(-0.7071067690849304,0.7071067690849304,-0.7071067690849304,-0.7071067690849304,185.28932189941406,326.710693359375)" opacity="0.8" style="display: block;"><g opacity="1" transform="matrix(1,0,0,1,0,0)"><path fill="rgb(251,191,36)" fill-opacity="1" d=" M4,-16 C4,-16 4,16 4,16 C4,18.207599639892578 2.2076001167297363,20 0,20 C0,20 0,20 0,20 C-2.2076001167297363,20 -4,18.207599639892578 -4,16 C-4,16 -4,-16 -4,-16 C-4,-18.207599639892578 -2.2076001167297363,-20 0,-20 C0,-20 0,-20 0,-20 C2.2076001167297363,-20 4,-18.207599639892578 4,-16z"></path></g></g><g transform="matrix(0,1,-1,0,256,356)" opacity="0.8" style="display: block;"><g opacity="1" transform="matrix(1,0,0,1,0,0)"><path fill="rgb(251,191,36)" fill-opacity="1" d=" M4,-16 C4,-16 4,16 4,16 C4,18.207599639892578 2.2076001167297363,20 0,20 C0,20 0,20 0,20 C-2.2076001167297363,20 -4,18.207599639892578 -4,16 C-4,16 -4,-16 -4,-16 C-4,-18.207599639892578 -2.2076001167297363,-20 0,-20 C0,-20 0,-20 0,-20 C2.2076001167297363,-20 4,-18.207599639892578 4,-16z"></path></g></g><g transform="matrix(0.7071067690849304,0.7071067690849304,-0.7071067690849304,0.7071067690849304,326.710693359375,326.710693359375)" opacity="0.8" style="display: block;"><g opacity="1" transform="matrix(1,0,0,1,0,0)"><path fill="rgb(251,191,36)" fill-opacity="1" d=" M4,-16 C4,-16 4,16 4,16 C4,18.207599639892578 2.2076001167297363,20 0,20 C0,20 0,20 0,20 C-2.2076001167297363,20 -4,18.207599639892578 -4,16 C-4,16 -4,-16 -4,-16 C-4,-18.207599639892578 -2.2076001167297363,-20 0,-20 C0,-20 0,-20 0,-20 C2.2076001167297363,-20 4,-18.207599639892578 4,-16z"></path></g></g><g transform="matrix(1,0,0,1,356,256)" opacity="0.8" style="display: block;"><g opacity="1" transform="matrix(1,0,0,1,0,0)"><path fill="rgb(251,191,36)" fill-opacity="1" d=" M4,-16 C4,-16 4,16 4,16 C4,18.207599639892578 2.2076001167297363,20 0,20 C0,20 0,20 0,20 C-2.2076001167297363,20 -4,18.207599639892578 -4,16 C-4,16 -4,-16 -4,-16 C-4,-18.207599639892578 -2.2076001167297363,-20 0,-20 C0,-20 0,-20 0,-20 C2.2076001167297363,-20 4,-18.207599639892578 4,-16z"></path></g></g></g></svg>