<svg xmlns="http://www.w3.org/2000/svg" xmlns:xlink="http://www.w3.org/1999/xlink" viewBox="0 0 512 512" width="512" height="512" preserveAspectRatio="xMidYMid meet" style="width: 100%; height: 100%; transform: translate3d(0px, 0px, 0px); content-visibility: visible;"><defs><clipPath id="__lottie_element_2"><rect width="512" height="512" x="0" y="0"></rect></clipPath></defs><g clip-path="url(#__lottie_element_2)"><g transform="matrix(1,0,0,1,256,190)" opacity="1" style="display: block;"><g opacity="1" transform="matrix(1,0,0,1,0,0)"><path fill="rgb(226,232,240)" fill-opacity="1" d=" M60,-35 C87.59500122070312,-35 110,-14.83549976348877 110,10 C110,34.83549880981445 87.59500122070312,55 60,55 C32.404998779296875,55 10,34.83549880981445 10,10 C10,-14.83549976348877 32.404998779296875,-35 60,-35z"></path></g><g opacity="1" transform="matrix(1,0,0,1,0,0)"><path fill="rgb(226,232,240)" fill-opacity="1" d=" M-60,-35 C-32.404998779296875,-35 -10,-14.83549976348877 -10,10 C-10,34.83549880981445 -32.404998779296875,55 -60,55 C-87.59500122070312,55 -110,34.83549880981445 -110,10 C-110,-14.83549976348877 -87.59500122070312,-35 -60,-35z"></path></g><g opacity="1" transform="matrix(1,0,0,1,0,0)"><path fill="rgb(226,232,240)" fill-opacity="1" d=" M0,-50 C44.152000427246094,-50 80,-27.594999313354492 80,0 C80,27.594999313354492 44.152000427246094,50 0,50 C-44.152000427246094,50 -80,27.594999313354492 -80,0 C-80,-27.594999313354492 -44.152000427246094,-50 0,-50z"></path></g></g><g transform="matrix(0.9659258127212524,-0.258819043636322,0.258819043636322,0.9659258127212524,326.2352294921875,286.47161865234375)" opacity="0.9" style="display: block;"><g opacity="1" transform="matrix(1,0,0,1,0,0)"><path fill="rgb(96,165,250)" fill-opacity="1" d=" M4,-10 C4,-10 4,10 4,10 C4,12.207599639892578 2.2076001167297363,14 0,14 C0,14 0,14 0,14 C-2.2076001167297363,14 -4,12.207599639892578 -4,10 C-4,10 -4,-10 -4,-10 C-4,-12.207599639892578 -2.2076001167297363,-14 0,-14 C0,-14 0,-14 0,-14 C2.2076001167297363,-14 4,-12.207599639892578 4,-10z"></path></g></g><g transform="matrix(0.9659258127212524,-0.258819043636322,0.258819043636322,0.9659258127212524,257.4967956542969,327.548095703125)" opacity="0.9" style="display: block;"><g opacity="1" transform="matrix(1,0,0,1,0,0)"><path fill="rgb(96,165,250)" fill-opacity="1" d=" M4,-10 C4,-10 4,10 4,10 C4,12.207599639892578 2.2076001167297363,14 0,14 C0,14 0,14 0,14 C-2.2076001167297363,14 -4,12.207599639892578 -4,10 C-4,10 -4,-10 -4,-10 C-4,-12.207599639892578 -2.2076001167297363,-14 0,-14 C0,-14 0,-14 0,-14 C2.2076001167297363,-14 4,-12.207599639892578 4,-10z"></path></g></g><g transform="matrix(0.9659258127212524,-0.258819043636322,0.258819043636322,0.9659258127212524,188.60244750976562,370.96337890625)" opacity="0.9" style="display: block;"><g opacity="1" transform="matrix(1,0,0,1,0,0)"><path fill="rgb(96,165,250)" fill-opacity="1" d=" M4,-10 C4,-10 4,10 4,10 C4,12.207599639892578 2.2076001167297363,14 0,14 C0,14 0,14 0,14 C-2.2076001167297363,14 -4,12.207599639892578 -4,10 C-4,10 -4,-10 -4,-10 C-4,-12.207599639892578 -2.2076001167297363,-14 0,-14 C0,-14 0,-14 0,-14 C2.2076001167297363,-14 4,-12.207599639892578 4,-10z"></path></g></g><g transform="matrix(0.9659258127212524,-0.258819043636322,0.258819043636322,0.9659258127212524,120.49183654785156,402.6224670410156)" opacity="0.8495644327035125" style="display: block;"><g opacity="1" transform="matrix(1,0,0,1,0,0)"><path fill="rgb(96,165,250)" fill-opacity="1" d=" M4,-10 C4,-10 4,10 4,10 C4,12.207599639892578 2.2076001167297363,14 0,14 C0,14 0,14 0,14 C-2.2076001167297363,14 -4,12.207599639892578 -4,10 C-4,10 -4,-10 -4,-10 C-4,-12.207599639892578 -2.2076001167297363,-14 0,-14 C0,-14 0,-14 0,-14 C2.2076001167297363,-14 4,-12.207599639892578 4,-10z"></path></g></g><g transform="matrix(0.9659258127212524,-0.258819043636322,0.258819043636322,0.9659258127212524,325.3975524902344,239.03662109375)" opacity="0.9" style="display: block;"><g opacity="1" transform="matrix(1,0,0,1,0,0)"><path fill="rgb(96,165,250)" fill-opacity="1" d=" M4,-10 C4,-10 4,10 4,10 C4,12.207599639892578 2.2076001167297363,14 0,14 C0,14 0,14 0,14 C-2.2076001167297363,14 -4,12.207599639892578 -4,10 C-4,10 -4,-10 -4,-10 C-4,-12.207599639892578 -2.2076001167297363,-14 0,-14 C0,-14 0,-14 0,-14 C2.2076001167297363,-14 4,-12.207599639892578 4,-10z"></path></g></g><g transform="matrix(0.9659258127212524,-0.258819043636322,0.258819043636322,0.9659258127212524,256.5032043457031,282.451904296875)" opacity="0.9" style="display: block;"><g opacity="1" transform="matrix(1,0,0,1,0,0)"><path fill="rgb(96,165,250)" fill-opacity="1" d=" M4,-10 C4,-10 4,10 4,10 C4,12.207599639892578 2.2076001167297363,14 0,14 C0,14 0,14 0,14 C-2.2076001167297363,14 -4,12.207599639892578 -4,10 C-4,10 -4,-10 -4,-10 C-4,-12.207599639892578 -2.2076001167297363,-14 0,-14 C0,-14 0,-14 0,-14 C2.2076001167297363,-14 4,-12.207599639892578 4,-10z"></path></g></g><g transform="matrix(0.9659258127212524,-0.258819043636322,0.258819043636322,0.9659258127212524,187.7647705078125,323.52838134765625)" opacity="0.9" style="display: block;"><g opacity="1" transform="matrix(1,0,0,1,0,0)"><path fill="rgb(96,165,250)" fill-opacity="1" d=" M4,-10 C4,-10 4,10 4,10 C4,12.207599639892578 2.2076001167297363,14 0,14 C0,14 0,14 0,14 C-2.2076001167297363,14 -4,12.207599639892578 -4,10 C-4,10 -4,-10 -4,-10 C-4,-12.207599639892578 -2.2076001167297363,-14 0,-14 C0,-14 0,-14 0,-14 C2.2076001167297363,-14 4,-12.207599639892578 4,-10z"></path></g></g><g transform="matrix(0.9659258127212524,-0.258819043636322,0.258819043636322,0.9659258127212524,120.12944030761719,348.0583801269531)" opacity="0.5453120459185173" style="display: block;"><g opacity="1" transform="matrix(1,0,0,1,0,0)"><path fill="rgb(96,165,250)" fill-opacity="1" d=" M4,-10 C4,-10 4,10 4,10 C4,12.207599639892578 2.2076001167297363,14 0,14 C0,14 0,14 0,14 C-2.2076001167297363,14 -4,12.207599639892578 -4,10 C-4,10 -4,-10 -4,-10 C-4,-12.207599639892578 -2.2076001167297363,-14 0,-14 C0,-14 0,-14 0,-14 C2.2076001167297363,-14 4,-12.207599639892578 4,-10z"></path></g></g><g transform="matrix(0.9659258127212524,-0.258819043636322,0.258819043636322,0.9659258127212524,324.4731140136719,192.9032440185547)" opacity="0.9" style="display: block;"><g opacity="1" transform="matrix(1,0,0,1,0,0)"><path fill="rgb(96,165,250)" fill-opacity="1" d=" M4,-10 C4,-10 4,10 4,10 C4,12.207599639892578 2.2076001167297363,14 0,14 C0,14 0,14 0,14 C-2.2076001167297363,14 -4,12.207599639892578 -4,10 C-4,10 -4,-10 -4,-10 C-4,-12.207599639892578 -2.2076001167297363,-14 0,-14 C0,-14 0,-14 0,-14 C2.2076001167297363,-14 4,-12.207599639892578 4,-10z"></path></g></g><g transform="matrix(0.9659258127212524,-0.258819043636322,0.258819043636322,0.9659258127212524,255.52688598632812,237.0967559814453)" opacity="0.9" style="display: block;"><g opacity="1" transform="matrix(1,0,0,1,0,0)"><path fill="rgb(96,165,250)" fill-opacity="1" d=" M4,-10 C4,-10 4,10 4,10 C4,12.207599639892578 2.2076001167297363,14 0,14 C0,14 0,14 0,14 C-2.2076001167297363,14 -4,12.207599639892578 -4,10 C-4,10 -4,-10 -4,-10 C-4,-12.207599639892578 -2.2076001167297363,-14 0,-14 C0,-14 0,-14 0,-14 C2.2076001167297363,-14 4,-12.207599639892578 4,-10z"></path></g></g><g transform="matrix(0.9659258127212524,-0.258819043636322,0.258819043636322,0.9659258127212524,187.0492401123047,274.2614440917969)" opacity="0.9" style="display: block;"><g opacity="1" transform="matrix(1,0,0,1,0,0)"><path fill="rgb(96,165,250)" fill-opacity="1" d=" M4,-10 C4,-10 4,10 4,10 C4,12.207599639892578 2.2076001167297363,14 0,14 C0,14 0,14 0,14 C-2.2076001167297363,14 -4,12.207599639892578 -4,10 C-4,10 -4,-10 -4,-10 C-4,-12.207599639892578 -2.2076001167297363,-14 0,-14 C0,-14 0,-14 0,-14 C2.2076001167297363,-14 4,-12.207599639892578 4,-10z"></path></g></g><g transform="matrix(0.9659258127212524,-0.258819043636322,0.258819043636322,0.9659258127212524,120,290)" opacity="0.17938825036889" style="display: block;"><g opacity="1" transform="matrix(1,0,0,1,0,0)"><path fill="rgb(96,165,250)" fill-opacity="1" d=" M4,-10 C4,-10 4,10 4,10 C4,12.207599639892578 2.2076001167297363,14 0,14 C0,14 0,14 0,14 C-2.2076001167297363,14 -4,12.207599639892578 -4,10 C-4,10 -4,-10 -4,-10 C-4,-12.207599639892578 -2.2076001167297363,-14 0,-14 C0,-14 0,-14 0,-14 C2.2076001167297363,-14 4,-12.207599639892578 4,-10z"></path></g></g></g></svg>