<svg xmlns="http://www.w3.org/2000/svg" xmlns:xlink="http://www.w3.org/1999/xlink" viewBox="0 0 512 512" width="512" height="512" preserveAspectRatio="xMidYMid meet" style="width: 100%; height: 100%; transform: translate3d(0px, 0px, 0px); content-visibility: visible;"><defs><clipPath id="__lottie_element_2"><rect width="512" height="512" x="0" y="0"></rect></clipPath></defs><g clip-path="url(#__lottie_element_2)"><g style="display: none;"><g><path></path></g></g><g style="display: none;"><g><path></path></g></g><g transform="matrix(0.9994520545005798,0.033099208027124405,-0.033099208027124405,0.9994520545005798,246.21075439453125,201.89678955078125)" opacity="0.5" style="display: block;"><g opacity="1" transform="matrix(0.7071067690849304,0.7071067690849304,-0.7071067690849304,0.7071067690849304,0,0)"><path fill="rgb(191,219,254)" fill-opacity="1" d=" M8,-4 C8,-4 8,4 8,4 C8,6.207600116729736 6.207600116729736,8 4,8 C4,8 -4,8 -4,8 C-6.207600116729736,8 -8,6.207600116729736 -8,4 C-8,4 -8,-4 -8,-4 C-8,-6.207600116729736 -6.207600116729736,-8 -4,-8 C-4,-8 4,-8 4,-8 C6.207600116729736,-8 8,-6.207600116729736 8,-4z"></path></g></g><g transform="matrix(0.963408350944519,0.2680378556251526,-0.2680378556251526,0.963408350944519,199.72750854492188,215.54754638671875)" opacity="1" style="display: block;"><g opacity="1" transform="matrix(0.7071067690849304,0.7071067690849304,-0.7071067690849304,0.7071067690849304,0,0)"><path fill="rgb(191,219,254)" fill-opacity="1" d=" M8,-4 C8,-4 8,4 8,4 C8,6.207600116729736 6.207600116729736,8 4,8 C4,8 -4,8 -4,8 C-6.207600116729736,8 -8,6.207600116729736 -8,4 C-8,4 -8,-4 -8,-4 C-8,-6.207600116729736 -6.207600116729736,-8 -4,-8 C-4,-8 4,-8 4,-8 C6.207600116729736,-8 8,-6.207600116729736 8,-4z"></path></g></g><g transform="matrix(0.7763746976852417,0.6302716732025146,-0.6302716732025146,0.7763746976852417,154.34112548828125,239.07015991210938)" opacity="1" style="display: block;"><g opacity="1" transform="matrix(0.7071067690849304,0.7071067690849304,-0.7071067690849304,0.7071067690849304,0,0)"><path fill="rgb(191,219,254)" fill-opacity="1" d=" M8,-4 C8,-4 8,4 8,4 C8,6.207600116729736 6.207600116729736,8 4,8 C4,8 -4,8 -4,8 C-6.207600116729736,8 -8,6.207600116729736 -8,4 C-8,4 -8,-4 -8,-4 C-8,-6.207600116729736 -6.207600116729736,-8 -4,-8 C-4,-8 4,-8 4,-8 C6.207600116729736,-8 8,-6.207600116729736 8,-4z"></path></g></g><g transform="matrix(0.3634723126888275,0.9316049814224243,-0.9316049814224243,0.3634723126888275,349.6318359375,218.6864013671875)" opacity="1" style="display: block;"><g opacity="1" transform="matrix(0.7071067690849304,0.7071067690849304,-0.7071067690849304,0.7071067690849304,0,0)"><path fill="rgb(191,219,254)" fill-opacity="1" d=" M8,-4 C8,-4 8,4 8,4 C8,6.207600116729736 6.207600116729736,8 4,8 C4,8 -4,8 -4,8 C-6.207600116729736,8 -8,6.207600116729736 -8,4 C-8,4 -8,-4 -8,-4 C-8,-6.207600116729736 -6.207600116729736,-8 -4,-8 C-4,-8 4,-8 4,-8 C6.207600116729736,-8 8,-6.207600116729736 8,-4z"></path></g></g><g transform="matrix(-0.18607661128044128,0.9825352430343628,-0.9825352430343628,-0.18607661128044128,305.1915588378906,250.72390747070312)" opacity="1" style="display: block;"><g opacity="1" transform="matrix(0.7071067690849304,0.7071067690849304,-0.7071067690849304,0.7071067690849304,0,0)"><path fill="rgb(191,219,254)" fill-opacity="1" d=" M8,-4 C8,-4 8,4 8,4 C8,6.207600116729736 6.207600116729736,8 4,8 C4,8 -4,8 -4,8 C-6.207600116729736,8 -8,6.207600116729736 -8,4 C-8,4 -8,-4 -8,-4 C-8,-6.207600116729736 -6.207600116729736,-8 -4,-8 C-4,-8 4,-8 4,-8 C6.207600116729736,-8 8,-6.207600116729736 8,-4z"></path></g></g><g transform="matrix(-0.6632985472679138,0.7483549118041992,-0.7483549118041992,-0.6632985472679138,260.61688232421875,281.5519104003906)" opacity="1" style="display: block;"><g opacity="1" transform="matrix(0.7071067690849304,0.7071067690849304,-0.7071067690849304,0.7071067690849304,0,0)"><path fill="rgb(191,219,254)" fill-opacity="1" d=" M8,-4 C8,-4 8,4 8,4 C8,6.207600116729736 6.207600116729736,8 4,8 C4,8 -4,8 -4,8 C-6.207600116729736,8 -8,6.207600116729736 -8,4 C-8,4 -8,-4 -8,-4 C-8,-6.207600116729736 -6.207600116729736,-8 -4,-8 C-4,-8 4,-8 4,-8 C6.207600116729736,-8 8,-6.207600116729736 8,-4z"></path></g></g><g transform="matrix(-0.9240061640739441,0.38237762451171875,-0.38237762451171875,-0.9240061640739441,215.50210571289062,307.5189514160156)" opacity="1" style="display: block;"><g opacity="1" transform="matrix(0.7071067690849304,0.7071067690849304,-0.7071067690849304,0.7071067690849304,0,0)"><path fill="rgb(191,219,254)" fill-opacity="1" d=" M8,-4 C8,-4 8,4 8,4 C8,6.207600116729736 6.207600116729736,8 4,8 C4,8 -4,8 -4,8 C-6.207600116729736,8 -8,6.207600116729736 -8,4 C-8,4 -8,-4 -8,-4 C-8,-6.207600116729736 -6.207600116729736,-8 -4,-8 C-4,-8 4,-8 4,-8 C6.207600116729736,-8 8,-6.207600116729736 8,-4z"></path></g></g><g transform="matrix(-0.9960247278213501,0.08907738327980042,-0.08907738327980042,-0.9960247278213501,169.43215942382812,324.88946533203125)" opacity="0.9564895497162322" style="display: block;"><g opacity="1" transform="matrix(0.7071067690849304,0.7071067690849304,-0.7071067690849304,0.7071067690849304,0,0)"><path fill="rgb(191,219,254)" fill-opacity="1" d=" M8,-4 C8,-4 8,4 8,4 C8,6.207600116729736 6.207600116729736,8 4,8 C4,8 -4,8 -4,8 C-6.207600116729736,8 -8,6.207600116729736 -8,4 C-8,4 -8,-4 -8,-4 C-8,-6.207600116729736 -6.207600116729736,-8 -4,-8 C-4,-8 4,-8 4,-8 C6.207600116729736,-8 8,-6.207600116729736 8,-4z"></path></g></g></g></svg>