<svg xmlns="http://www.w3.org/2000/svg" xmlns:xlink="http://www.w3.org/1999/xlink" viewBox="0 0 512 512" width="512" height="512" preserveAspectRatio="xMidYMid meet" style="width: 100%; height: 100%; transform: translate3d(0px, 0px, 0px); content-visibility: visible;"><defs><clipPath id="__lottie_element_2"><rect width="512" height="512" x="0" y="0"></rect></clipPath></defs><g clip-path="url(#__lottie_element_2)"><g transform="matrix(1,0,0,1,256,180)" opacity="1" style="display: block;"><g opacity="1" transform="matrix(1,0,0,1,0,0)"><path fill="rgb(71,85,105)" fill-opacity="1" d=" M60,-35 C90.35449981689453,-35 115,-14.83549976348877 115,10 C115,34.83549880981445 90.35449981689453,55 60,55 C29.64550018310547,55 5,34.83549880981445 5,10 C5,-14.83549976348877 29.64550018310547,-35 60,-35z"></path></g><g opacity="1" transform="matrix(1,0,0,1,0,0)"><path fill="rgb(71,85,105)" fill-opacity="1" d=" M-60,-35 C-29.64550018310547,-35 -5,-14.83549976348877 -5,10 C-5,34.83549880981445 -29.64550018310547,55 -60,55 C-90.35449981689453,55 -115,34.83549880981445 -115,10 C-115,-14.83549976348877 -90.35449981689453,-35 -60,-35z"></path></g><g opacity="1" transform="matrix(1,0,0,1,0,0)"><path fill="rgb(71,85,105)" fill-opacity="1" d=" M0,-45 C44.152000427246094,-45 80,-24.835500717163086 80,0 C80,24.835500717163086 44.152000427246094,45 0,45 C-44.152000427246094,45 -80,24.835500717163086 -80,0 C-80,-24.835500717163086 -44.152000427246094,-45 0,-45z"></path></g></g><g transform="matrix(1,0,0,1,256,256)" opacity="0.5353855419339835" style="display: block;"><g opacity="1" transform="matrix(0.9659258127212524,0.258819043636322,-0.258819043636322,0.9659258127212524,0,0)"><path fill="rgb(253,224,71)" fill-opacity="1" d=" M25,-70 C25,-70 25,70 25,70 C25,75.51899719238281 20.518999099731445,80 15,80 C15,80 -15,80 -15,80 C-20.518999099731445,80 -25,75.51899719238281 -25,70 C-25,70 -25,-70 -25,-70 C-25,-75.51899719238281 -20.518999099731445,-80 -15,-80 C-15,-80 15,-80 15,-80 C20.518999099731445,-80 25,-75.51899719238281 25,-70z"></path></g></g><g transform="matrix(0.5,0,0,0.5,256,256)" opacity="0.6" style="display: none;"><g opacity="1" transform="matrix(1,0,0,1,0,0)"><path fill="rgb(253,224,71)" fill-opacity="0.3" d=" M0,-60 C33.11399841308594,-60 60,-33.11399841308594 60,0 C60,33.11399841308594 33.11399841308594,60 0,60 C-33.11399841308594,60 -60,33.11399841308594 -60,0 C-60,-33.11399841308594 -33.11399841308594,-60 0,-60z"></path></g></g><g transform="matrix(0.5,0,0,0.5,256,256)" opacity="0.6" style="display: none;"><g opacity="1" transform="matrix(1,0,0,1,0,0)"><path fill="rgb(253,224,71)" fill-opacity="0.3" d=" M0,-60 C33.11399841308594,-60 60,-33.11399841308594 60,0 C60,33.11399841308594 33.11399841308594,60 0,60 C-33.11399841308594,60 -60,33.11399841308594 -60,0 C-60,-33.11399841308594 -33.11399841308594,-60 0,-60z"></path></g></g></g></svg>