<svg xmlns="http://www.w3.org/2000/svg" xmlns:xlink="http://www.w3.org/1999/xlink" viewBox="0 0 512 512" width="512" height="512" preserveAspectRatio="xMidYMid meet" style="width: 100%; height: 100%; transform: translate3d(0px, 0px, 0px); content-visibility: visible;"><defs><clipPath id="__lottie_element_2"><rect width="512" height="512" x="0" y="0"></rect></clipPath></defs><g clip-path="url(#__lottie_element_2)"><g transform="matrix(1,0,0,1,-70.5787353515625,338)" opacity="0.68277285780237" style="display: block;"><g opacity="1" transform="matrix(1,0,0,1,0,0)"><path fill="rgb(148,163,184)" fill-opacity="1" d=" M90,0 C90,0 90,0 90,0 C90,2.2076001167297363 88.20760345458984,4 86,4 C86,4 -86,4 -86,4 C-88.20760345458984,4 -90,2.2076001167297363 -90,0 C-90,0 -90,0 -90,0 C-90,-2.2076001167297363 -88.20760345458984,-4 -86,-4 C-86,-4 86,-4 86,-4 C88.20760345458984,-4 90,-2.2076001167297363 90,0z"></path></g></g><g transform="matrix(1,0,0,1,59.0174674987793,300)" opacity="1" style="display: block;"><g opacity="1" transform="matrix(1,0,0,1,0,0)"><path fill="rgb(148,163,184)" fill-opacity="1" d=" M65,0 C65,0 65,0 65,0 C65,2.2076001167297363 63.20759963989258,4 61,4 C61,4 -61,4 -61,4 C-63.20759963989258,4 -65,2.2076001167297363 -65,0 C-65,0 -65,0 -65,0 C-65,-2.2076001167297363 -63.20759963989258,-4 -61,-4 C-61,-4 61,-4 61,-4 C63.20759963989258,-4 65,-2.2076001167297363 65,0z"></path></g></g><g transform="matrix(1,0,0,1,187.41310119628906,262)" opacity="1" style="display: block;"><g opacity="1" transform="matrix(1,0,0,1,0,0)"><path fill="rgb(148,163,184)" fill-opacity="1" d=" M110,0 C110,0 110,0 110,0 C110,2.2076001167297363 108.20760345458984,4 106,4 C106,4 -106,4 -106,4 C-108.20760345458984,4 -110,2.2076001167297363 -110,0 C-110,0 -110,0 -110,0 C-110,-2.2076001167297363 -108.20760345458984,-4 -106,-4 C-106,-4 106,-4 106,-4 C108.20760345458984,-4 110,-2.2076001167297363 110,0z"></path></g></g><g transform="matrix(1,0,0,1,255.29461669921875,224)" opacity="1" style="display: block;"><g opacity="1" transform="matrix(1,0,0,1,0,0)"><path fill="rgb(148,163,184)" fill-opacity="1" d=" M75,0 C75,0 75,0 75,0 C75,2.2076001167297363 73.20760345458984,4 71,4 C71,4 -71,4 -71,4 C-73.20760345458984,4 -75,2.2076001167297363 -75,0 C-75,0 -75,0 -75,0 C-75,-2.2076001167297363 -73.20760345458984,-4 -71,-4 C-71,-4 71,-4 71,-4 C73.20760345458984,-4 75,-2.2076001167297363 75,0z"></path></g></g><g transform="matrix(1,0,0,1,346.952880859375,186)" opacity="1" style="display: block;"><g opacity="1" transform="matrix(1,0,0,1,0,0)"><path fill="rgb(148,163,184)" fill-opacity="1" d=" M100,0 C100,0 100,0 100,0 C100,2.2076001167297363 98.20760345458984,4 96,4 C96,4 -96,4 -96,4 C-98.20760345458984,4 -100,2.2076001167297363 -100,0 C-100,0 -100,0 -100,0 C-100,-2.2076001167297363 -98.20760345458984,-4 -96,-4 C-96,-4 96,-4 96,-4 C98.20760345458984,-4 100,-2.2076001167297363 100,0z"></path></g></g></g></svg>