<svg xmlns="http://www.w3.org/2000/svg" xmlns:xlink="http://www.w3.org/1999/xlink" viewBox="0 0 512 512" width="512" height="512" preserveAspectRatio="xMidYMid meet" style="width: 100%; height: 100%; transform: translate3d(0px, 0px, 0px); content-visibility: visible;"><defs><clipPath id="__lottie_element_2"><rect width="512" height="512" x="0" y="0"></rect></clipPath></defs><g clip-path="url(#__lottie_element_2)"><g transform="matrix(1,0,0,1,256,256)" opacity="1" style="display: block;"><g opacity="1" transform="matrix(1,0,0,1,0,0)"><path fill="rgb(12,18,34)" fill-opacity="1" d=" M256,-256 C256,-256 256,256 256,256 C256,256 -256,256 -256,256 C-256,256 -256,-256 -256,-256 C-256,-256 256,-256 256,-256z"></path></g></g><g transform="matrix(1,0,0,0.9723021984100342,364,231.24639892578125)" opacity="1" style="display: block;"><g opacity="1" transform="matrix(1,0,0,1,0,0)"><path fill="rgb(6,182,212)" fill-opacity="1" d=" M14,-31 C14,-31 14,31 14,31 C14,38.726600646972656 7.726600170135498,45 0,45 C0,45 0,45 0,45 C-7.726600170135498,45 -14,38.726600646972656 -14,31 C-14,31 -14,-31 -14,-31 C-14,-38.726600646972656 -7.726600170135498,-45 0,-45 C0,-45 0,-45 0,-45 C7.726600170135498,-45 14,-38.726600646972656 14,-31z"></path></g></g><g transform="matrix(1,0,0,0.12760953605175018,312,224.15318298339844)" opacity="1" style="display: block;"><g opacity="1" transform="matrix(1,0,0,1,0,0)"><path fill="rgb(139,92,246)" fill-opacity="1" d=" M14,-71 C14,-71 14,71 14,71 C14,78.72660064697266 7.726600170135498,85 0,85 C0,85 0,85 0,85 C-7.726600170135498,85 -14,78.72660064697266 -14,71 C-14,71 -14,-71 -14,-71 C-14,-78.72660064697266 -7.726600170135498,-85 0,-85 C0,-85 0,-85 0,-85 C7.726600170135498,-85 14,-78.72660064697266 14,-71z"></path></g></g><g transform="matrix(1,0,0,0.8820708990097046,260,225.89645385742188)" opacity="1" style="display: block;"><g opacity="1" transform="matrix(1,0,0,1,0,0)"><path fill="rgb(6,182,212)" fill-opacity="1" d=" M14,-36 C14,-36 14,36 14,36 C14,43.726600646972656 7.726600170135498,50 0,50 C0,50 0,50 0,50 C-7.726600170135498,50 -14,43.726600646972656 -14,36 C-14,36 -14,-36 -14,-36 C-14,-43.726600646972656 -7.726600170135498,-50 0,-50 C0,-50 0,-50 0,-50 C7.726600170135498,-50 14,-43.726600646972656 14,-36z"></path></g></g><g transform="matrix(1,0,0,0.5207144618034363,208,213.54998779296875)" opacity="1" style="display: block;"><g opacity="1" transform="matrix(1,0,0,1,0,0)"><path fill="rgb(139,92,246)" fill-opacity="1" d=" M14,-56 C14,-56 14,56 14,56 C14,63.726600646972656 7.726600170135498,70 0,70 C0,70 0,70 0,70 C-7.726600170135498,70 -14,63.726600646972656 -14,56 C-14,56 -14,-56 -14,-56 C-14,-63.726600646972656 -7.726600170135498,-70 0,-70 C0,-70 0,-70 0,-70 C7.726600170135498,-70 14,-63.726600646972656 14,-56z"></path></g></g><g transform="matrix(1,0,0,1,156,240)" opacity="1" style="display: block;"><g opacity="1" transform="matrix(1,0,0,1,0,0)"><path fill="rgb(6,182,212)" fill-opacity="1" d=" M14,-26 C14,-26 14,26 14,26 C14,33.726600646972656 7.726600170135498,40 0,40 C0,40 0,40 0,40 C-7.726600170135498,40 -14,33.726600646972656 -14,26 C-14,26 -14,-26 -14,-26 C-14,-33.726600646972656 -7.726600170135498,-40 0,-40 C0,-40 0,-40 0,-40 C7.726600170135498,-40 14,-33.726600646972656 14,-26z"></path></g></g></g></svg>