<svg xmlns="http://www.w3.org/2000/svg" xmlns:xlink="http://www.w3.org/1999/xlink" viewBox="0 0 512 512" width="512" height="512" preserveAspectRatio="xMidYMid meet" style="width: 100%; height: 100%; transform: translate3d(0px, 0px, 0px); content-visibility: visible;"><defs><clipPath id="__lottie_element_2"><rect width="512" height="512" x="0" y="0"></rect></clipPath></defs><g clip-path="url(#__lottie_element_2)"><g transform="matrix(1,0,0,1,256,256)" opacity="1" style="display: block;"><g opacity="1" transform="matrix(1,0,0,1,0,0)"><path fill="rgb(12,18,34)" fill-opacity="1" d=" M256,-256 C256,-256 256,256 256,256 C256,256 -256,256 -256,256 C-256,256 -256,-256 -256,-256 C-256,-256 256,-256 256,-256z"></path></g></g><g transform="matrix(1.0299999713897705,0,0,1.0299999713897705,256,240)" opacity="1" style="display: block;"><g opacity="1" transform="matrix(1,0,0,1,0,0)"><path fill="rgb(139,92,246)" fill-opacity="1" d=" M35,-20 C35,-20 35,20 35,20 C35,39.31650161743164 19.316499710083008,55 0,55 C0,55 0,55 0,55 C-19.316499710083008,55 -35,39.31650161743164 -35,20 C-35,20 -35,-20 -35,-20 C-35,-39.31650161743164 -19.316499710083008,-55 0,-55 C0,-55 0,-55 0,-55 C19.316499710083008,-55 35,-39.31650161743164 35,-20z"></path></g></g><g transform="matrix(1,0,0,1,256,330)" opacity="1" style="display: block;"><g opacity="1" transform="matrix(1,0,0,1,0,0)"><path fill="rgb(240,249,255)" fill-opacity="1" d=" M6,-16 C6,-16 6,16 6,16 C6,19.311399459838867 3.3113999366760254,22 0,22 C0,22 0,22 0,22 C-3.3113999366760254,22 -6,19.311399459838867 -6,16 C-6,16 -6,-16 -6,-16 C-6,-19.311399459838867 -3.3113999366760254,-22 0,-22 C0,-22 0,-22 0,-22 C3.3113999366760254,-22 6,-19.311399459838867 6,-16z"></path></g></g><g transform="matrix(1,0,0,1,256,352)" opacity="1" style="display: block;"><g opacity="1" transform="matrix(1,0,0,1,0,0)"><path fill="rgb(240,249,255)" fill-opacity="1" d=" M40,0 C40,0 40,0 40,0 C40,3.3113999366760254 37.3114013671875,6 34,6 C34,6 -34,6 -34,6 C-37.3114013671875,6 -40,3.3113999366760254 -40,0 C-40,0 -40,0 -40,0 C-40,-3.3113999366760254 -37.3114013671875,-6 -34,-6 C-34,-6 34,-6 34,-6 C37.3114013671875,-6 40,-3.3113999366760254 40,0z"></path></g></g><g transform="matrix(0.45248115062713623,0,0,0.45248115062713623,256,256)" opacity="0.8687231918184068" style="display: block;"><g opacity="1" transform="matrix(1,0,0,1,0,0)"><path stroke-linecap="round" stroke-linejoin="round" fill-opacity="0" stroke="rgb(6,182,212)" stroke-opacity="1" stroke-width="3" d=" M0,-80 C44.152000427246094,-80 80,-44.152000427246094 80,0 C80,44.152000427246094 44.152000427246094,80 0,80 C-44.152000427246094,80 -80,44.152000427246094 -80,0 C-80,-44.152000427246094 -44.152000427246094,-80 0,-80z"></path></g></g><g transform="matrix(1.7394107580184937,0,0,1.7394107580184937,256,256)" opacity="0.37567270906066086" style="display: block;"><g opacity="1" transform="matrix(1,0,0,1,0,0)"><path stroke-linecap="round" stroke-linejoin="round" fill-opacity="0" stroke="rgb(6,182,212)" stroke-opacity="1" stroke-width="3" d=" M0,-60 C33.11399841308594,-60 60,-33.11399841308594 60,0 C60,33.11399841308594 33.11399841308594,60 0,60 C-33.11399841308594,60 -60,33.11399841308594 -60,0 C-60,-33.11399841308594 -33.11399841308594,-60 0,-60z"></path></g></g><g transform="matrix(0.4000000059604645,0,0,0.4000000059604645,256,256)" opacity="0.9" style="display: none;"><g opacity="1" transform="matrix(1,0,0,1,0,0)"><path stroke-linecap="round" stroke-linejoin="round" fill-opacity="0" stroke="rgb(6,182,212)" stroke-opacity="1" stroke-width="3" d=" M0,-40 C22.076000213623047,-40 40,-22.076000213623047 40,0 C40,22.076000213623047 22.076000213623047,40 0,40 C-22.076000213623047,40 -40,22.076000213623047 -40,0 C-40,-22.076000213623047 -22.076000213623047,-40 0,-40z"></path></g></g></g></svg>