<svg xmlns="http://www.w3.org/2000/svg" xmlns:xlink="http://www.w3.org/1999/xlink" viewBox="0 0 512 512" width="512" height="512" preserveAspectRatio="xMidYMid meet" style="width: 100%; height: 100%; transform: translate3d(0px, 0px, 0px); content-visibility: visible;"><defs><clipPath id="__lottie_element_2"><rect width="512" height="512" x="0" y="0"></rect></clipPath></defs><g clip-path="url(#__lottie_element_2)"><g transform="matrix(1,0,0,1,256,256)" opacity="1" style="display: block;"><g opacity="1" transform="matrix(1,0,0,1,0,0)"><path fill="rgb(12,18,34)" fill-opacity="1" d=" M256,-256 C256,-256 256,256 256,256 C256,256 -256,256 -256,256 C-256,256 -256,-256 -256,-256 C-256,-256 256,-256 256,-256z"></path></g></g><g transform="matrix(1,0,0,1,272,256)" opacity="1" style="display: none;"><g opacity="1" transform="matrix(0.8660253882408142,-0.5,0.5,0.8660253882408142,0,0)"><path fill="rgb(6,182,212)" fill-opacity="1" d=" M11,-34 C11,-34 11,34 11,34 C11,37.3114013671875 8.311400413513184,40 5,40 C5,40 -5,40 -5,40 C-8.311400413513184,40 -11,37.3114013671875 -11,34 C-11,34 -11,-34 -11,-34 C-11,-37.3114013671875 -8.311400413513184,-40 -5,-40 C-5,-40 5,-40 5,-40 C8.311400413513184,-40 11,-37.3114013671875 11,-34z"></path></g></g><g transform="matrix(1,0,0,1,240,256)" opacity="1" style="display: none;"><g opacity="1" transform="matrix(0.8660253882408142,0.5,-0.5,0.8660253882408142,0,0)"><path fill="rgb(6,182,212)" fill-opacity="1" d=" M11,-34 C11,-34 11,34 11,34 C11,37.3114013671875 8.311400413513184,40 5,40 C5,40 -5,40 -5,40 C-8.311400413513184,40 -11,37.3114013671875 -11,34 C-11,34 -11,-34 -11,-34 C-11,-37.3114013671875 -8.311400413513184,-40 -5,-40 C-5,-40 5,-40 5,-40 C8.311400413513184,-40 11,-37.3114013671875 11,-34z"></path></g></g><g style="display: none;"><g><path></path></g></g><g style="display: none;"><g><path></path></g></g></g></svg>