<svg xmlns="http://www.w3.org/2000/svg" xmlns:xlink="http://www.w3.org/1999/xlink" viewBox="0 0 512 512" width="512" height="512" preserveAspectRatio="xMidYMid meet" style="width: 100%; height: 100%; transform: translate3d(0px, 0px, 0px); content-visibility: visible;"><defs><clipPath id="__lottie_element_2"><rect width="512" height="512" x="0" y="0"></rect></clipPath></defs><g clip-path="url(#__lottie_element_2)"><g transform="matrix(1,0,0,1,256,256)" opacity="1" style="display: block;"><g opacity="1" transform="matrix(1,0,0,1,0,0)"><path fill="rgb(12,18,34)" fill-opacity="1" d=" M256,-256 C256,-256 256,256 256,256 C256,256 -256,256 -256,256 C-256,256 -256,-256 -256,-256 C-256,-256 256,-256 256,-256z"></path></g></g><g transform="matrix(1,0,0,0.390413373708725,414,256)" opacity="0.662921867768159" style="display: block;"><g opacity="1" transform="matrix(1,0,0,1,0,0)"><path fill="rgb(240,249,255)" fill-opacity="1" d=" M10,-20 C10,-20 10,20 10,20 C10,25.518999099731445 5.519000053405762,30 0,30 C0,30 0,30 0,30 C-5.519000053405762,30 -10,25.518999099731445 -10,20 C-10,20 -10,-20 -10,-20 C-10,-25.518999099731445 -5.519000053405762,-30 0,-30 C0,-30 0,-30 0,-30 C5.519000053405762,-30 10,-25.518999099731445 10,-20z"></path></g></g><g transform="matrix(1,0,0,0.6499999761581421,376,256)" opacity="0.8" style="display: block;"><g opacity="1" transform="matrix(1,0,0,1,0,0)"><path fill="rgb(139,92,246)" fill-opacity="1" d=" M10,-50 C10,-50 10,50 10,50 C10,55.51900100708008 5.519000053405762,60 0,60 C0,60 0,60 0,60 C-5.519000053405762,60 -10,55.51900100708008 -10,50 C-10,50 -10,-50 -10,-50 C-10,-55.51900100708008 -5.519000053405762,-60 0,-60 C0,-60 0,-60 0,-60 C5.519000053405762,-60 10,-55.51900100708008 10,-50z"></path></g></g><g transform="matrix(1,0,0,0.9095866680145264,338,256)" opacity="0.9370781322318412" style="display: block;"><g opacity="1" transform="matrix(1,0,0,1,0,0)"><path fill="rgb(6,182,212)" fill-opacity="1" d=" M10,-30 C10,-30 10,30 10,30 C10,35.51900100708008 5.519000053405762,40 0,40 C0,40 0,40 0,40 C-5.519000053405762,40 -10,35.51900100708008 -10,30 C-10,30 -10,-30 -10,-30 C-10,-35.51900100708008 -5.519000053405762,-40 0,-40 C0,-40 0,-40 0,-40 C5.519000053405762,-40 10,-35.51900100708008 10,-30z"></path></g></g><g transform="matrix(1,0,0,1,300,256)" opacity="1" style="display: block;"><g opacity="1" transform="matrix(1,0,0,1,0,0)"><path fill="rgb(240,249,255)" fill-opacity="1" d=" M10,-45 C10,-45 10,45 10,45 C10,50.51900100708008 5.519000053405762,55 0,55 C0,55 0,55 0,55 C-5.519000053405762,55 -10,50.51900100708008 -10,45 C-10,45 -10,-45 -10,-45 C-10,-50.51900100708008 -5.519000053405762,-55 0,-55 C0,-55 0,-55 0,-55 C5.519000053405762,-55 10,-50.51900100708008 10,-45z"></path></g></g><g transform="matrix(1,0,0,0.9354190230369568,262,256)" opacity="0.9370781322318411" style="display: block;"><g opacity="1" transform="matrix(1,0,0,1,0,0)"><path fill="rgb(139,92,246)" fill-opacity="1" d=" M10,-60 C10,-60 10,60 10,60 C10,65.51899719238281 5.519000053405762,70 0,70 C0,70 0,70 0,70 C-5.519000053405762,70 -10,65.51899719238281 -10,60 C-10,60 -10,-60 -10,-60 C-10,-65.51899719238281 -5.519000053405762,-70 0,-70 C0,-70 0,-70 0,-70 C5.519000053405762,-70 10,-65.51899719238281 10,-60z"></path></g></g><g transform="matrix(1,0,0,0.75,224,256)" opacity="0.8" style="display: block;"><g opacity="1" transform="matrix(1,0,0,1,0,0)"><path fill="rgb(6,182,212)" fill-opacity="1" d=" M10,-70 C10,-70 10,70 10,70 C10,75.51899719238281 5.519000053405762,80 0,80 C0,80 0,80 0,80 C-5.519000053405762,80 -10,75.51899719238281 -10,70 C-10,70 -10,-70 -10,-70 C-10,-75.51899719238281 -5.519000053405762,-80 0,-80 C0,-80 0,-80 0,-80 C5.519000053405762,-80 10,-75.51899719238281 10,-70z"></path></g></g><g transform="matrix(1,0,0,0.5645809769630432,186,256)" opacity="0.6629218677681589" style="display: block;"><g opacity="1" transform="matrix(1,0,0,1,0,0)"><path fill="rgb(240,249,255)" fill-opacity="1" d=" M10,-55 C10,-55 10,55 10,55 C10,60.51900100708008 5.519000053405762,65 0,65 C0,65 0,65 0,65 C-5.519000053405762,65 -10,60.51900100708008 -10,55 C-10,55 -10,-55 -10,-55 C-10,-60.51900100708008 -5.519000053405762,-65 0,-65 C0,-65 0,-65 0,-65 C5.519000053405762,-65 10,-60.51900100708008 10,-55z"></path></g></g><g transform="matrix(1,0,0,0.5,148,256)" opacity="0.6" style="display: block;"><g opacity="1" transform="matrix(1,0,0,1,0,0)"><path fill="rgb(139,92,246)" fill-opacity="1" d=" M10,-35 C10,-35 10,35 10,35 C10,40.51900100708008 5.519000053405762,45 0,45 C0,45 0,45 0,45 C-5.519000053405762,45 -10,40.51900100708008 -10,35 C-10,35 -10,-35 -10,-35 C-10,-40.51900100708008 -5.519000053405762,-45 0,-45 C0,-45 0,-45 0,-45 C5.519000053405762,-45 10,-40.51900100708008 10,-35z"></path></g></g><g transform="matrix(1,0,0,0.5645809769630432,110,256)" opacity="0.6" style="display: block;"><g opacity="1" transform="matrix(1,0,0,1,0,0)"><path fill="rgb(6,182,212)" fill-opacity="1" d=" M10,-15 C10,-15 10,15 10,15 C10,20.518999099731445 5.519000053405762,25 0,25 C0,25 0,25 0,25 C-5.519000053405762,25 -10,20.518999099731445 -10,15 C-10,15 -10,-15 -10,-15 C-10,-20.518999099731445 -5.519000053405762,-25 0,-25 C0,-25 0,-25 0,-25 C5.519000053405762,-25 10,-20.518999099731445 10,-15z"></path></g></g></g></svg>