<svg xmlns="http://www.w3.org/2000/svg" xmlns:xlink="http://www.w3.org/1999/xlink" viewBox="0 0 512 512" width="512" height="512" preserveAspectRatio="xMidYMid meet" style="width: 100%; height: 100%; transform: translate3d(0px, 0px, 0px); content-visibility: visible;"><defs><clipPath id="__lottie_element_2"><rect width="512" height="512" x="0" y="0"></rect></clipPath></defs><g clip-path="url(#__lottie_element_2)"><g transform="matrix(1,0,0,1,256,256)" opacity="1" style="display: block;"><g opacity="1" transform="matrix(1,0,0,1,0,0)"><path fill="rgb(12,18,34)" fill-opacity="1" d=" M256,-256 C256,-256 256,256 256,256 C256,256 -256,256 -256,256 C-256,256 -256,-256 -256,-256 C-256,-256 256,-256 256,-256z"></path></g></g><g transform="matrix(1,0,0,1,218,256)" opacity="1" style="display: block;"><g opacity="1" transform="matrix(1,0,0,1,0,0)"><path fill="rgb(139,92,246)" fill-opacity="1" d=" M22,-22 C22,-22 22,22 22,22 C22,26.415199279785156 18.415199279785156,30 14,30 C14,30 -14,30 -14,30 C-18.415199279785156,30 -22,26.415199279785156 -22,22 C-22,22 -22,-22 -22,-22 C-22,-26.415199279785156 -18.415199279785156,-30 -14,-30 C-14,-30 14,-30 14,-30 C18.415199279785156,-30 22,-26.415199279785156 22,-22z"></path></g></g><g transform="matrix(1,0,0,1,238,256)" opacity="1" style="display: block;"><g opacity="1" transform="matrix(0.7071067690849304,0.7071067690849304,-0.7071067690849304,0.7071067690849304,0,0)"><path fill="rgb(139,92,246)" fill-opacity="1" d=" M22,-35 C22,-35 22,35 22,35 C22,40.51900100708008 17.518999099731445,45 12,45 C12,45 -12,45 -12,45 C-17.518999099731445,45 -22,40.51900100708008 -22,35 C-22,35 -22,-35 -22,-35 C-22,-40.51900100708008 -17.518999099731445,-45 -12,-45 C-12,-45 12,-45 12,-45 C17.518999099731445,-45 22,-40.51900100708008 22,-35z"></path></g></g><g transform="matrix(0.8936484456062317,0,0,0.8936484456062317,286,256)" opacity="0.48355479477694113" style="display: block;"><g opacity="1" transform="matrix(1,0,0,1,0,0)"><path stroke-linecap="round" stroke-linejoin="round" fill-opacity="0" stroke="rgb(6,182,212)" stroke-opacity="1" stroke-width="4" d=" M0,-60 C33.11399841308594,-60 60,-33.11399841308594 60,0 C60,33.11399841308594 33.11399841308594,60 0,60 C-33.11399841308594,60 -60,33.11399841308594 -60,0 C-60,-33.11399841308594 -33.11399841308594,-60 0,-60z"></path></g></g><g transform="matrix(1.097512125968933,0,0,1.097512125968933,286,256)" opacity="0.014651137487304169" style="display: block;"><g opacity="1" transform="matrix(1,0,0,1,0,0)"><path stroke-linecap="round" stroke-linejoin="round" fill-opacity="0" stroke="rgb(6,182,212)" stroke-opacity="1" stroke-width="4" d=" M0,-30 C16.55699920654297,-30 30,-16.55699920654297 30,0 C30,16.55699920654297 16.55699920654297,30 0,30 C-16.55699920654297,30 -30,16.55699920654297 -30,0 C-30,-16.55699920654297 -16.55699920654297,-30 0,-30z"></path></g></g></g></svg>