<svg xmlns="http://www.w3.org/2000/svg" xmlns:xlink="http://www.w3.org/1999/xlink" viewBox="0 0 512 512" width="512" height="512" preserveAspectRatio="xMidYMid meet" style="width: 100%; height: 100%; transform: translate3d(0px, 0px, 0px); content-visibility: visible;"><defs><clipPath id="__lottie_element_2"><rect width="512" height="512" x="0" y="0"></rect></clipPath></defs><g clip-path="url(#__lottie_element_2)"><g transform="matrix(1,0,0,1,256,256)" opacity="1" style="display: block;"><g opacity="1" transform="matrix(1,0,0,1,0,0)"><path stroke-linecap="round" stroke-linejoin="round" fill-opacity="0" stroke="rgb(55,65,81)" stroke-opacity="1" stroke-width="12" d=" M0,-100 C55.189998626708984,-100 100,-55.189998626708984 100,0 C100,55.189998626708984 55.189998626708984,100 0,100 C-55.189998626708984,100 -100,55.189998626708984 -100,0 C-100,-55.189998626708984 -55.189998626708984,-100 0,-100z"></path></g></g><g transform="matrix(0,-1,1,0,256,256)" opacity="1" style="display: block;"><g opacity="1" transform="matrix(1,0,0,1,0,0)"><path stroke-linecap="round" stroke-linejoin="round" fill-opacity="0" stroke="rgb(59,130,246)" stroke-opacity="1" stroke-width="12" d=" M0,-100 C55.189998626708984,-100 100,-55.189998626708984 100,0 C100,55.189998626708984 55.189998626708984,100 0,100 C-55.189998626708984,100 -100,55.189998626708984 -100,0 C-100,-5.452000141143799 -99.56300354003906,-10.802000045776367 -98.72200012207031,-16.01799964904785"></path></g></g><g transform="matrix(1,0,0,1,237.15049743652344,349.9692687988281)" opacity="1" style="display: block;"><g opacity="1" transform="matrix(1,0,0,1,0,0)"><path fill="rgb(59,130,246)" fill-opacity="1" d=" M0,-10 C5.519000053405762,-10 10,-5.519000053405762 10,0 C10,5.519000053405762 5.519000053405762,10 0,10 C-5.519000053405762,10 -10,5.519000053405762 -10,0 C-10,-5.519000053405762 -5.519000053405762,-10 0,-10z"></path></g></g></g></svg>