<svg xmlns="http://www.w3.org/2000/svg" xmlns:xlink="http://www.w3.org/1999/xlink" viewBox="0 0 512 512" width="512" height="512" preserveAspectRatio="xMidYMid meet" style="width: 100%; height: 100%; transform: translate3d(0px, 0px, 0px); content-visibility: visible;"><defs><clipPath id="__lottie_element_2"><rect width="512" height="512" x="0" y="0"></rect></clipPath></defs><g clip-path="url(#__lottie_element_2)"><g transform="matrix(1,0,0,1,256,256)" opacity="1" style="display: block;"><g opacity="1" transform="matrix(1,0,0,1,0,0)"><path stroke-linecap="round" stroke-linejoin="round" fill-opacity="0" stroke="rgb(55,65,81)" stroke-opacity="1" stroke-width="10" d=" M0,-90 C49.67100143432617,-90 90,-49.67100143432617 90,0 C90,49.67100143432617 49.67100143432617,90 0,90 C-49.67100143432617,90 -90,49.67100143432617 -90,0 C-90,-49.67100143432617 -49.67100143432617,-90 0,-90z"></path></g></g><g transform="matrix(0,1,-1,0,256,256)" opacity="1" style="display: block;"><g opacity="1" transform="matrix(1,0,0,1,0,0)"><path stroke-linecap="round" stroke-linejoin="round" fill-opacity="0" stroke="rgb(59,130,246)" stroke-opacity="1" stroke-width="10" d=" M0,-90 C49.67100143432617,-90 90,-49.67100143432617 90,0 C90,49.67100143432617 49.67100143432617,90 0,90 C-49.67100143432617,90 -90,49.67100143432617 -90,0 C-90,-49.67100143432617 -49.67100143432617,-90 0,-90z"></path></g></g><g transform="matrix(-1,0,0,-1,256,256)" opacity="1" style="display: block;"><g opacity="1" transform="matrix(1,0,0,1,0,0)"><path fill="rgb(59,130,246)" fill-opacity="1" d=" M0,-11 C6.070899963378906,-11 11,-6.070899963378906 11,0 C11,6.070899963378906 6.070899963378906,11 0,11 C-6.070899963378906,11 -11,6.070899963378906 -11,0 C-11,-6.070899963378906 -6.070899963378906,-11 0,-11z"></path></g></g></g></svg>