<svg xmlns="http://www.w3.org/2000/svg" xmlns:xlink="http://www.w3.org/1999/xlink" viewBox="0 0 512 512" width="512" height="512" preserveAspectRatio="xMidYMid meet" style="width: 100%; height: 100%; transform: translate3d(0px, 0px, 0px); content-visibility: visible;"><defs><clipPath id="__lottie_element_2"><rect width="512" height="512" x="0" y="0"></rect></clipPath></defs><g clip-path="url(#__lottie_element_2)"><g transform="matrix(0.014815892092883587,0,0,0.014815892092883587,366,256)" opacity="1" style="display: block;"><g opacity="1" transform="matrix(1,0,0,1,0,0)"><path fill="rgb(59,130,246)" fill-opacity="1" d=" M0,-35 C19.316499710083008,-35 35,-19.316499710083008 35,0 C35,19.316499710083008 19.316499710083008,35 0,35 C-19.316499710083008,35 -35,19.316499710083008 -35,0 C-35,-19.316499710083008 -19.316499710083008,-35 0,-35z"></path></g></g><g transform="matrix(0.9064010381698608,0,0,1,274.74395751953125,256)" opacity="1" style="display: block;"><g opacity="1" transform="matrix(1,0,0,1,0,0)"><path fill="rgb(59,130,246)" fill-opacity="1" d=" M40,0 C40,0 40,0 40,0 C40,2.2076001167297363 38.20759963989258,4 36,4 C36,4 -36,4 -36,4 C-38.20759963989258,4 -40,2.2076001167297363 -40,0 C-40,0 -40,0 -40,0 C-40,-2.2076001167297363 -38.20759963989258,-4 -36,-4 C-36,-4 36,-4 36,-4 C38.20759963989258,-4 40,-2.2076001167297363 40,0z"></path></g></g><g transform="matrix(1,0,0,1,256,256)" opacity="1" style="display: block;"><g opacity="1" transform="matrix(1,0,0,1,0,0)"><path fill="rgb(59,130,246)" fill-opacity="1" d=" M0,-35 C19.316499710083008,-35 35,-19.316499710083008 35,0 C35,19.316499710083008 19.316499710083008,35 0,35 C-19.316499710083008,35 -35,19.316499710083008 -35,0 C-35,-19.316499710083008 -19.316499710083008,-35 0,-35z"></path></g></g><g transform="matrix(1,0,0,1,161,256)" opacity="1" style="display: block;"><g opacity="1" transform="matrix(1,0,0,1,0,0)"><path fill="rgb(59,130,246)" fill-opacity="1" d=" M40,0 C40,0 40,0 40,0 C40,2.2076001167297363 38.20759963989258,4 36,4 C36,4 -36,4 -36,4 C-38.20759963989258,4 -40,2.2076001167297363 -40,0 C-40,0 -40,0 -40,0 C-40,-2.2076001167297363 -38.20759963989258,-4 -36,-4 C-36,-4 36,-4 36,-4 C38.20759963989258,-4 40,-2.2076001167297363 40,0z"></path></g></g><g transform="matrix(1,0,0,1,146,256)" opacity="1" style="display: block;"><g opacity="1" transform="matrix(1,0,0,1,0,0)"><path fill="rgb(59,130,246)" fill-opacity="1" d=" M0,-35 C19.316499710083008,-35 35,-19.316499710083008 35,0 C35,19.316499710083008 19.316499710083008,35 0,35 C-19.316499710083008,35 -35,19.316499710083008 -35,0 C-35,-19.316499710083008 -19.316499710083008,-35 0,-35z"></path></g></g></g></svg>