<svg xmlns="http://www.w3.org/2000/svg" xmlns:xlink="http://www.w3.org/1999/xlink" viewBox="0 0 512 512" width="512" height="512" preserveAspectRatio="xMidYMid meet" style="width: 100%; height: 100%; transform: translate3d(0px, 0px, 0px); content-visibility: visible;"><defs><clipPath id="__lottie_element_2"><rect width="512" height="512" x="0" y="0"></rect></clipPath></defs><g clip-path="url(#__lottie_element_2)"><g transform="matrix(0.5258395075798035,0,0,0.5258395075798035,356,256)" opacity="1" style="display: block;"><g opacity="1" transform="matrix(1,0,0,1,0,0)"><path fill="rgb(59,130,246)" fill-opacity="1" d=" M0,-32 C17.66080093383789,-32 32,-17.66080093383789 32,0 C32,17.66080093383789 17.66080093383789,32 0,32 C-17.66080093383789,32 -32,17.66080093383789 -32,0 C-32,-17.66080093383789 -17.66080093383789,-32 0,-32z"></path></g></g><g transform="matrix(1,0,0,1,306,256)" opacity="1" style="display: block;"><g opacity="1" transform="matrix(1,0,0,1,0,0)"><path fill="rgb(55,65,81)" fill-opacity="1" d=" M38,0 C38,0 38,0 38,0 C38,1.6556999683380127 36.65570068359375,3 35,3 C35,3 -35,3 -35,3 C-36.65570068359375,3 -38,1.6556999683380127 -38,0 C-38,0 -38,0 -38,0 C-38,-1.6556999683380127 -36.65570068359375,-3 -35,-3 C-35,-3 35,-3 35,-3 C36.65570068359375,-3 38,-1.6556999683380127 38,0z"></path></g></g><g transform="matrix(1,0,0,1,256,256)" opacity="1" style="display: block;"><g opacity="1" transform="matrix(1,0,0,1,0,0)"><path fill="rgb(59,130,246)" fill-opacity="1" d=" M0,-32 C17.66080093383789,-32 32,-17.66080093383789 32,0 C32,17.66080093383789 17.66080093383789,32 0,32 C-17.66080093383789,32 -32,17.66080093383789 -32,0 C-32,-17.66080093383789 -17.66080093383789,-32 0,-32z"></path></g></g><g transform="matrix(1,0,0,1,206,256)" opacity="1" style="display: block;"><g opacity="1" transform="matrix(1,0,0,1,0,0)"><path fill="rgb(55,65,81)" fill-opacity="1" d=" M38,0 C38,0 38,0 38,0 C38,1.6556999683380127 36.65570068359375,3 35,3 C35,3 -35,3 -35,3 C-36.65570068359375,3 -38,1.6556999683380127 -38,0 C-38,0 -38,0 -38,0 C-38,-1.6556999683380127 -36.65570068359375,-3 -35,-3 C-35,-3 35,-3 35,-3 C36.65570068359375,-3 38,-1.6556999683380127 38,0z"></path></g></g><g transform="matrix(1,0,0,1,156,256)" opacity="1" style="display: block;"><g opacity="1" transform="matrix(1,0,0,1,0,0)"><path fill="rgb(59,130,246)" fill-opacity="1" d=" M0,-32 C17.66080093383789,-32 32,-17.66080093383789 32,0 C32,17.66080093383789 17.66080093383789,32 0,32 C-17.66080093383789,32 -32,17.66080093383789 -32,0 C-32,-17.66080093383789 -17.66080093383789,-32 0,-32z"></path></g></g></g></svg>