<svg xmlns="http://www.w3.org/2000/svg" xmlns:xlink="http://www.w3.org/1999/xlink" viewBox="0 0 512 512" width="512" height="512" preserveAspectRatio="xMidYMid meet" style="width: 100%; height: 100%; transform: translate3d(0px, 0px, 0px); content-visibility: visible;"><defs><clipPath id="__lottie_element_2"><rect width="512" height="512" x="0" y="0"></rect></clipPath></defs><g clip-path="url(#__lottie_element_2)"><g transform="matrix(0.01726890727877617,0,0,1,310,336)" opacity="1" style="display: block;"><g opacity="1" transform="matrix(1,0,0,1,0,0)"><path fill="rgb(156,163,175)" fill-opacity="1" d=" M65,0 C65,0 65,0 65,0 C65,3.3113999366760254 62.3114013671875,6 59,6 C59,6 -59,6 -59,6 C-62.3114013671875,6 -65,3.3113999366760254 -65,0 C-65,0 -65,0 -65,0 C-65,-3.3113999366760254 -62.3114013671875,-6 -59,-6 C-59,-6 59,-6 59,-6 C62.3114013671875,-6 65,-3.3113999366760254 65,0z"></path></g></g><g transform="matrix(1.0553045272827148,0,0,1.0553045272827148,200,336)" opacity="1" style="display: block;"><g opacity="1" transform="matrix(1,0,0,1,0,0)"><path fill="rgb(16,185,129)" fill-opacity="1" d=" M0,-25 C13.797499656677246,-25 25,-13.797499656677246 25,0 C25,13.797499656677246 13.797499656677246,25 0,25 C-13.797499656677246,25 -25,13.797499656677246 -25,0 C-25,-13.797499656677246 -13.797499656677246,-25 0,-25z"></path></g></g><g transform="matrix(1,0,0,1,310,256)" opacity="1" style="display: block;"><g opacity="1" transform="matrix(1,0,0,1,0,0)"><path fill="rgb(156,163,175)" fill-opacity="1" d=" M65,0 C65,0 65,0 65,0 C65,3.3113999366760254 62.3114013671875,6 59,6 C59,6 -59,6 -59,6 C-62.3114013671875,6 -65,3.3113999366760254 -65,0 C-65,0 -65,0 -65,0 C-65,-3.3113999366760254 -62.3114013671875,-6 -59,-6 C-59,-6 59,-6 59,-6 C62.3114013671875,-6 65,-3.3113999366760254 65,0z"></path></g></g><g transform="matrix(1,0,0,1,200,256)" opacity="1" style="display: block;"><g opacity="1" transform="matrix(1,0,0,1,0,0)"><path fill="rgb(16,185,129)" fill-opacity="1" d=" M0,-25 C13.797499656677246,-25 25,-13.797499656677246 25,0 C25,13.797499656677246 13.797499656677246,25 0,25 C-13.797499656677246,25 -25,13.797499656677246 -25,0 C-25,-13.797499656677246 -13.797499656677246,-25 0,-25z"></path></g></g><g transform="matrix(1,0,0,1,310,176)" opacity="1" style="display: block;"><g opacity="1" transform="matrix(1,0,0,1,0,0)"><path fill="rgb(156,163,175)" fill-opacity="1" d=" M65,0 C65,0 65,0 65,0 C65,3.3113999366760254 62.3114013671875,6 59,6 C59,6 -59,6 -59,6 C-62.3114013671875,6 -65,3.3113999366760254 -65,0 C-65,0 -65,0 -65,0 C-65,-3.3113999366760254 -62.3114013671875,-6 -59,-6 C-59,-6 59,-6 59,-6 C62.3114013671875,-6 65,-3.3113999366760254 65,0z"></path></g></g><g transform="matrix(1,0,0,1,200,176)" opacity="1" style="display: block;"><g opacity="1" transform="matrix(1,0,0,1,0,0)"><path fill="rgb(16,185,129)" fill-opacity="1" d=" M0,-25 C13.797499656677246,-25 25,-13.797499656677246 25,0 C25,13.797499656677246 13.797499656677246,25 0,25 C-13.797499656677246,25 -25,13.797499656677246 -25,0 C-25,-13.797499656677246 -13.797499656677246,-25 0,-25z"></path></g></g></g></svg>