<svg xmlns="http://www.w3.org/2000/svg" xmlns:xlink="http://www.w3.org/1999/xlink" viewBox="0 0 512 512" width="512" height="512" preserveAspectRatio="xMidYMid meet" style="width: 100%; height: 100%; transform: translate3d(0px, 0px, 0px); content-visibility: visible;"><defs><clipPath id="__lottie_element_2"><rect width="512" height="512" x="0" y="0"></rect></clipPath></defs><g clip-path="url(#__lottie_element_2)"><g transform="matrix(0,0,0,1,330,326)" opacity="1" style="display: block;"><g opacity="1" transform="matrix(1,0,0,1,0,0)"><path fill="rgb(107,114,128)" fill-opacity="1" d=" M75,0 C75,0 75,0 75,0 C75,4.415200233459473 71.41519927978516,8 67,8 C67,8 -67,8 -67,8 C-71.41519927978516,8 -75,4.415200233459473 -75,0 C-75,0 -75,0 -75,0 C-75,-4.415200233459473 -71.41519927978516,-8 -67,-8 C-67,-8 67,-8 67,-8 C71.41519927978516,-8 75,-4.415200233459473 75,0z"></path></g></g><g transform="matrix(0.5952858328819275,0,0,0.5952858328819275,200,326)" opacity="1" style="display: block;"><g opacity="1" transform="matrix(1,0,0,1,0,0)"><path fill="rgb(16,185,129)" fill-opacity="1" d=" M0,-28 C15.453200340270996,-28 28,-15.453200340270996 28,0 C28,15.453200340270996 15.453200340270996,28 0,28 C-15.453200340270996,28 -28,15.453200340270996 -28,0 C-28,-15.453200340270996 -15.453200340270996,-28 0,-28z"></path></g></g><g transform="matrix(1,0,0,1,255,256)" opacity="1" style="display: block;"><g opacity="1" transform="matrix(1,0,0,1,0,0)"><path fill="rgb(107,114,128)" fill-opacity="1" d=" M75,0 C75,0 75,0 75,0 C75,4.415200233459473 71.41519927978516,8 67,8 C67,8 -67,8 -67,8 C-71.41519927978516,8 -75,4.415200233459473 -75,0 C-75,0 -75,0 -75,0 C-75,-4.415200233459473 -71.41519927978516,-8 -67,-8 C-67,-8 67,-8 67,-8 C71.41519927978516,-8 75,-4.415200233459473 75,0z"></path></g></g><g transform="matrix(1,0,0,1,200,256)" opacity="1" style="display: block;"><g opacity="1" transform="matrix(1,0,0,1,0,0)"><path fill="rgb(16,185,129)" fill-opacity="1" d=" M0,-28 C15.453200340270996,-28 28,-15.453200340270996 28,0 C28,15.453200340270996 15.453200340270996,28 0,28 C-15.453200340270996,28 -28,15.453200340270996 -28,0 C-28,-15.453200340270996 -15.453200340270996,-28 0,-28z"></path></g></g><g transform="matrix(1,0,0,1,255,186)" opacity="1" style="display: block;"><g opacity="1" transform="matrix(1,0,0,1,0,0)"><path fill="rgb(107,114,128)" fill-opacity="1" d=" M75,0 C75,0 75,0 75,0 C75,4.415200233459473 71.41519927978516,8 67,8 C67,8 -67,8 -67,8 C-71.41519927978516,8 -75,4.415200233459473 -75,0 C-75,0 -75,0 -75,0 C-75,-4.415200233459473 -71.41519927978516,-8 -67,-8 C-67,-8 67,-8 67,-8 C71.41519927978516,-8 75,-4.415200233459473 75,0z"></path></g></g><g transform="matrix(1,0,0,1,200,186)" opacity="1" style="display: block;"><g opacity="1" transform="matrix(1,0,0,1,0,0)"><path fill="rgb(16,185,129)" fill-opacity="1" d=" M0,-28 C15.453200340270996,-28 28,-15.453200340270996 28,0 C28,15.453200340270996 15.453200340270996,28 0,28 C-15.453200340270996,28 -28,15.453200340270996 -28,0 C-28,-15.453200340270996 -15.453200340270996,-28 0,-28z"></path></g></g></g></svg>