<svg xmlns="http://www.w3.org/2000/svg" xmlns:xlink="http://www.w3.org/1999/xlink" viewBox="0 0 512 512" width="512" height="512" preserveAspectRatio="xMidYMid meet" style="width: 100%; height: 100%; transform: translate3d(0px, 0px, 0px); content-visibility: visible;"><defs><clipPath id="__lottie_element_2"><rect width="512" height="512" x="0" y="0"></rect></clipPath></defs><g clip-path="url(#__lottie_element_2)"><g transform="matrix(1,0,0,1,366,256)" opacity="1" style="display: block;"><g opacity="1" transform="matrix(1,0,0,1,0,0)"><path stroke-linecap="round" stroke-linejoin="round" fill-opacity="0" stroke="rgb(51,65,85)" stroke-opacity="1" stroke-width="4" d=" M35,-17 C35,-17 35,17 35,17 C35,26.934200286865234 26.934200286865234,35 17,35 C17,35 -17,35 -17,35 C-26.934200286865234,35 -35,26.934200286865234 -35,17 C-35,17 -35,-17 -35,-17 C-35,-26.934200286865234 -26.934200286865234,-35 -17,-35 C-17,-35 17,-35 17,-35 C26.934200286865234,-35 35,-26.934200286865234 35,-17z"></path><path fill="rgb(30,41,59)" fill-opacity="1" d=" M35,-17 C35,-17 35,17 35,17 C35,26.934200286865234 26.934200286865234,35 17,35 C17,35 -17,35 -17,35 C-26.934200286865234,35 -35,26.934200286865234 -35,17 C-35,17 -35,-17 -35,-17 C-35,-26.934200286865234 -26.934200286865234,-35 -17,-35 C-17,-35 17,-35 17,-35 C26.934200286865234,-35 35,-26.934200286865234 35,-17z"></path></g></g><g transform="matrix(1,0,0,1,256,256)" opacity="1" style="display: block;"><g opacity="1" transform="matrix(1,0,0,1,0,0)"><path stroke-linecap="round" stroke-linejoin="round" fill-opacity="0" stroke="rgb(51,65,85)" stroke-opacity="1" stroke-width="4" d=" M35,-17 C35,-17 35,17 35,17 C35,26.934200286865234 26.934200286865234,35 17,35 C17,35 -17,35 -17,35 C-26.934200286865234,35 -35,26.934200286865234 -35,17 C-35,17 -35,-17 -35,-17 C-35,-26.934200286865234 -26.934200286865234,-35 -17,-35 C-17,-35 17,-35 17,-35 C26.934200286865234,-35 35,-26.934200286865234 35,-17z"></path><path fill="rgb(30,41,59)" fill-opacity="1" d=" M35,-17 C35,-17 35,17 35,17 C35,26.934200286865234 26.934200286865234,35 17,35 C17,35 -17,35 -17,35 C-26.934200286865234,35 -35,26.934200286865234 -35,17 C-35,17 -35,-17 -35,-17 C-35,-26.934200286865234 -26.934200286865234,-35 -17,-35 C-17,-35 17,-35 17,-35 C26.934200286865234,-35 35,-26.934200286865234 35,-17z"></path></g></g><g transform="matrix(1,0,0,1,146,256)" opacity="1" style="display: block;"><g opacity="1" transform="matrix(1,0,0,1,0,0)"><path stroke-linecap="round" stroke-linejoin="round" fill-opacity="0" stroke="rgb(51,65,85)" stroke-opacity="1" stroke-width="4" d=" M35,-17 C35,-17 35,17 35,17 C35,26.934200286865234 26.934200286865234,35 17,35 C17,35 -17,35 -17,35 C-26.934200286865234,35 -35,26.934200286865234 -35,17 C-35,17 -35,-17 -35,-17 C-35,-26.934200286865234 -26.934200286865234,-35 -17,-35 C-17,-35 17,-35 17,-35 C26.934200286865234,-35 35,-26.934200286865234 35,-17z"></path><path fill="rgb(30,41,59)" fill-opacity="1" d=" M35,-17 C35,-17 35,17 35,17 C35,26.934200286865234 26.934200286865234,35 17,35 C17,35 -17,35 -17,35 C-26.934200286865234,35 -35,26.934200286865234 -35,17 C-35,17 -35,-17 -35,-17 C-35,-26.934200286865234 -26.934200286865234,-35 -17,-35 C-17,-35 17,-35 17,-35 C26.934200286865234,-35 35,-26.934200286865234 35,-17z"></path></g></g><g transform="matrix(1,0,0,1,311,256)" opacity="1" style="display: block;"><g opacity="1" transform="matrix(1,0,0,1,0,0)"><path fill="rgb(245,158,11)" fill-opacity="0.12" d=" M0,-55 C30.35449981689453,-55 55,-30.35449981689453 55,0 C55,30.35449981689453 30.35449981689453,55 0,55 C-30.35449981689453,55 -55,30.35449981689453 -55,0 C-55,-30.35449981689453 -30.35449981689453,-55 0,-55z"></path></g></g><g transform="matrix(1,0,0,1,311,256)" opacity="1" style="display: block;"><g opacity="1" transform="matrix(1,0,0,1,0,0)"><path stroke-linecap="round" stroke-linejoin="round" fill-opacity="0" stroke="rgb(245,158,11)" stroke-opacity="1" stroke-width="5" d=" M0,-55 C30.35449981689453,-55 55,-30.35449981689453 55,0 C55,30.35449981689453 30.35449981689453,55 0,55 C-30.35449981689453,55 -55,30.35449981689453 -55,0 C-55,-30.35449981689453 -30.35449981689453,-55 0,-55z"></path></g></g></g></svg>