<svg xmlns="http://www.w3.org/2000/svg" xmlns:xlink="http://www.w3.org/1999/xlink" viewBox="0 0 512 512" width="512" height="512" preserveAspectRatio="xMidYMid meet" style="width: 100%; height: 100%; transform: translate3d(0px, 0px, 0px); content-visibility: visible;"><defs><clipPath id="__lottie_element_2"><rect width="512" height="512" x="0" y="0"></rect></clipPath></defs><g clip-path="url(#__lottie_element_2)"><g transform="matrix(1,0,0,1,356,256)" opacity="1" style="display: block;"><g opacity="1" transform="matrix(1,0,0,1,0,0)"><path fill="rgb(55,65,81)" fill-opacity="1" d=" M30,-14 C30,-14 30,14 30,14 C30,22.830400466918945 22.830400466918945,30 14,30 C14,30 -14,30 -14,30 C-22.830400466918945,30 -30,22.830400466918945 -30,14 C-30,14 -30,-14 -30,-14 C-30,-22.830400466918945 -22.830400466918945,-30 -14,-30 C-14,-30 14,-30 14,-30 C22.830400466918945,-30 30,-22.830400466918945 30,-14z"></path></g></g><g transform="matrix(1,0,0,1,256,256)" opacity="1" style="display: block;"><g opacity="1" transform="matrix(1,0,0,1,0,0)"><path fill="rgb(55,65,81)" fill-opacity="1" d=" M30,-14 C30,-14 30,14 30,14 C30,22.830400466918945 22.830400466918945,30 14,30 C14,30 -14,30 -14,30 C-22.830400466918945,30 -30,22.830400466918945 -30,14 C-30,14 -30,-14 -30,-14 C-30,-22.830400466918945 -22.830400466918945,-30 -14,-30 C-14,-30 14,-30 14,-30 C22.830400466918945,-30 30,-22.830400466918945 30,-14z"></path></g></g><g transform="matrix(1,0,0,1,156,256)" opacity="1" style="display: block;"><g opacity="1" transform="matrix(1,0,0,1,0,0)"><path fill="rgb(55,65,81)" fill-opacity="1" d=" M30,-14 C30,-14 30,14 30,14 C30,22.830400466918945 22.830400466918945,30 14,30 C14,30 -14,30 -14,30 C-22.830400466918945,30 -30,22.830400466918945 -30,14 C-30,14 -30,-14 -30,-14 C-30,-22.830400466918945 -22.830400466918945,-30 -14,-30 C-14,-30 14,-30 14,-30 C22.830400466918945,-30 30,-22.830400466918945 30,-14z"></path></g></g><g transform="matrix(1,0,0,1,306,256)" opacity="1" style="display: block;"><g opacity="1" transform="matrix(1,0,0,1,0,0)"><path stroke-linecap="round" stroke-linejoin="round" fill-opacity="0" stroke="rgb(59,130,246)" stroke-opacity="1" stroke-width="4" d=" M0,-50 C27.594999313354492,-50 50,-27.594999313354492 50,0 C50,27.594999313354492 27.594999313354492,50 0,50 C-27.594999313354492,50 -50,27.594999313354492 -50,0 C-50,-27.594999313354492 -27.594999313354492,-50 0,-50z"></path></g></g></g></svg>