<svg xmlns="http://www.w3.org/2000/svg" xmlns:xlink="http://www.w3.org/1999/xlink" viewBox="0 0 512 512" width="512" height="512" preserveAspectRatio="xMidYMid meet" style="width: 100%; height: 100%; transform: translate3d(0px, 0px, 0px); content-visibility: visible;"><defs><clipPath id="__lottie_element_2"><rect width="512" height="512" x="0" y="0"></rect></clipPath></defs><g clip-path="url(#__lottie_element_2)"><g transform="matrix(0.9637267589569092,-0.2668907642364502,0.2668907642364502,0.9637267589569092,242.65545654296875,231.81365966796875)" opacity="1" style="display: block;"><g opacity="1" transform="matrix(1,0,0,1,0,0)"><path fill="rgb(245,158,11)" fill-opacity="1" d=" M35,-15 C35,-15 35,15 35,15 C35,34.31650161743164 19.316499710083008,50 0,50 C0,50 0,50 0,50 C-19.316499710083008,50 -35,34.31650161743164 -35,15 C-35,15 -35,-15 -35,-15 C-35,-34.31650161743164 -19.316499710083008,-50 0,-50 C0,-50 0,-50 0,-50 C19.316499710083008,-50 35,-34.31650161743164 35,-15z"></path></g></g><g transform="matrix(0.7269388437271118,0,0,0.7269388437271118,256,256)" opacity="0.6405437774498755" style="display: block;"><g opacity="1" transform="matrix(1,0,0,1,0,0)"><path stroke-linecap="round" stroke-linejoin="round" fill-opacity="0" stroke="rgb(59,130,246)" stroke-opacity="1" stroke-width="3" d=" M0,-70 C38.632999420166016,-70 70,-38.632999420166016 70,0 C70,38.632999420166016 38.632999420166016,70 0,70 C-38.632999420166016,70 -70,38.632999420166016 -70,0 C-70,-38.632999420166016 -38.632999420166016,-70 0,-70z"></path></g></g><g transform="matrix(1.528327226638794,0,0,1.528327226638794,256,256)" opacity="0.15945622255012454" style="display: block;"><g opacity="1" transform="matrix(1,0,0,1,0,0)"><path stroke-linecap="round" stroke-linejoin="round" fill-opacity="0" stroke="rgb(59,130,246)" stroke-opacity="1" stroke-width="3" d=" M0,-50 C27.594999313354492,-50 50,-27.594999313354492 50,0 C50,27.594999313354492 27.594999313354492,50 0,50 C-27.594999313354492,50 -50,27.594999313354492 -50,0 C-50,-27.594999313354492 -27.594999313354492,-50 0,-50z"></path></g></g><g transform="matrix(0.30000001192092896,0,0,0.30000001192092896,256,256)" opacity="0.8" style="display: none;"><g opacity="1" transform="matrix(1,0,0,1,0,0)"><path stroke-linecap="round" stroke-linejoin="round" fill-opacity="0" stroke="rgb(59,130,246)" stroke-opacity="1" stroke-width="3" d=" M0,-30 C16.55699920654297,-30 30,-16.55699920654297 30,0 C30,16.55699920654297 16.55699920654297,30 0,30 C-16.55699920654297,30 -30,16.55699920654297 -30,0 C-30,-16.55699920654297 -16.55699920654297,-30 0,-30z"></path></g></g></g></svg>