<svg xmlns="http://www.w3.org/2000/svg" xmlns:xlink="http://www.w3.org/1999/xlink" viewBox="0 0 512 512" width="512" height="512" preserveAspectRatio="xMidYMid meet" style="width: 100%; height: 100%; transform: translate3d(0px, 0px, 0px); content-visibility: visible;"><defs><clipPath id="__lottie_element_2"><rect width="512" height="512" x="0" y="0"></rect></clipPath></defs><g clip-path="url(#__lottie_element_2)"><g transform="matrix(0.9981656074523926,-0.0605425164103508,0.0605425164103508,0.9981656074523926,-19.509429931640625,16.104217529296875)" opacity="1" style="display: block;"><g opacity="1" transform="matrix(1,0,0,1,0,0)"><path fill="rgb(245,158,11)" fill-opacity="1" d=" M316,250 C316,250 316,286 316,286 C316,302.5570068359375 302.5570068359375,316 286,316 C286,316 226,316 226,316 C209.4429931640625,316 196,302.5570068359375 196,286 C196,286 196,250 196,250 C196,233.4429931640625 209.4429931640625,220 226,220 C226,220 286,220 286,220 C302.5570068359375,220 316,233.4429931640625 316,250z"></path></g><g opacity="1" transform="matrix(0.5735764503479004,0.8191520571708679,-0.8191520571708679,0.5735764503479004,0,0)"><path fill="rgb(245,158,11)" fill-opacity="1" d=" M219,252 C219,252 219,284 219,284 C219,291.1747131347656 213.17469787597656,297 206,297 C206,297 206,297 206,297 C198.82530212402344,297 193,291.1747131347656 193,284 C193,284 193,252 193,252 C193,244.82530212402344 198.82530212402344,239 206,239 C206,239 206,239 206,239 C213.17469787597656,239 219,244.82530212402344 219,252z"></path></g><g opacity="1" transform="matrix(1,0,0,1,0,0)"><path fill="rgb(245,158,11)" fill-opacity="1" d=" M308,203 C308,203 308,235 308,235 C308,242.17469787597656 302.1747131347656,248 295,248 C295,248 295,248 295,248 C287.8252868652344,248 282,242.17469787597656 282,235 C282,235 282,203 282,203 C282,195.82530212402344 287.8252868652344,190 295,190 C295,190 295,190 295,190 C302.1747131347656,190 308,195.82530212402344 308,203z"></path></g><g opacity="1" transform="matrix(1,0,0,1,0,0)"><path fill="rgb(245,158,11)" fill-opacity="1" d=" M282,191 C282,191 282,235 282,235 C282,242.17469787597656 276.1747131347656,248 269,248 C269,248 269,248 269,248 C261.8252868652344,248 256,242.17469787597656 256,235 C256,235 256,191 256,191 C256,183.82530212402344 261.8252868652344,178 269,178 C269,178 269,178 269,178 C276.1747131347656,178 282,183.82530212402344 282,191z"></path></g><g opacity="1" transform="matrix(1,0,0,1,0,0)"><path fill="rgb(245,158,11)" fill-opacity="1" d=" M256,187 C256,187 256,235 256,235 C256,242.17469787597656 250.17469787597656,248 243,248 C243,248 243,248 243,248 C235.82530212402344,248 230,242.17469787597656 230,235 C230,235 230,187 230,187 C230,179.82530212402344 235.82530212402344,174 243,174 C243,174 243,174 243,174 C250.17469787597656,174 256,179.82530212402344 256,187z"></path></g><g opacity="1" transform="matrix(1,0,0,1,0,0)"><path fill="rgb(245,158,11)" fill-opacity="1" d=" M230,199 C230,199 230,235 230,235 C230,242.17469787597656 224.17469787597656,248 217,248 C217,248 217,248 217,248 C209.82530212402344,248 204,242.17469787597656 204,235 C204,235 204,199 204,199 C204,191.82530212402344 209.82530212402344,186 217,186 C217,186 217,186 217,186 C224.17469787597656,186 230,191.82530212402344 230,199z"></path></g></g><g transform="matrix(0.587525486946106,0,0,0.587525486946106,256,250)" opacity="0.6265534721321807" style="display: block;"><g opacity="1" transform="matrix(1,0,0,1,0,0)"><path stroke-linecap="round" stroke-linejoin="round" fill-opacity="0" stroke="rgb(59,130,246)" stroke-opacity="1" stroke-width="3" d=" M0,-75 C41.39250183105469,-75 75,-41.39250183105469 75,0 C75,41.39250183105469 41.39250183105469,75 0,75 C-41.39250183105469,75 -75,41.39250183105469 -75,0 C-75,-41.39250183105469 -41.39250183105469,-75 0,-75z"></path></g></g><g transform="matrix(1.6263551712036133,0,0,1.6263551712036133,256,250)" opacity="0.24688181482576058" style="display: block;"><g opacity="1" transform="matrix(1,0,0,1,0,0)"><path stroke-linecap="round" stroke-linejoin="round" fill-opacity="0" stroke="rgb(59,130,246)" stroke-opacity="1" stroke-width="3" d=" M0,-60 C33.11399841308594,-60 60,-33.11399841308594 60,0 C60,33.11399841308594 33.11399841308594,60 0,60 C-33.11399841308594,60 -60,33.11399841308594 -60,0 C-60,-33.11399841308594 -33.11399841308594,-60 0,-60z"></path></g></g><g transform="matrix(0.4000000059604645,0,0,0.4000000059604645,256,250)" opacity="0.7000000000000001" style="display: none;"><g opacity="1" transform="matrix(1,0,0,1,0,0)"><path stroke-linecap="round" stroke-linejoin="round" fill-opacity="0" stroke="rgb(59,130,246)" stroke-opacity="1" stroke-width="3" d=" M0,-45 C24.835500717163086,-45 45,-24.835500717163086 45,0 C45,24.835500717163086 24.835500717163086,45 0,45 C-24.835500717163086,45 -45,24.835500717163086 -45,0 C-45,-24.835500717163086 -24.835500717163086,-45 0,-45z"></path></g></g></g></svg>