<svg xmlns="http://www.w3.org/2000/svg" xmlns:xlink="http://www.w3.org/1999/xlink" viewBox="0 0 512 512" width="512" height="512" preserveAspectRatio="xMidYMid meet" style="width: 100%; height: 100%; transform: translate3d(0px, 0px, 0px); content-visibility: visible;"><defs><clipPath id="__lottie_element_2"><rect width="512" height="512" x="0" y="0"></rect></clipPath></defs><g clip-path="url(#__lottie_element_2)"><g transform="matrix(1.29581618309021,0,0,1.29581618309021,336,256)" opacity="0.9941079125483442" style="display: block;"><g opacity="1" transform="matrix(1,0,0,1,0,0)"><path fill="rgb(168,85,247)" fill-opacity="1" d=" M0,-22 C12.141799926757812,-22 22,-12.141799926757812 22,0 C22,12.141799926757812 12.141799926757812,22 0,22 C-12.141799926757812,22 -22,12.141799926757812 -22,0 C-22,-12.141799926757812 -12.141799926757812,-22 0,-22z"></path></g></g><g transform="matrix(0.7121615409851074,0,0,0.7121615409851074,256,256)" opacity="0.4732963299327921" style="display: block;"><g opacity="1" transform="matrix(1,0,0,1,0,0)"><path fill="rgb(168,85,247)" fill-opacity="1" d=" M0,-22 C12.141799926757812,-22 22,-12.141799926757812 22,0 C22,12.141799926757812 12.141799926757812,22 0,22 C-12.141799926757812,22 -22,12.141799926757812 -22,0 C-22,-12.141799926757812 -12.141799926757812,-22 0,-22z"></path></g></g><g transform="matrix(0.6000000238418579,0,0,0.6000000238418579,176,256)" opacity="0.35000000000000003" style="display: block;"><g opacity="1" transform="matrix(1,0,0,1,0,0)"><path fill="rgb(168,85,247)" fill-opacity="1" d=" M0,-22 C12.141799926757812,-22 22,-12.141799926757812 22,0 C22,12.141799926757812 12.141799926757812,22 0,22 C-12.141799926757812,22 -22,12.141799926757812 -22,0 C-22,-12.141799926757812 -12.141799926757812,-22 0,-22z"></path></g></g></g></svg>