<svg xmlns="http://www.w3.org/2000/svg" xmlns:xlink="http://www.w3.org/1999/xlink" viewBox="0 0 512 512" width="512" height="512" preserveAspectRatio="xMidYMid meet" style="width: 100%; height: 100%; transform: translate3d(0px, 0px, 0px); content-visibility: visible;"><defs><clipPath id="__lottie_element_2"><rect width="512" height="512" x="0" y="0"></rect></clipPath></defs><g clip-path="url(#__lottie_element_2)"><g transform="matrix(1.2966190576553345,0,0,1.2966190576553345,336,256)" opacity="0.9955760716730029" style="display: block;"><g opacity="1" transform="matrix(1,0,0,1,0,0)"><path fill="rgb(168,85,247)" fill-opacity="1" d=" M0,-18 C9.934200286865234,-18 18,-9.934200286865234 18,0 C18,9.934200286865234 9.934200286865234,18 0,18 C-9.934200286865234,18 -18,9.934200286865234 -18,0 C-18,-9.934200286865234 -9.934200286865234,-18 0,-18z"></path></g></g><g transform="matrix(0.7788399457931519,0,0,0.7788399457931519,256,256)" opacity="0.5696071806262156" style="display: block;"><g opacity="1" transform="matrix(1,0,0,1,0,0)"><path fill="rgb(168,85,247)" fill-opacity="1" d=" M0,-18 C9.934200286865234,-18 18,-9.934200286865234 18,0 C18,9.934200286865234 9.934200286865234,18 0,18 C-9.934200286865234,18 -18,9.934200286865234 -18,0 C-18,-9.934200286865234 -9.934200286865234,-18 0,-18z"></path></g></g><g transform="matrix(0.6000000238418579,0,0,0.6000000238418579,176,256)" opacity="0.4" style="display: block;"><g opacity="1" transform="matrix(1,0,0,1,0,0)"><path fill="rgb(168,85,247)" fill-opacity="1" d=" M0,-18 C9.934200286865234,-18 18,-9.934200286865234 18,0 C18,9.934200286865234 9.934200286865234,18 0,18 C-9.934200286865234,18 -18,9.934200286865234 -18,0 C-18,-9.934200286865234 -9.934200286865234,-18 0,-18z"></path></g></g></g></svg>