<svg xmlns="http://www.w3.org/2000/svg" xmlns:xlink="http://www.w3.org/1999/xlink" viewBox="0 0 512 512" width="512" height="512" preserveAspectRatio="xMidYMid meet" style="width: 100%; height: 100%; transform: translate3d(0px, 0px, 0px); content-visibility: visible;"><defs><clipPath id="__lottie_element_2"><rect width="512" height="512" x="0" y="0"></rect></clipPath></defs><g clip-path="url(#__lottie_element_2)"><g transform="matrix(1,0,0,1,213.90481567382812,154.3732452392578)" opacity="1" style="display: block;"><g opacity="1" transform="matrix(0.9238795042037964,-0.3826834261417389,0.3826834261417389,0.9238795042037964,0,0)"><path fill="rgb(59,53,102)" fill-opacity="1" d=" M3,-40 C3,-40 3,40 3,40 C3,41.65570068359375 1.6556999683380127,43 0,43 C0,43 0,43 0,43 C-1.6556999683380127,43 -3,41.65570068359375 -3,40 C-3,40 -3,-40 -3,-40 C-3,-41.65570068359375 -1.6556999683380127,-43 0,-43 C0,-43 0,-43 0,-43 C1.6556999683380127,-43 3,-41.65570068359375 3,-40z"></path></g></g><g transform="matrix(1,0,0,1,154.3732452392578,213.90481567382812)" opacity="1" style="display: block;"><g opacity="1" transform="matrix(0.3826834261417389,-0.9238795042037964,0.9238795042037964,0.3826834261417389,0,0)"><path fill="rgb(59,53,102)" fill-opacity="1" d=" M3,-40 C3,-40 3,40 3,40 C3,41.65570068359375 1.6556999683380127,43 0,43 C0,43 0,43 0,43 C-1.6556999683380127,43 -3,41.65570068359375 -3,40 C-3,40 -3,-40 -3,-40 C-3,-41.65570068359375 -1.6556999683380127,-43 0,-43 C0,-43 0,-43 0,-43 C1.6556999683380127,-43 3,-41.65570068359375 3,-40z"></path></g></g><g transform="matrix(1,0,0,1,154.3732452392578,298.0951843261719)" opacity="1" style="display: block;"><g opacity="1" transform="matrix(-0.3826834261417389,-0.9238795042037964,0.9238795042037964,-0.3826834261417389,0,0)"><path fill="rgb(59,53,102)" fill-opacity="1" d=" M3,-40 C3,-40 3,40 3,40 C3,41.65570068359375 1.6556999683380127,43 0,43 C0,43 0,43 0,43 C-1.6556999683380127,43 -3,41.65570068359375 -3,40 C-3,40 -3,-40 -3,-40 C-3,-41.65570068359375 -1.6556999683380127,-43 0,-43 C0,-43 0,-43 0,-43 C1.6556999683380127,-43 3,-41.65570068359375 3,-40z"></path></g></g><g transform="matrix(1,0,0,1,213.90481567382812,357.6267395019531)" opacity="1" style="display: block;"><g opacity="1" transform="matrix(-0.9238795042037964,-0.3826834261417389,0.3826834261417389,-0.9238795042037964,0,0)"><path fill="rgb(59,53,102)" fill-opacity="1" d=" M3,-40 C3,-40 3,40 3,40 C3,41.65570068359375 1.6556999683380127,43 0,43 C0,43 0,43 0,43 C-1.6556999683380127,43 -3,41.65570068359375 -3,40 C-3,40 -3,-40 -3,-40 C-3,-41.65570068359375 -1.6556999683380127,-43 0,-43 C0,-43 0,-43 0,-43 C1.6556999683380127,-43 3,-41.65570068359375 3,-40z"></path></g></g><g transform="matrix(1,0,0,1,298.0951843261719,357.6267395019531)" opacity="1" style="display: block;"><g opacity="1" transform="matrix(-0.9238795042037964,0.3826834261417389,-0.3826834261417389,-0.9238795042037964,0,0)"><path fill="rgb(59,53,102)" fill-opacity="1" d=" M3,-40 C3,-40 3,40 3,40 C3,41.65570068359375 1.6556999683380127,43 0,43 C0,43 0,43 0,43 C-1.6556999683380127,43 -3,41.65570068359375 -3,40 C-3,40 -3,-40 -3,-40 C-3,-41.65570068359375 -1.6556999683380127,-43 0,-43 C0,-43 0,-43 0,-43 C1.6556999683380127,-43 3,-41.65570068359375 3,-40z"></path></g></g><g transform="matrix(1,0,0,1,357.6267395019531,298.0951843261719)" opacity="1" style="display: block;"><g opacity="1" transform="matrix(-0.3826834261417389,0.9238795042037964,-0.9238795042037964,-0.3826834261417389,0,0)"><path fill="rgb(59,53,102)" fill-opacity="1" d=" M3,-40 C3,-40 3,40 3,40 C3,41.65570068359375 1.6556999683380127,43 0,43 C0,43 0,43 0,43 C-1.6556999683380127,43 -3,41.65570068359375 -3,40 C-3,40 -3,-40 -3,-40 C-3,-41.65570068359375 -1.6556999683380127,-43 0,-43 C0,-43 0,-43 0,-43 C1.6556999683380127,-43 3,-41.65570068359375 3,-40z"></path></g></g><g transform="matrix(1,0,0,1,357.6267395019531,213.90481567382812)" opacity="1" style="display: block;"><g opacity="1" transform="matrix(0.3826834261417389,0.9238795042037964,-0.9238795042037964,0.3826834261417389,0,0)"><path fill="rgb(59,53,102)" fill-opacity="1" d=" M3,-40 C3,-40 3,40 3,40 C3,41.65570068359375 1.6556999683380127,43 0,43 C0,43 0,43 0,43 C-1.6556999683380127,43 -3,41.65570068359375 -3,40 C-3,40 -3,-40 -3,-40 C-3,-41.65570068359375 -1.6556999683380127,-43 0,-43 C0,-43 0,-43 0,-43 C1.6556999683380127,-43 3,-41.65570068359375 3,-40z"></path></g></g><g transform="matrix(1,0,0,1,298.0951843261719,154.3732452392578)" opacity="1" style="display: block;"><g opacity="1" transform="matrix(0.9238795042037964,0.3826834261417389,-0.3826834261417389,0.9238795042037964,0,0)"><path fill="rgb(59,53,102)" fill-opacity="1" d=" M3,-40 C3,-40 3,40 3,40 C3,41.65570068359375 1.6556999683380127,43 0,43 C0,43 0,43 0,43 C-1.6556999683380127,43 -3,41.65570068359375 -3,40 C-3,40 -3,-40 -3,-40 C-3,-41.65570068359375 -1.6556999683380127,-43 0,-43 C0,-43 0,-43 0,-43 C1.6556999683380127,-43 3,-41.65570068359375 3,-40z"></path></g></g><g transform="matrix(1,0,0,1,178.21824645996094,178.21824645996094)" opacity="0.3" style="display: block;"><g opacity="1" transform="matrix(1,0,0,1,0,0)"><path fill="rgb(168,85,247)" fill-opacity="1" d=" M0,-12 C6.622799873352051,-12 12,-6.622799873352051 12,0 C12,6.622799873352051 6.622799873352051,12 0,12 C-6.622799873352051,12 -12,6.622799873352051 -12,0 C-12,-6.622799873352051 -6.622799873352051,-12 0,-12z"></path></g></g><g transform="matrix(1,0,0,1,146,256)" opacity="0.3" style="display: block;"><g opacity="1" transform="matrix(1,0,0,1,0,0)"><path fill="rgb(168,85,247)" fill-opacity="1" d=" M0,-12 C6.622799873352051,-12 12,-6.622799873352051 12,0 C12,6.622799873352051 6.622799873352051,12 0,12 C-6.622799873352051,12 -12,6.622799873352051 -12,0 C-12,-6.622799873352051 -6.622799873352051,-12 0,-12z"></path></g></g><g transform="matrix(1,0,0,1,178.21824645996094,333.78173828125)" opacity="0.3" style="display: block;"><g opacity="1" transform="matrix(1,0,0,1,0,0)"><path fill="rgb(168,85,247)" fill-opacity="1" d=" M0,-12 C6.622799873352051,-12 12,-6.622799873352051 12,0 C12,6.622799873352051 6.622799873352051,12 0,12 C-6.622799873352051,12 -12,6.622799873352051 -12,0 C-12,-6.622799873352051 -6.622799873352051,-12 0,-12z"></path></g></g><g transform="matrix(1,0,0,1,256,366)" opacity="1" style="display: block;"><g opacity="1" transform="matrix(1,0,0,1,0,0)"><path fill="rgb(168,85,247)" fill-opacity="1" d=" M0,-12 C6.622799873352051,-12 12,-6.622799873352051 12,0 C12,6.622799873352051 6.622799873352051,12 0,12 C-6.622799873352051,12 -12,6.622799873352051 -12,0 C-12,-6.622799873352051 -6.622799873352051,-12 0,-12z"></path></g></g><g transform="matrix(1,0,0,1,333.78173828125,333.78173828125)" opacity="0.3" style="display: block;"><g opacity="1" transform="matrix(1,0,0,1,0,0)"><path fill="rgb(168,85,247)" fill-opacity="1" d=" M0,-12 C6.622799873352051,-12 12,-6.622799873352051 12,0 C12,6.622799873352051 6.622799873352051,12 0,12 C-6.622799873352051,12 -12,6.622799873352051 -12,0 C-12,-6.622799873352051 -6.622799873352051,-12 0,-12z"></path></g></g><g transform="matrix(1,0,0,1,366,256)" opacity="0.3" style="display: block;"><g opacity="1" transform="matrix(1,0,0,1,0,0)"><path fill="rgb(168,85,247)" fill-opacity="1" d=" M0,-12 C6.622799873352051,-12 12,-6.622799873352051 12,0 C12,6.622799873352051 6.622799873352051,12 0,12 C-6.622799873352051,12 -12,6.622799873352051 -12,0 C-12,-6.622799873352051 -6.622799873352051,-12 0,-12z"></path></g></g><g transform="matrix(1,0,0,1,333.78173828125,178.21824645996094)" opacity="0.3" style="display: block;"><g opacity="1" transform="matrix(1,0,0,1,0,0)"><path fill="rgb(168,85,247)" fill-opacity="1" d=" M0,-12 C6.622799873352051,-12 12,-6.622799873352051 12,0 C12,6.622799873352051 6.622799873352051,12 0,12 C-6.622799873352051,12 -12,6.622799873352051 -12,0 C-12,-6.622799873352051 -6.622799873352051,-12 0,-12z"></path></g></g><g transform="matrix(1,0,0,1,256,146)" opacity="0.3" style="display: block;"><g opacity="1" transform="matrix(1,0,0,1,0,0)"><path fill="rgb(34,211,238)" fill-opacity="1" d=" M0,-12 C6.622799873352051,-12 12,-6.622799873352051 12,0 C12,6.622799873352051 6.622799873352051,12 0,12 C-6.622799873352051,12 -12,6.622799873352051 -12,0 C-12,-6.622799873352051 -6.622799873352051,-12 0,-12z"></path></g></g><g transform="matrix(1.100000023841858,0,0,1.100000023841858,256,256)" opacity="1" style="display: block;"><g opacity="1" transform="matrix(1,0,0,1,0,0)"><path fill="rgb(34,211,238)" fill-opacity="1" d=" M0,-28 C15.453200340270996,-28 28,-15.453200340270996 28,0 C28,15.453200340270996 15.453200340270996,28 0,28 C-15.453200340270996,28 -28,15.453200340270996 -28,0 C-28,-15.453200340270996 -15.453200340270996,-28 0,-28z"></path></g></g></g></svg>