<svg xmlns="http://www.w3.org/2000/svg" xmlns:xlink="http://www.w3.org/1999/xlink" viewBox="0 0 512 512" width="512" height="512" preserveAspectRatio="xMidYMid meet" style="width: 100%; height: 100%; transform: translate3d(0px, 0px, 0px); content-visibility: visible;"><defs><clipPath id="__lottie_element_2"><rect width="512" height="512" x="0" y="0"></rect></clipPath></defs><g clip-path="url(#__lottie_element_2)"><g transform="matrix(1,0,0,1,326.710693359375,185.28932189941406)" opacity="0.3" style="display: block;"><g opacity="1" transform="matrix(1,0,0,1,0,0)"><path fill="rgb(107,114,128)" fill-opacity="1" d=" M0,-10 C5.519000053405762,-10 10,-5.519000053405762 10,0 C10,5.519000053405762 5.519000053405762,10 0,10 C-5.519000053405762,10 -10,5.519000053405762 -10,0 C-10,-5.519000053405762 -5.519000053405762,-10 0,-10z"></path></g></g><g transform="matrix(1,0,0,1,256,156)" opacity="0.3" style="display: block;"><g opacity="1" transform="matrix(1,0,0,1,0,0)"><path fill="rgb(107,114,128)" fill-opacity="1" d=" M0,-10 C5.519000053405762,-10 10,-5.519000053405762 10,0 C10,5.519000053405762 5.519000053405762,10 0,10 C-5.519000053405762,10 -10,5.519000053405762 -10,0 C-10,-5.519000053405762 -5.519000053405762,-10 0,-10z"></path></g></g><g transform="matrix(1,0,0,1,185.28932189941406,185.28932189941406)" opacity="0.3" style="display: block;"><g opacity="1" transform="matrix(1,0,0,1,0,0)"><path fill="rgb(107,114,128)" fill-opacity="1" d=" M0,-10 C5.519000053405762,-10 10,-5.519000053405762 10,0 C10,5.519000053405762 5.519000053405762,10 0,10 C-5.519000053405762,10 -10,5.519000053405762 -10,0 C-10,-5.519000053405762 -5.519000053405762,-10 0,-10z"></path></g></g><g transform="matrix(1,0,0,1,156,256)" opacity="0.3" style="display: block;"><g opacity="1" transform="matrix(1,0,0,1,0,0)"><path fill="rgb(107,114,128)" fill-opacity="1" d=" M0,-10 C5.519000053405762,-10 10,-5.519000053405762 10,0 C10,5.519000053405762 5.519000053405762,10 0,10 C-5.519000053405762,10 -10,5.519000053405762 -10,0 C-10,-5.519000053405762 -5.519000053405762,-10 0,-10z"></path></g></g><g transform="matrix(1,0,0,1,185.28932189941406,326.710693359375)" opacity="0.889886731405722" style="display: block;"><g opacity="1" transform="matrix(1,0,0,1,0,0)"><path fill="rgb(107,114,128)" fill-opacity="1" d=" M0,-10 C5.519000053405762,-10 10,-5.519000053405762 10,0 C10,5.519000053405762 5.519000053405762,10 0,10 C-5.519000053405762,10 -10,5.519000053405762 -10,0 C-10,-5.519000053405762 -5.519000053405762,-10 0,-10z"></path></g></g><g transform="matrix(1,0,0,1,256,356)" opacity="0.65" style="display: block;"><g opacity="1" transform="matrix(1,0,0,1,0,0)"><path fill="rgb(34,211,238)" fill-opacity="1" d=" M0,-10 C5.519000053405762,-10 10,-5.519000053405762 10,0 C10,5.519000053405762 5.519000053405762,10 0,10 C-5.519000053405762,10 -10,5.519000053405762 -10,0 C-10,-5.519000053405762 -5.519000053405762,-10 0,-10z"></path></g></g><g transform="matrix(1,0,0,1,326.710693359375,326.710693359375)" opacity="0.3" style="display: block;"><g opacity="1" transform="matrix(1,0,0,1,0,0)"><path fill="rgb(34,211,238)" fill-opacity="1" d=" M0,-10 C5.519000053405762,-10 10,-5.519000053405762 10,0 C10,5.519000053405762 5.519000053405762,10 0,10 C-5.519000053405762,10 -10,5.519000053405762 -10,0 C-10,-5.519000053405762 -5.519000053405762,-10 0,-10z"></path></g></g><g transform="matrix(1,0,0,1,356,256)" opacity="0.3" style="display: block;"><g opacity="1" transform="matrix(1,0,0,1,0,0)"><path fill="rgb(34,211,238)" fill-opacity="1" d=" M0,-10 C5.519000053405762,-10 10,-5.519000053405762 10,0 C10,5.519000053405762 5.519000053405762,10 0,10 C-5.519000053405762,10 -10,5.519000053405762 -10,0 C-10,-5.519000053405762 -5.519000053405762,-10 0,-10z"></path></g></g><g transform="matrix(1.2000000476837158,0,0,1.2000000476837158,256,256)" opacity="1" style="display: block;"><g opacity="1" transform="matrix(1,0,0,1,0,0)"><path fill="rgb(168,85,247)" fill-opacity="1" d=" M0,-25 C13.797499656677246,-25 25,-13.797499656677246 25,0 C25,13.797499656677246 13.797499656677246,25 0,25 C-13.797499656677246,25 -25,13.797499656677246 -25,0 C-25,-13.797499656677246 -13.797499656677246,-25 0,-25z"></path></g></g></g></svg>