<svg xmlns="http://www.w3.org/2000/svg" xmlns:xlink="http://www.w3.org/1999/xlink" viewBox="0 0 512 512" width="512" height="512" preserveAspectRatio="xMidYMid meet" style="width: 100%; height: 100%; transform: translate3d(0px, 0px, 0px); content-visibility: visible;"><defs><clipPath id="__lottie_element_2"><rect width="512" height="512" x="0" y="0"></rect></clipPath></defs><g clip-path="url(#__lottie_element_2)"><g transform="matrix(1,0,0,0.03718339651823044,366,293.6985778808594)" opacity="0.31722714219762976" style="display: block;"><g opacity="1" transform="matrix(1,0,0,1,0,0)"><path fill="rgb(34,211,238)" fill-opacity="1" d=" M9,-26 C9,-26 9,26 9,26 C9,30.967100143432617 4.967100143432617,35 0,35 C0,35 0,35 0,35 C-4.967100143432617,35 -9,30.967100143432617 -9,26 C-9,26 -9,-26 -9,-26 C-9,-30.967100143432617 -4.967100143432617,-35 0,-35 C0,-35 0,-35 0,-35 C4.967100143432617,-35 9,-30.967100143432617 9,-26z"></path></g></g><g transform="matrix(1,0,0,0.4220411777496338,328,230.45712280273438)" opacity="1" style="display: block;"><g opacity="1" transform="matrix(1,0,0,1,0,0)"><path fill="rgb(34,211,238)" fill-opacity="1" d=" M9,-61 C9,-61 9,61 9,61 C9,65.96710205078125 4.967100143432617,70 0,70 C0,70 0,70 0,70 C-4.967100143432617,70 -9,65.96710205078125 -9,61 C-9,61 -9,-61 -9,-61 C-9,-65.96710205078125 -4.967100143432617,-70 0,-70 C0,-70 0,-70 0,-70 C4.967100143432617,-70 9,-65.96710205078125 9,-61z"></path></g></g><g transform="matrix(1,0,0,0.8937909007072449,290,235.31045532226562)" opacity="1" style="display: block;"><g opacity="1" transform="matrix(1,0,0,1,0,0)"><path fill="rgb(34,211,238)" fill-opacity="1" d=" M9,-41 C9,-41 9,41 9,41 C9,45.967098236083984 4.967100143432617,50 0,50 C0,50 0,50 0,50 C-4.967100143432617,50 -9,45.967098236083984 -9,41 C-9,41 -9,-41 -9,-41 C-9,-45.967098236083984 -4.967100143432617,-50 0,-50 C0,-50 0,-50 0,-50 C4.967100143432617,-50 9,-45.967098236083984 9,-41z"></path></g></g><g transform="matrix(1,0,0,0.9919067621231079,252,170.6474609375)" opacity="1" style="display: block;"><g opacity="1" transform="matrix(1,0,0,1,0,0)"><path fill="rgb(34,211,238)" fill-opacity="1" d=" M9,-71 C9,-71 9,71 9,71 C9,75.96710205078125 4.967100143432617,80 0,80 C0,80 0,80 0,80 C-4.967100143432617,80 -9,75.96710205078125 -9,71 C-9,71 -9,-71 -9,-71 C-9,-75.96710205078125 -4.967100143432617,-80 0,-80 C0,-80 0,-80 0,-80 C4.967100143432617,-80 9,-75.96710205078125 9,-71z"></path></g></g><g transform="matrix(1,0,0,0.8250498175621033,214,247.8727569580078)" opacity="1" style="display: block;"><g opacity="1" transform="matrix(1,0,0,1,0,0)"><path fill="rgb(34,211,238)" fill-opacity="1" d=" M9,-36 C9,-36 9,36 9,36 C9,40.967098236083984 4.967100143432617,45 0,45 C0,45 0,45 0,45 C-4.967100143432617,45 -9,40.967098236083984 -9,36 C-9,36 -9,-36 -9,-36 C-9,-40.967098236083984 -4.967100143432617,-45 0,-45 C0,-45 0,-45 0,-45 C4.967100143432617,-45 9,-40.967098236083984 9,-36z"></path></g></g><g transform="matrix(1,0,0,0.5153295397758484,176,231.50357055664062)" opacity="1" style="display: block;"><g opacity="1" transform="matrix(1,0,0,1,0,0)"><path fill="rgb(34,211,238)" fill-opacity="1" d=" M9,-56 C9,-56 9,56 9,56 C9,60.967098236083984 4.967100143432617,65 0,65 C0,65 0,65 0,65 C-4.967100143432617,65 -9,60.967098236083984 -9,56 C-9,56 -9,-56 -9,-56 C-9,-60.967098236083984 -4.967100143432617,-65 0,-65 C0,-65 0,-65 0,-65 C4.967100143432617,-65 9,-60.967098236083984 9,-56z"></path></g></g><g transform="matrix(1,0,0,0.3184906840324402,138,277.2603759765625)" opacity="1" style="display: block;"><g opacity="1" transform="matrix(1,0,0,1,0,0)"><path fill="rgb(34,211,238)" fill-opacity="1" d=" M9,-31 C9,-31 9,31 9,31 C9,35.967098236083984 4.967100143432617,40 0,40 C0,40 0,40 0,40 C-4.967100143432617,40 -9,35.967098236083984 -9,31 C-9,31 -9,-31 -9,-31 C-9,-35.967098236083984 -4.967100143432617,-40 0,-40 C0,-40 0,-40 0,-40 C4.967100143432617,-40 9,-35.967098236083984 9,-31z"></path></g></g></g></svg>