<svg xmlns="http://www.w3.org/2000/svg" xmlns:xlink="http://www.w3.org/1999/xlink" viewBox="0 0 512 512" width="512" height="512" preserveAspectRatio="xMidYMid meet" style="width: 100%; height: 100%; transform: translate3d(0px, 0px, 0px); content-visibility: visible;"><defs><clipPath id="__lottie_element_2"><rect width="512" height="512" x="0" y="0"></rect></clipPath></defs><g clip-path="url(#__lottie_element_2)"><g transform="matrix(1,0,0,0.10434677451848984,368,256)" opacity="0.20589857110266285" style="display: block;"><g opacity="1" transform="matrix(1,0,0,1,0,0)"><path fill="rgb(34,211,238)" fill-opacity="1" d=" M8,-37 C8,-37 8,37 8,37 C8,41.415199279785156 4.415200233459473,45 0,45 C0,45 0,45 0,45 C-4.415200233459473,45 -8,41.415199279785156 -8,37 C-8,37 -8,-37 -8,-37 C-8,-41.415199279785156 -4.415200233459473,-45 0,-45 C0,-45 0,-45 0,-45 C4.415200233459473,-45 8,-41.415199279785156 8,-37z"></path></g></g><g transform="matrix(1,0,0,0.32993707060813904,330,256)" opacity="0.4261429075016207" style="display: block;"><g opacity="1" transform="matrix(1,0,0,1,0,0)"><path fill="rgb(34,211,238)" fill-opacity="1" d=" M8,-47 C8,-47 8,47 8,47 C8,51.415199279785156 4.415200233459473,55 0,55 C0,55 0,55 0,55 C-4.415200233459473,55 -8,51.415199279785156 -8,47 C-8,47 -8,-47 -8,-47 C-8,-51.415199279785156 -4.415200233459473,-55 0,-55 C0,-55 0,-55 0,-55 C4.415200233459473,-55 8,-51.415199279785156 8,-47z"></path></g></g><g transform="matrix(1,0,0,0.7700629234313965,292,256)" opacity="0.7738570924983792" style="display: block;"><g opacity="1" transform="matrix(1,0,0,1,0,0)"><path fill="rgb(34,211,238)" fill-opacity="1" d=" M8,-27 C8,-27 8,27 8,27 C8,31.415199279785156 4.415200233459473,35 0,35 C0,35 0,35 0,35 C-4.415200233459473,35 -8,31.415199279785156 -8,27 C-8,27 -8,-27 -8,-27 C-8,-31.415199279785156 -4.415200233459473,-35 0,-35 C0,-35 0,-35 0,-35 C4.415200233459473,-35 8,-31.415199279785156 8,-27z"></path></g></g><g transform="matrix(1,0,0,0.9956532120704651,254,256)" opacity="0.9941014288973372" style="display: block;"><g opacity="1" transform="matrix(1,0,0,1,0,0)"><path fill="rgb(34,211,238)" fill-opacity="1" d=" M8,-52 C8,-52 8,52 8,52 C8,56.415199279785156 4.415200233459473,60 0,60 C0,60 0,60 0,60 C-4.415200233459473,60 -8,56.415199279785156 -8,52 C-8,52 -8,-52 -8,-52 C-8,-56.415199279785156 -4.415200233459473,-60 0,-60 C0,-60 0,-60 0,-60 C4.415200233459473,-60 8,-56.415199279785156 8,-52z"></path></g></g><g transform="matrix(1,0,0,0.8837542533874512,216,256)" opacity="0.8741562644636822" style="display: block;"><g opacity="1" transform="matrix(1,0,0,1,0,0)"><path fill="rgb(34,211,238)" fill-opacity="1" d=" M8,-32 C8,-32 8,32 8,32 C8,36.415199279785156 4.415200233459473,40 0,40 C0,40 0,40 0,40 C-4.415200233459473,40 -8,36.415199279785156 -8,32 C-8,32 -8,-32 -8,-32 C-8,-36.415199279785156 -4.415200233459473,-40 0,-40 C0,-40 0,-40 0,-40 C4.415200233459473,-40 8,-36.415199279785156 8,-32z"></path></g></g><g transform="matrix(1,0,0,0.4729057252407074,178,256)" opacity="0.5404926251586177" style="display: block;"><g opacity="1" transform="matrix(1,0,0,1,0,0)"><path fill="rgb(34,211,238)" fill-opacity="1" d=" M8,-42 C8,-42 8,42 8,42 C8,46.415199279785156 4.415200233459473,50 0,50 C0,50 0,50 0,50 C-4.415200233459473,50 -8,46.415199279785156 -8,42 C-8,42 -8,-42 -8,-42 C-8,-46.415199279785156 -4.415200233459473,-50 0,-50 C0,-50 0,-50 0,-50 C4.415200233459473,-50 8,-46.415199279785156 8,-42z"></path></g></g><g transform="matrix(1,0,0,0.14068928360939026,140,256)" opacity="0.24914882964664883" style="display: block;"><g opacity="1" transform="matrix(1,0,0,1,0,0)"><path fill="rgb(34,211,238)" fill-opacity="1" d=" M8,-22 C8,-22 8,22 8,22 C8,26.415199279785156 4.415200233459473,30 0,30 C0,30 0,30 0,30 C-4.415200233459473,30 -8,26.415199279785156 -8,22 C-8,22 -8,-22 -8,-22 C-8,-26.415199279785156 -4.415200233459473,-30 0,-30 C0,-30 0,-30 0,-30 C4.415200233459473,-30 8,-26.415199279785156 8,-22z"></path></g></g></g></svg>