<svg xmlns="http://www.w3.org/2000/svg" xmlns:xlink="http://www.w3.org/1999/xlink" viewBox="0 0 512 512" width="512" height="512" preserveAspectRatio="xMidYMid meet" style="width: 100%; height: 100%; transform: translate3d(0px, 0px, 0px); content-visibility: visible;"><defs><clipPath id="__lottie_element_2"><rect width="512" height="512" x="0" y="0"></rect></clipPath></defs><g clip-path="url(#__lottie_element_2)"><g transform="matrix(1,0,0,1,372,256)" opacity="1" style="display: block;"><g opacity="1" transform="matrix(1,0,0,1,0,0)"><path fill="rgb(168,85,247)" fill-opacity="1" d=" M0,-14 C7.726600170135498,-14 14,-7.726600170135498 14,0 C14,7.726600170135498 7.726600170135498,14 0,14 C-7.726600170135498,14 -14,7.726600170135498 -14,0 C-14,-7.726600170135498 -7.726600170135498,-14 0,-14z"></path></g></g><g transform="matrix(1,0,0,1,322,256)" opacity="1" style="display: block;"><g opacity="1" transform="matrix(1,0,0,1,0,0)"><path fill="rgb(168,85,247)" fill-opacity="1" d=" M0,-14 C7.726600170135498,-14 14,-7.726600170135498 14,0 C14,7.726600170135498 7.726600170135498,14 0,14 C-7.726600170135498,14 -14,7.726600170135498 -14,0 C-14,-7.726600170135498 -7.726600170135498,-14 0,-14z"></path></g></g><g transform="matrix(1,0,0,1,256,196.8162841796875)" opacity="1" style="display: block;"><g opacity="1" transform="matrix(1,0,0,1,0,0)"><path fill="rgb(168,85,247)" fill-opacity="1" d=" M0,-14 C7.726600170135498,-14 14,-7.726600170135498 14,0 C14,7.726600170135498 7.726600170135498,14 0,14 C-7.726600170135498,14 -14,7.726600170135498 -14,0 C-14,-7.726600170135498 -7.726600170135498,-14 0,-14z"></path></g></g><g transform="matrix(1,0,0,1,190,255.1837158203125)" opacity="1" style="display: block;"><g opacity="1" transform="matrix(1,0,0,1,0,0)"><path fill="rgb(168,85,247)" fill-opacity="1" d=" M0,-14 C7.726600170135498,-14 14,-7.726600170135498 14,0 C14,7.726600170135498 7.726600170135498,14 0,14 C-7.726600170135498,14 -14,7.726600170135498 -14,0 C-14,-7.726600170135498 -7.726600170135498,-14 0,-14z"></path></g></g><g transform="matrix(1,0,0,1,140,315.1837158203125)" opacity="1" style="display: block;"><g opacity="1" transform="matrix(1,0,0,1,0,0)"><path fill="rgb(168,85,247)" fill-opacity="1" d=" M0,-14 C7.726600170135498,-14 14,-7.726600170135498 14,0 C14,7.726600170135498 7.726600170135498,14 0,14 C-7.726600170135498,14 -14,7.726600170135498 -14,0 C-14,-7.726600170135498 -7.726600170135498,-14 0,-14z"></path></g></g></g></svg>