<svg xmlns="http://www.w3.org/2000/svg" xmlns:xlink="http://www.w3.org/1999/xlink" viewBox="0 0 512 512" width="512" height="512" preserveAspectRatio="xMidYMid meet" style="width: 100%; height: 100%; transform: translate3d(0px, 0px, 0px); content-visibility: visible;"><defs><clipPath id="__lottie_element_2"><rect width="512" height="512" x="0" y="0"></rect></clipPath></defs><g clip-path="url(#__lottie_element_2)"><g transform="matrix(1,0,0,1,372,240.04383850097656)" opacity="1" style="display: block;"><g opacity="1" transform="matrix(1,0,0,1,0,0)"><path fill="rgb(168,85,247)" fill-opacity="1" d=" M0,-16 C8.830400466918945,-16 16,-8.830400466918945 16,0 C16,8.830400466918945 8.830400466918945,16 0,16 C-8.830400466918945,16 -16,8.830400466918945 -16,0 C-16,-8.830400466918945 -8.830400466918945,-16 0,-16z"></path></g></g><g transform="matrix(1,0,0,1,320,196.59678649902344)" opacity="1" style="display: block;"><g opacity="1" transform="matrix(1,0,0,1,0,0)"><path fill="rgb(168,85,247)" fill-opacity="1" d=" M0,-16 C8.830400466918945,-16 16,-8.830400466918945 16,0 C16,8.830400466918945 8.830400466918945,16 0,16 C-8.830400466918945,16 -16,8.830400466918945 -16,0 C-16,-8.830400466918945 -8.830400466918945,-16 0,-16z"></path></g></g><g transform="matrix(1,0,0,1,256,250.35345458984375)" opacity="1" style="display: block;"><g opacity="1" transform="matrix(1,0,0,1,0,0)"><path fill="rgb(168,85,247)" fill-opacity="1" d=" M0,-16 C8.830400466918945,-16 16,-8.830400466918945 16,0 C16,8.830400466918945 8.830400466918945,16 0,16 C-8.830400466918945,16 -16,8.830400466918945 -16,0 C-16,-8.830400466918945 -8.830400466918945,-16 0,-16z"></path></g></g><g transform="matrix(1,0,0,1,192,286)" opacity="1" style="display: block;"><g opacity="1" transform="matrix(1,0,0,1,0,0)"><path fill="rgb(168,85,247)" fill-opacity="1" d=" M0,-16 C8.830400466918945,-16 16,-8.830400466918945 16,0 C16,8.830400466918945 8.830400466918945,16 0,16 C-8.830400466918945,16 -16,8.830400466918945 -16,0 C-16,-8.830400466918945 -8.830400466918945,-16 0,-16z"></path></g></g><g transform="matrix(1,0,0,1,140,298.4337463378906)" opacity="1" style="display: block;"><g opacity="1" transform="matrix(1,0,0,1,0,0)"><path fill="rgb(168,85,247)" fill-opacity="1" d=" M0,-16 C8.830400466918945,-16 16,-8.830400466918945 16,0 C16,8.830400466918945 8.830400466918945,16 0,16 C-8.830400466918945,16 -16,8.830400466918945 -16,0 C-16,-8.830400466918945 -8.830400466918945,-16 0,-16z"></path></g></g></g></svg>