<svg xmlns="http://www.w3.org/2000/svg" xmlns:xlink="http://www.w3.org/1999/xlink" viewBox="0 0 512 512" width="512" height="512" preserveAspectRatio="xMidYMid meet" style="width: 100%; height: 100%; transform: translate3d(0px, 0px, 0px); content-visibility: visible;"><defs><clipPath id="__lottie_element_2"><rect width="512" height="512" x="0" y="0"></rect></clipPath></defs><g clip-path="url(#__lottie_element_2)"><g transform="matrix(1.0499999523162842,0,0,0.75,256,256)" opacity="1" style="display: block;"><g opacity="1" transform="matrix(1,0,0,1,0,0)"><path stroke-linecap="round" stroke-linejoin="round" fill-opacity="0" stroke="rgb(34,211,238)" stroke-opacity="1" stroke-width="6" d=" M0,-50 C27.594999313354492,-50 50,-27.594999313354492 50,0 C50,27.594999313354492 27.594999313354492,50 0,50 C-27.594999313354492,50 -50,27.594999313354492 -50,0 C-50,-27.594999313354492 -27.594999313354492,-50 0,-50z"></path></g></g><g transform="matrix(1,0,0,1,255,256)" opacity="1" style="display: block;"><g opacity="1" transform="matrix(1,0,0,1,0,0)"><path fill="rgb(168,85,247)" fill-opacity="1" d=" M0,-18 C9.934200286865234,-18 18,-9.934200286865234 18,0 C18,9.934200286865234 9.934200286865234,18 0,18 C-9.934200286865234,18 -18,9.934200286865234 -18,0 C-18,-9.934200286865234 -9.934200286865234,-18 0,-18z"></path></g></g><g transform="matrix(1,0,0,1,256,302)" opacity="1" style="display: block;"><g opacity="1" transform="matrix(1,0,0,1,0,0)"><path fill="rgb(34,211,238)" fill-opacity="0.6" d=" M100,0 C100,0 100,0 100,0 C100,1.1038000583648682 99.10379791259766,2 98,2 C98,2 -98,2 -98,2 C-99.10379791259766,2 -100,1.1038000583648682 -100,0 C-100,0 -100,0 -100,0 C-100,-1.1038000583648682 -99.10379791259766,-2 -98,-2 C-98,-2 98,-2 98,-2 C99.10379791259766,-2 100,-1.1038000583648682 100,0z"></path></g></g></g></svg>