<svg xmlns="http://www.w3.org/2000/svg" xmlns:xlink="http://www.w3.org/1999/xlink" viewBox="0 0 512 512" width="512" height="512" preserveAspectRatio="xMidYMid meet" style="width: 100%; height: 100%; transform: translate3d(0px, 0px, 0px); content-visibility: visible;"><defs><clipPath id="__lottie_element_2"><rect width="512" height="512" x="0" y="0"></rect></clipPath></defs><g clip-path="url(#__lottie_element_2)"><g transform="matrix(1,0,0,0.8902122974395752,256,256)" opacity="1" style="display: block;"><g opacity="1" transform="matrix(1,0,0,1,0,0)"><path stroke-linecap="round" stroke-linejoin="round" fill-opacity="0" stroke="rgb(34,211,238)" stroke-opacity="1" stroke-width="7" d=" M0,-45 C38.632999420166016,-45 70,-24.835500717163086 70,0 C70,24.835500717163086 38.632999420166016,45 0,45 C-38.632999420166016,45 -70,24.835500717163086 -70,0 C-70,-24.835500717163086 -38.632999420166016,-45 0,-45z"></path><path fill="rgb(13,10,42)" fill-opacity="1" d=" M0,-45 C38.632999420166016,-45 70,-24.835500717163086 70,0 C70,24.835500717163086 38.632999420166016,45 0,45 C-38.632999420166016,45 -70,24.835500717163086 -70,0 C-70,-24.835500717163086 -38.632999420166016,-45 0,-45z"></path></g></g><g transform="matrix(1,0,0,1,229.17747497558594,256)" opacity="1" style="display: block;"><g opacity="1" transform="matrix(1,0,0,1,0,0)"><path fill="rgb(168,85,247)" fill-opacity="1" d=" M0,-22 C12.141799926757812,-22 22,-12.141799926757812 22,0 C22,12.141799926757812 12.141799926757812,22 0,22 C-12.141799926757812,22 -22,12.141799926757812 -22,0 C-22,-12.141799926757812 -12.141799926757812,-22 0,-22z"></path></g></g><g transform="matrix(1,0,0,1,256,293.43212890625)" opacity="1" style="display: block;"><g opacity="1" transform="matrix(1,0,0,1,0,0)"><path fill="rgb(34,211,238)" fill-opacity="0.7000000000000001" d=" M90,-0.5 C90,-0.5 90,0.5 90,0.5 C90,1.6038000583648682 89.10379791259766,2.5 88,2.5 C88,2.5 -88,2.5 -88,2.5 C-89.10379791259766,2.5 -90,1.6038000583648682 -90,0.5 C-90,0.5 -90,-0.5 -90,-0.5 C-90,-1.6038000583648682 -89.10379791259766,-2.5 -88,-2.5 C-88,-2.5 88,-2.5 88,-2.5 C89.10379791259766,-2.5 90,-1.6038000583648682 90,-0.5z"></path></g></g></g></svg>