<svg xmlns="http://www.w3.org/2000/svg" xmlns:xlink="http://www.w3.org/1999/xlink" viewBox="0 0 512 512" width="512" height="512" preserveAspectRatio="xMidYMid meet" style="width: 100%; height: 100%; transform: translate3d(0px, 0px, 0px); content-visibility: visible;"><defs><clipPath id="__lottie_element_2"><rect width="512" height="512" x="0" y="0"></rect></clipPath></defs><g clip-path="url(#__lottie_element_2)"><g transform="matrix(1,0,0,1,286,300)" opacity="1" style="display: block;"><g opacity="1" transform="matrix(1,0,0,1,0,0)"><path fill="rgb(59,130,246)" fill-opacity="1" d=" M65,-30 C65,-30 65,30 65,30 C65,41.03799819946289 56.03799819946289,50 45,50 C45,50 -45,50 -45,50 C-56.03799819946289,50 -65,41.03799819946289 -65,30 C-65,30 -65,-30 -65,-30 C-65,-41.03799819946289 -56.03799819946289,-50 -45,-50 C-45,-50 45,-50 45,-50 C56.03799819946289,-50 65,-41.03799819946289 65,-30z"></path></g></g><g transform="matrix(0.43845584988594055,0,0,0.43845584988594055,269.7724914550781,270.1072082519531)" opacity="1" style="display: block;"><g opacity="1" transform="matrix(1,0,0,1,0,0)"><path fill="rgb(249,115,22)" fill-opacity="1" d=" M27.5,-15.5 C27.5,-15.5 27.5,15.5 27.5,15.5 C27.5,22.122800827026367 22.122800827026367,27.5 15.5,27.5 C15.5,27.5 -15.5,27.5 -15.5,27.5 C-22.122800827026367,27.5 -27.5,22.122800827026367 -27.5,15.5 C-27.5,15.5 -27.5,-15.5 -27.5,-15.5 C-27.5,-22.122800827026367 -22.122800827026367,-27.5 -15.5,-27.5 C-15.5,-27.5 15.5,-27.5 15.5,-27.5 C22.122800827026367,-27.5 27.5,-22.122800827026367 27.5,-15.5z"></path></g></g></g></svg>