<svg xmlns="http://www.w3.org/2000/svg" xmlns:xlink="http://www.w3.org/1999/xlink" viewBox="0 0 512 512" width="512" height="512" preserveAspectRatio="xMidYMid meet" style="width: 100%; height: 100%; transform: translate3d(0px, 0px, 0px); content-visibility: visible;"><defs><clipPath id="__lottie_element_2"><rect width="512" height="512" x="0" y="0"></rect></clipPath></defs><g clip-path="url(#__lottie_element_2)"><g transform="matrix(1,0,0,1,330,350)" opacity="1" style="display: block;"><g opacity="1" transform="matrix(1,0,0,1,0,0)"><path fill="rgb(30,64,175)" fill-opacity="1" d=" M0,-11 C6.070899963378906,-11 11,-6.070899963378906 11,0 C11,6.070899963378906 6.070899963378906,11 0,11 C-6.070899963378906,11 -11,6.070899963378906 -11,0 C-11,-6.070899963378906 -6.070899963378906,-11 0,-11z"></path></g></g><g transform="matrix(1,0,0,1,270,350)" opacity="1" style="display: block;"><g opacity="1" transform="matrix(1,0,0,1,0,0)"><path fill="rgb(30,64,175)" fill-opacity="1" d=" M0,-11 C6.070899963378906,-11 11,-6.070899963378906 11,0 C11,6.070899963378906 6.070899963378906,11 0,11 C-6.070899963378906,11 -11,6.070899963378906 -11,0 C-11,-6.070899963378906 -6.070899963378906,-11 0,-11z"></path></g></g><g transform="matrix(1,0,0,1,300,290)" opacity="1" style="display: block;"><g opacity="1" transform="matrix(1,0,0,1,0,0)"><path fill="rgb(59,130,246)" fill-opacity="1" d=" M70,-32 C70,-32 70,32 70,32 C70,41.934200286865234 61.934200286865234,50 52,50 C52,50 -52,50 -52,50 C-61.934200286865234,50 -70,41.934200286865234 -70,32 C-70,32 -70,-32 -70,-32 C-70,-41.934200286865234 -61.934200286865234,-50 -52,-50 C-52,-50 52,-50 52,-50 C61.934200286865234,-50 70,-41.934200286865234 70,-32z"></path></g></g><g transform="matrix(0.3628195822238922,0,0,0.3628195822238922,292.8848876953125,280.2975769042969)" opacity="0.9800297031093491" style="display: block;"><g opacity="1" transform="matrix(1,0,0,1,0,0)"><path fill="rgb(249,115,22)" fill-opacity="1" d=" M30,-16 C30,-16 30,16 30,16 C30,23.726600646972656 23.726600646972656,30 16,30 C16,30 -16,30 -16,30 C-23.726600646972656,30 -30,23.726600646972656 -30,16 C-30,16 -30,-16 -30,-16 C-30,-23.726600646972656 -23.726600646972656,-30 -16,-30 C-16,-30 16,-30 16,-30 C23.726600646972656,-30 30,-23.726600646972656 30,-16z"></path></g></g></g></svg>