<svg xmlns="http://www.w3.org/2000/svg" xmlns:xlink="http://www.w3.org/1999/xlink" viewBox="0 0 512 512" width="512" height="512" preserveAspectRatio="xMidYMid meet" style="width: 100%; height: 100%; transform: translate3d(0px, 0px, 0px); content-visibility: visible;"><defs><clipPath id="__lottie_element_2"><rect width="512" height="512" x="0" y="0"></rect></clipPath></defs><g clip-path="url(#__lottie_element_2)"><g transform="matrix(1,0,0,1,256,256)" opacity="1" style="display: block;"><g opacity="1" transform="matrix(1,0,0,1,0,0)"><path fill="rgb(239,68,68)" fill-opacity="1" d=" M-40,-70 C-12.404999732971191,-70 10,-47.595001220703125 10,-20 C10,7.59499979019165 -12.404999732971191,30 -40,30 C-67.59500122070312,30 -90,7.59499979019165 -90,-20 C-90,-47.595001220703125 -67.59500122070312,-70 -40,-70z"></path></g></g><g transform="matrix(1,0,0,1,256,256)" opacity="1" style="display: block;"><g opacity="1" transform="matrix(1,0,0,1,0,0)"><path fill="rgb(239,68,68)" fill-opacity="1" d=" M40,-70 C67.59500122070312,-70 90,-47.595001220703125 90,-20 C90,7.59499979019165 67.59500122070312,30 40,30 C12.404999732971191,30 -10,7.59499979019165 -10,-20 C-10,-47.595001220703125 12.404999732971191,-70 40,-70z"></path></g></g><g transform="matrix(1,0,0,1,256,270)" opacity="1" style="display: block;"><g opacity="1" transform="matrix(0.7071067690849304,0.7071067690849304,-0.7071067690849304,0.7071067690849304,0,0)"><path fill="rgb(239,68,68)" fill-opacity="1" d=" M55,-20 C55,-20 55,60 55,60 C55,65.51899719238281 50.51900100708008,70 45,70 C45,70 -45,70 -45,70 C-50.51900100708008,70 -55,65.51899719238281 -55,60 C-55,60 -55,-20 -55,-20 C-55,-25.518999099731445 -50.51900100708008,-30 -45,-30 C-45,-30 45,-30 45,-30 C50.51900100708008,-30 55,-25.518999099731445 55,-20z"></path></g></g><g transform="matrix(0.35031765699386597,0,0,0.35031765699386597,256,172.4694061279297)" opacity="0.2426842879876341" style="display: block;"><g opacity="1" transform="matrix(1,0,0,1,0,0)"><path fill="rgb(239,68,68)" fill-opacity="1" d=" M0,-7 C3.863300085067749,-7 7,-3.863300085067749 7,0 C7,3.863300085067749 3.863300085067749,7 0,7 C-3.863300085067749,7 -7,3.863300085067749 -7,0 C-7,-3.863300085067749 -3.863300085067749,-7 0,-7z"></path></g></g><g transform="matrix(0.35031765699386597,0,0,0.35031765699386597,172.4694061279297,256)" opacity="0.2426842879876341" style="display: block;"><g opacity="1" transform="matrix(1,0,0,1,0,0)"><path fill="rgb(239,68,68)" fill-opacity="1" d=" M0,-7 C3.863300085067749,-7 7,-3.863300085067749 7,0 C7,3.863300085067749 3.863300085067749,7 0,7 C-3.863300085067749,7 -7,3.863300085067749 -7,0 C-7,-3.863300085067749 -3.863300085067749,-7 0,-7z"></path></g></g><g transform="matrix(0.35031765699386597,0,0,0.35031765699386597,256,339.53057861328125)" opacity="0.2426842879876341" style="display: block;"><g opacity="1" transform="matrix(1,0,0,1,0,0)"><path fill="rgb(239,68,68)" fill-opacity="1" d=" M0,-7 C3.863300085067749,-7 7,-3.863300085067749 7,0 C7,3.863300085067749 3.863300085067749,7 0,7 C-3.863300085067749,7 -7,3.863300085067749 -7,0 C-7,-3.863300085067749 -3.863300085067749,-7 0,-7z"></path></g></g><g transform="matrix(0.35031765699386597,0,0,0.35031765699386597,339.53057861328125,256)" opacity="0.2426842879876341" style="display: block;"><g opacity="1" transform="matrix(1,0,0,1,0,0)"><path fill="rgb(239,68,68)" fill-opacity="1" d=" M0,-7 C3.863300085067749,-7 7,-3.863300085067749 7,0 C7,3.863300085067749 3.863300085067749,7 0,7 C-3.863300085067749,7 -7,3.863300085067749 -7,0 C-7,-3.863300085067749 -3.863300085067749,-7 0,-7z"></path></g></g></g></svg>