<svg xmlns="http://www.w3.org/2000/svg" xmlns:xlink="http://www.w3.org/1999/xlink" viewBox="0 0 512 512" width="512" height="512" preserveAspectRatio="xMidYMid meet" style="width: 100%; height: 100%; transform: translate3d(0px, 0px, 0px); content-visibility: visible;"><defs><clipPath id="__lottie_element_2"><rect width="512" height="512" x="0" y="0"></rect></clipPath></defs><g clip-path="url(#__lottie_element_2)"><g transform="matrix(1,0,0,1,204,228)" opacity="1" style="display: block;"><g opacity="1" transform="matrix(1,0,0,1,0,0)"><path fill="rgb(239,68,68)" fill-opacity="1" d=" M0,-72 C39.73680114746094,-72 72,-39.73680114746094 72,0 C72,39.73680114746094 39.73680114746094,72 0,72 C-39.73680114746094,72 -72,39.73680114746094 -72,0 C-72,-39.73680114746094 -39.73680114746094,-72 0,-72z"></path></g></g><g transform="matrix(1,0,0,1,308,228)" opacity="1" style="display: block;"><g opacity="1" transform="matrix(1,0,0,1,0,0)"><path fill="rgb(239,68,68)" fill-opacity="1" d=" M0,-72 C39.73680114746094,-72 72,-39.73680114746094 72,0 C72,39.73680114746094 39.73680114746094,72 0,72 C-39.73680114746094,72 -72,39.73680114746094 -72,0 C-72,-39.73680114746094 -39.73680114746094,-72 0,-72z"></path></g></g><g transform="matrix(1,0,0,1,256,258)" opacity="1" style="display: block;"><g opacity="1" transform="matrix(1,0,0,1,0,0)"><path fill="rgb(239,68,68)" fill-opacity="1" d=" M90,-45 C90,-45 90,45 90,45 C90,45 -90,45 -90,45 C-90,45 -90,-45 -90,-45 C-90,-45 90,-45 90,-45z"></path></g></g><g transform="matrix(1,0,0,1,256,272)" opacity="1" style="display: block;"><g opacity="1" transform="matrix(0.7071067690849304,0.7071067690849304,-0.7071067690849304,0.7071067690849304,0,0)"><path fill="rgb(239,68,68)" fill-opacity="1" d=" M39,-39 C39,-39 39,39 39,39 C39,39 -39,39 -39,39 C-39,39 -39,-39 -39,-39 C-39,-39 39,-39 39,-39z"></path></g></g><g transform="matrix(1,0,0,1,307.6263427734375,167.09671020507812)" opacity="0.13620320048548834" style="display: block;"><g opacity="1" transform="matrix(1,0,0,1,0,0)"><path fill="rgb(255,107,107)" fill-opacity="1" d=" M0,-6.5 C3.5873498916625977,-6.5 6.5,-3.5873498916625977 6.5,0 C6.5,3.5873498916625977 3.5873498916625977,6.5 0,6.5 C-3.5873498916625977,6.5 -6.5,3.5873498916625977 -6.5,0 C-6.5,-3.5873498916625977 -3.5873498916625977,-6.5 0,-6.5z"></path></g></g><g transform="matrix(1,0,0,1,204.37367248535156,167.09671020507812)" opacity="0.13620320048548834" style="display: block;"><g opacity="1" transform="matrix(1,0,0,1,0,0)"><path fill="rgb(255,107,107)" fill-opacity="1" d=" M0,-6.5 C3.5873498916625977,-6.5 6.5,-3.5873498916625977 6.5,0 C6.5,3.5873498916625977 3.5873498916625977,6.5 0,6.5 C-3.5873498916625977,6.5 -6.5,3.5873498916625977 -6.5,0 C-6.5,-3.5873498916625977 -3.5873498916625977,-6.5 0,-6.5z"></path></g></g><g transform="matrix(1,0,0,1,152.74734497070312,248)" opacity="0.13620320048548834" style="display: block;"><g opacity="1" transform="matrix(1,0,0,1,0,0)"><path fill="rgb(255,107,107)" fill-opacity="1" d=" M0,-6.5 C3.5873498916625977,-6.5 6.5,-3.5873498916625977 6.5,0 C6.5,3.5873498916625977 3.5873498916625977,6.5 0,6.5 C-3.5873498916625977,6.5 -6.5,3.5873498916625977 -6.5,0 C-6.5,-3.5873498916625977 -3.5873498916625977,-6.5 0,-6.5z"></path></g></g><g transform="matrix(1,0,0,1,204.37367248535156,328.9032897949219)" opacity="0.13620320048548834" style="display: block;"><g opacity="1" transform="matrix(1,0,0,1,0,0)"><path fill="rgb(255,107,107)" fill-opacity="1" d=" M0,-6.5 C3.5873498916625977,-6.5 6.5,-3.5873498916625977 6.5,0 C6.5,3.5873498916625977 3.5873498916625977,6.5 0,6.5 C-3.5873498916625977,6.5 -6.5,3.5873498916625977 -6.5,0 C-6.5,-3.5873498916625977 -3.5873498916625977,-6.5 0,-6.5z"></path></g></g><g transform="matrix(1,0,0,1,307.6263427734375,328.9032897949219)" opacity="0.13620320048548834" style="display: block;"><g opacity="1" transform="matrix(1,0,0,1,0,0)"><path fill="rgb(255,107,107)" fill-opacity="1" d=" M0,-6.5 C3.5873498916625977,-6.5 6.5,-3.5873498916625977 6.5,0 C6.5,3.5873498916625977 3.5873498916625977,6.5 0,6.5 C-3.5873498916625977,6.5 -6.5,3.5873498916625977 -6.5,0 C-6.5,-3.5873498916625977 -3.5873498916625977,-6.5 0,-6.5z"></path></g></g><g transform="matrix(1,0,0,1,359.2526550292969,248)" opacity="0.13620320048548834" style="display: block;"><g opacity="1" transform="matrix(1,0,0,1,0,0)"><path fill="rgb(255,107,107)" fill-opacity="1" d=" M0,-6.5 C3.5873498916625977,-6.5 6.5,-3.5873498916625977 6.5,0 C6.5,3.5873498916625977 3.5873498916625977,6.5 0,6.5 C-3.5873498916625977,6.5 -6.5,3.5873498916625977 -6.5,0 C-6.5,-3.5873498916625977 -3.5873498916625977,-6.5 0,-6.5z"></path></g></g></g></svg>