<svg xmlns="http://www.w3.org/2000/svg" xmlns:xlink="http://www.w3.org/1999/xlink" viewBox="0 0 512 512" width="512" height="512" preserveAspectRatio="xMidYMid meet" style="width: 100%; height: 100%; transform: translate3d(0px, 0px, 0px); content-visibility: visible;"><defs><clipPath id="__lottie_element_2"><rect width="512" height="512" x="0" y="0"></rect></clipPath></defs><g clip-path="url(#__lottie_element_2)"><g transform="matrix(1,0,0,1,256,256)" opacity="1" style="display: block;"><g opacity="1" transform="matrix(1,0,0,1,0,0)"><path fill="rgb(16,185,129)" fill-opacity="1" d=" M80,-45 C80,-45 80,45 80,45 C80,56.03799819946289 71.03800201416016,65 60,65 C60,65 -60,65 -60,65 C-71.03800201416016,65 -80,56.03799819946289 -80,45 C-80,45 -80,-45 -80,-45 C-80,-56.03799819946289 -71.03800201416016,-65 -60,-65 C-60,-65 60,-65 60,-65 C71.03800201416016,-65 80,-56.03799819946289 80,-45z"></path></g></g><g transform="matrix(1,0,0,1,256,192)" opacity="1" style="display: block;"><g opacity="1" transform="matrix(1,0,0,1,0,0)"><path fill="rgb(5,150,105)" fill-opacity="1" d=" M85,-1 C85,-1 85,1 85,1 C85,8.72659969329834 78.72660064697266,15 71,15 C71,15 -71,15 -71,15 C-78.72660064697266,15 -85,8.72659969329834 -85,1 C-85,1 -85,-1 -85,-1 C-85,-8.72659969329834 -78.72660064697266,-15 -71,-15 C-71,-15 71,-15 71,-15 C78.72660064697266,-15 85,-8.72659969329834 85,-1z"></path></g></g><g transform="matrix(1.1408753395080566,0,0,1.1408753395080566,256,264)" opacity="1" style="display: block;"><g opacity="1" transform="matrix(1,0,0,1,0,0)"><path fill="rgb(255,255,255)" fill-opacity="1" d=" M0,-27.5 C15.177249908447266,-27.5 27.5,-15.177249908447266 27.5,0 C27.5,15.177249908447266 15.177249908447266,27.5 0,27.5 C-15.177249908447266,27.5 -27.5,15.177249908447266 -27.5,0 C-27.5,-15.177249908447266 -15.177249908447266,-27.5 0,-27.5z"></path></g></g></g></svg>