<svg xmlns="http://www.w3.org/2000/svg" xmlns:xlink="http://www.w3.org/1999/xlink" viewBox="0 0 512 512" width="512" height="512" preserveAspectRatio="xMidYMid meet" style="width: 100%; height: 100%; transform: translate3d(0px, 0px, 0px); content-visibility: visible;"><defs><clipPath id="__lottie_element_2"><rect width="512" height="512" x="0" y="0"></rect></clipPath></defs><g clip-path="url(#__lottie_element_2)"><g transform="matrix(1,0,0,1,256,270)" opacity="1" style="display: block;"><g opacity="1" transform="matrix(1,0,0,1,0,0)"><path fill="rgb(16,185,129)" fill-opacity="1" d=" M85,-50 C85,-50 85,50 85,50 C85,61.03799819946289 76.03800201416016,70 65,70 C65,70 -65,70 -65,70 C-76.03800201416016,70 -85,61.03799819946289 -85,50 C-85,50 -85,-50 -85,-50 C-85,-61.03799819946289 -76.03800201416016,-70 -65,-70 C-65,-70 65,-70 65,-70 C76.03800201416016,-70 85,-61.03799819946289 85,-50z"></path></g></g><g transform="matrix(0.7071067690849304,-0.7071067690849304,0.7071067690849304,0.7071067690849304,244.68629455566406,190.68629455566406)" opacity="1" style="display: block;"><g opacity="1" transform="matrix(1,0,0,1,0,0)"><path fill="rgb(5,150,105)" fill-opacity="1" d=" M90,-2 C90,-2 90,2 90,2 C90,9.72659969329834 83.72660064697266,16 76,16 C76,16 -76,16 -76,16 C-83.72660064697266,16 -90,9.72659969329834 -90,2 C-90,2 -90,-2 -90,-2 C-90,-9.72659969329834 -83.72660064697266,-16 -76,-16 C-76,-16 76,-16 76,-16 C83.72660064697266,-16 90,-9.72659969329834 90,-2z"></path></g></g><g transform="matrix(1.172265648841858,0,0,1.172265648841858,256,278)" opacity="1" style="display: block;"><g opacity="1" transform="matrix(1,0,0,1,0,0)"><path fill="rgb(255,255,255)" fill-opacity="1" d=" M0,-32.5 C17.936750411987305,-32.5 32.5,-17.936750411987305 32.5,0 C32.5,17.936750411987305 17.936750411987305,32.5 0,32.5 C-17.936750411987305,32.5 -32.5,17.936750411987305 -32.5,0 C-32.5,-17.936750411987305 -17.936750411987305,-32.5 0,-32.5z"></path></g></g></g></svg>