<svg xmlns="http://www.w3.org/2000/svg" xmlns:xlink="http://www.w3.org/1999/xlink" viewBox="0 0 512 512" width="512" height="512" preserveAspectRatio="xMidYMid meet" style="width: 100%; height: 100%; transform: translate3d(0px, 0px, 0px); content-visibility: visible;"><defs><clipPath id="__lottie_element_2"><rect width="512" height="512" x="0" y="0"></rect></clipPath></defs><g clip-path="url(#__lottie_element_2)"><g transform="matrix(1,0,0,1,296.3583679199219,258)" opacity="1" style="display: block;"><g opacity="1" transform="matrix(1,0,0,1,0,0)"><path fill="rgb(59,130,246)" fill-opacity="1" d=" M100,-48 C100,-48 100,48 100,48 C100,54.622798919677734 94.622802734375,60 88,60 C88,60 -88,60 -88,60 C-94.622802734375,60 -100,54.622798919677734 -100,48 C-100,48 -100,-48 -100,-48 C-100,-54.622798919677734 -94.622802734375,-60 -88,-60 C-88,-60 88,-60 88,-60 C94.622802734375,-60 100,-54.622798919677734 100,-48z"></path></g></g><g transform="matrix(1,0,0,1,166.3583526611328,253)" opacity="1" style="display: block;"><g opacity="1" transform="matrix(1,0,0,1,0,0)"><path fill="rgb(37,99,235)" fill-opacity="1" d=" M45,-41 C45,-41 45,41 45,41 C45,48.726600646972656 38.726600646972656,55 31,55 C31,55 -31,55 -31,55 C-38.726600646972656,55 -45,48.726600646972656 -45,41 C-45,41 -45,-41 -45,-41 C-45,-48.726600646972656 -38.726600646972656,-55 -31,-55 C-31,-55 31,-55 31,-55 C38.726600646972656,-55 45,-48.726600646972656 45,-41z"></path></g></g><g transform="matrix(1,0,0,1,166.3583526611328,237)" opacity="1" style="display: block;"><g opacity="1" transform="matrix(1,0,0,1,0,0)"><path fill="rgb(147,197,253)" fill-opacity="1" d=" M25,-14 C25,-14 25,14 25,14 C25,18.415199279785156 21.415199279785156,22 17,22 C17,22 -17,22 -17,22 C-21.415199279785156,22 -25,18.415199279785156 -25,14 C-25,14 -25,-14 -25,-14 C-25,-18.415199279785156 -21.415199279785156,-22 -17,-22 C-17,-22 17,-22 17,-22 C21.415199279785156,-22 25,-18.415199279785156 25,-14z"></path></g></g><g transform="matrix(0.997430145740509,0.07164595276117325,-0.07164595276117325,0.997430145740509,351.3583679199219,320)" opacity="1" style="display: block;"><g opacity="1" transform="matrix(1,0,0,1,0,0)"><path stroke-linecap="round" stroke-linejoin="round" fill-opacity="0" stroke="rgb(255,255,255)" stroke-opacity="1" stroke-width="4" d=" M0,-24 C13.245599746704102,-24 24,-13.245599746704102 24,0 C24,13.245599746704102 13.245599746704102,24 0,24 C-13.245599746704102,24 -24,13.245599746704102 -24,0 C-24,-13.245599746704102 -13.245599746704102,-24 0,-24z"></path><path fill="rgb(30,41,59)" fill-opacity="1" d=" M0,-24 C13.245599746704102,-24 24,-13.245599746704102 24,0 C24,13.245599746704102 13.245599746704102,24 0,24 C-13.245599746704102,24 -24,13.245599746704102 -24,0 C-24,-13.245599746704102 -13.245599746704102,-24 0,-24z"></path></g></g><g transform="matrix(0.997430145740509,0.07164595276117325,-0.07164595276117325,0.997430145740509,216.3583526611328,320)" opacity="1" style="display: block;"><g opacity="1" transform="matrix(1,0,0,1,0,0)"><path stroke-linecap="round" stroke-linejoin="round" fill-opacity="0" stroke="rgb(255,255,255)" stroke-opacity="1" stroke-width="4" d=" M0,-24 C13.245599746704102,-24 24,-13.245599746704102 24,0 C24,13.245599746704102 13.245599746704102,24 0,24 C-13.245599746704102,24 -24,13.245599746704102 -24,0 C-24,-13.245599746704102 -13.245599746704102,-24 0,-24z"></path><path fill="rgb(30,41,59)" fill-opacity="1" d=" M0,-24 C13.245599746704102,-24 24,-13.245599746704102 24,0 C24,13.245599746704102 13.245599746704102,24 0,24 C-13.245599746704102,24 -24,13.245599746704102 -24,0 C-24,-13.245599746704102 -13.245599746704102,-24 0,-24z"></path></g></g></g></svg>