<svg xmlns="http://www.w3.org/2000/svg" xmlns:xlink="http://www.w3.org/1999/xlink" viewBox="0 0 512 512" width="512" height="512" preserveAspectRatio="xMidYMid meet" style="width: 100%; height: 100%; transform: translate3d(0px, 0px, 0px); content-visibility: visible;"><defs><clipPath id="__lottie_element_2"><rect width="512" height="512" x="0" y="0"></rect></clipPath></defs><g clip-path="url(#__lottie_element_2)"><g transform="matrix(1,0,0,1,256,256)" opacity="1" style="display: block;"><g opacity="1" transform="matrix(1,0,0,1,0,0)"><path fill="rgb(37,99,235)" fill-opacity="1" d=" M-90,-33 C-90,-33 -90,23 -90,23 C-90,29.622800827026367 -95.377197265625,35 -102,35 C-102,35 -138,35 -138,35 C-144.622802734375,35 -150,29.622800827026367 -150,23 C-150,23 -150,-33 -150,-33 C-150,-39.622798919677734 -144.622802734375,-45 -138,-45 C-138,-45 -102,-45 -102,-45 C-95.377197265625,-45 -90,-39.622798919677734 -90,-33z"></path></g><g opacity="1" transform="matrix(1,0,0,1,0,0)"><path fill="rgb(59,130,246)" fill-opacity="1" d=" M90,-29 C90,-29 90,29 90,29 C90,37.83039855957031 82.83039855957031,45 74,45 C74,45 -74,45 -74,45 C-82.83039855957031,45 -90,37.83039855957031 -90,29 C-90,29 -90,-29 -90,-29 C-90,-37.83039855957031 -82.83039855957031,-45 -74,-45 C-74,-45 74,-45 74,-45 C82.83039855957031,-45 90,-37.83039855957031 90,-29z"></path></g></g><g transform="matrix(1,0,0,1,326,310)" opacity="1" style="display: block;"><g opacity="1" transform="matrix(1,0,0,1,0,0)"><path stroke-linecap="round" stroke-linejoin="round" fill-opacity="0" stroke="rgb(255,255,255)" stroke-opacity="1" stroke-width="3" d=" M0,-20 C11.038000106811523,-20 20,-11.038000106811523 20,0 C20,11.038000106811523 11.038000106811523,20 0,20 C-11.038000106811523,20 -20,11.038000106811523 -20,0 C-20,-11.038000106811523 -11.038000106811523,-20 0,-20z"></path><path fill="rgb(30,41,59)" fill-opacity="1" d=" M0,-20 C11.038000106811523,-20 20,-11.038000106811523 20,0 C20,11.038000106811523 11.038000106811523,20 0,20 C-11.038000106811523,20 -20,11.038000106811523 -20,0 C-20,-11.038000106811523 -11.038000106811523,-20 0,-20z"></path></g></g><g transform="matrix(1,0,0,1,186,310)" opacity="1" style="display: block;"><g opacity="1" transform="matrix(1,0,0,1,0,0)"><path stroke-linecap="round" stroke-linejoin="round" fill-opacity="0" stroke="rgb(255,255,255)" stroke-opacity="1" stroke-width="3" d=" M0,-20 C11.038000106811523,-20 20,-11.038000106811523 20,0 C20,11.038000106811523 11.038000106811523,20 0,20 C-11.038000106811523,20 -20,11.038000106811523 -20,0 C-20,-11.038000106811523 -11.038000106811523,-20 0,-20z"></path><path fill="rgb(30,41,59)" fill-opacity="1" d=" M0,-20 C11.038000106811523,-20 20,-11.038000106811523 20,0 C20,11.038000106811523 11.038000106811523,20 0,20 C-11.038000106811523,20 -20,11.038000106811523 -20,0 C-20,-11.038000106811523 -11.038000106811523,-20 0,-20z"></path></g></g></g></svg>