<svg xmlns="http://www.w3.org/2000/svg" xmlns:xlink="http://www.w3.org/1999/xlink" viewBox="0 0 512 512" width="512" height="512" preserveAspectRatio="xMidYMid meet" style="width: 100%; height: 100%; transform: translate3d(0px, 0px, 0px); content-visibility: visible;"><defs><clipPath id="__lottie_element_2"><rect width="512" height="512" x="0" y="0"></rect></clipPath></defs><g clip-path="url(#__lottie_element_2)"><g transform="matrix(0.6729318499565125,0,0,0.6729318499565125,376,256)" opacity="0.68277285780237" style="display: block;"><g opacity="1" transform="matrix(0.7071067690849304,0.7071067690849304,-0.7071067690849304,0.7071067690849304,0,0)"><path fill="rgb(234,179,8)" fill-opacity="1" d=" M22,-12 C22,-12 22,12 22,12 C22,17.518999099731445 17.518999099731445,22 12,22 C12,22 -12,22 -12,22 C-17.518999099731445,22 -22,17.518999099731445 -22,12 C-22,12 -22,-12 -22,-12 C-22,-17.518999099731445 -17.518999099731445,-22 -12,-22 C-12,-22 12,-22 12,-22 C17.518999099731445,-22 22,-17.518999099731445 22,-12z"></path></g></g><g transform="matrix(1.2963438034057617,0,0,1.2963438034057617,316,256)" opacity="1" style="display: block;"><g opacity="1" transform="matrix(0.7071067690849304,0.7071067690849304,-0.7071067690849304,0.7071067690849304,0,0)"><path fill="rgb(234,179,8)" fill-opacity="1" d=" M22,-12 C22,-12 22,12 22,12 C22,17.518999099731445 17.518999099731445,22 12,22 C12,22 -12,22 -12,22 C-17.518999099731445,22 -22,17.518999099731445 -22,12 C-22,12 -22,-12 -22,-12 C-22,-17.518999099731445 -17.518999099731445,-22 -12,-22 C-12,-22 12,-22 12,-22 C17.518999099731445,-22 22,-17.518999099731445 22,-12z"></path></g></g><g transform="matrix(1.0027045011520386,0,0,1.0027045011520386,256,256)" opacity="1" style="display: block;"><g opacity="1" transform="matrix(0.7071067690849304,0.7071067690849304,-0.7071067690849304,0.7071067690849304,0,0)"><path fill="rgb(234,179,8)" fill-opacity="1" d=" M22,-12 C22,-12 22,12 22,12 C22,17.518999099731445 17.518999099731445,22 12,22 C12,22 -12,22 -12,22 C-17.518999099731445,22 -22,17.518999099731445 -22,12 C-22,12 -22,-12 -22,-12 C-22,-17.518999099731445 -17.518999099731445,-22 -12,-22 C-12,-22 12,-22 12,-22 C17.518999099731445,-22 22,-17.518999099731445 22,-12z"></path></g></g><g transform="matrix(1,0,0,1,196,256)" opacity="1" style="display: block;"><g opacity="1" transform="matrix(0.7071067690849304,0.7071067690849304,-0.7071067690849304,0.7071067690849304,0,0)"><path fill="rgb(234,179,8)" fill-opacity="1" d=" M22,-12 C22,-12 22,12 22,12 C22,17.518999099731445 17.518999099731445,22 12,22 C12,22 -12,22 -12,22 C-17.518999099731445,22 -22,17.518999099731445 -22,12 C-22,12 -22,-12 -22,-12 C-22,-17.518999099731445 -17.518999099731445,-22 -12,-22 C-12,-22 12,-22 12,-22 C17.518999099731445,-22 22,-17.518999099731445 22,-12z"></path></g></g><g transform="matrix(1,0,0,1,136,256)" opacity="1" style="display: block;"><g opacity="1" transform="matrix(0.7071067690849304,0.7071067690849304,-0.7071067690849304,0.7071067690849304,0,0)"><path fill="rgb(234,179,8)" fill-opacity="1" d=" M22,-12 C22,-12 22,12 22,12 C22,17.518999099731445 17.518999099731445,22 12,22 C12,22 -12,22 -12,22 C-17.518999099731445,22 -22,17.518999099731445 -22,12 C-22,12 -22,-12 -22,-12 C-22,-17.518999099731445 -17.518999099731445,-22 -12,-22 C-12,-22 12,-22 12,-22 C17.518999099731445,-22 22,-17.518999099731445 22,-12z"></path></g></g></g></svg>