<svg xmlns="http://www.w3.org/2000/svg" xmlns:xlink="http://www.w3.org/1999/xlink" viewBox="0 0 512 512" width="512" height="512" preserveAspectRatio="xMidYMid meet" style="width: 100%; height: 100%; transform: translate3d(0px, 0px, 0px); content-visibility: visible;"><defs><clipPath id="__lottie_element_2"><rect width="512" height="512" x="0" y="0"></rect></clipPath></defs><g clip-path="url(#__lottie_element_2)"><g transform="matrix(0.01605054922401905,0,0,0.01605054922401905,396,256)" opacity="0.07484867156883239" style="display: block;"><g opacity="1" transform="matrix(1,0,0,1,0,0)"><path fill="rgb(234,179,8)" fill-opacity="1" d=" M-48,-5.878304468892332e-15 C-48,-5.878304468892332e-15 -15.371322631835938,-11.167920112609863 -15.371322631835938,-11.167920112609863 C-15.371322631835938,-11.167920112609863 -14.832816123962402,-45.65071105957031 -14.832816123962402,-45.65071105957031 C-14.832816123962402,-45.65071105957031 5.871323108673096,-18.0700740814209 5.871323108673096,-18.0700740814209 C5.871323108673096,-18.0700740814209 38.83281707763672,-28.21369171142578 38.83281707763672,-28.21369171142578 C38.83281707763672,-28.21369171142578 19,0 19,0 C19,0 38.83281707763672,28.21369171142578 38.83281707763672,28.21369171142578 C38.83281707763672,28.21369171142578 5.871323108673096,18.0700740814209 5.871323108673096,18.0700740814209 C5.871323108673096,18.0700740814209 -14.832816123962402,45.65071105957031 -14.832816123962402,45.65071105957031 C-14.832816123962402,45.65071105957031 -15.371322631835938,11.167920112609863 -15.371322631835938,11.167920112609863 C-15.371322631835938,11.167920112609863 -48,-5.878304468892332e-15 -48,-5.878304468892332e-15z"></path></g></g><g transform="matrix(1.2283272743225098,0,0,1.2283272743225098,326,256)" opacity="1" style="display: block;"><g opacity="1" transform="matrix(1,0,0,1,0,0)"><path fill="rgb(234,179,8)" fill-opacity="1" d=" M-48,-5.878304468892332e-15 C-48,-5.878304468892332e-15 -15.371322631835938,-11.167920112609863 -15.371322631835938,-11.167920112609863 C-15.371322631835938,-11.167920112609863 -14.832816123962402,-45.65071105957031 -14.832816123962402,-45.65071105957031 C-14.832816123962402,-45.65071105957031 5.871323108673096,-18.0700740814209 5.871323108673096,-18.0700740814209 C5.871323108673096,-18.0700740814209 38.83281707763672,-28.21369171142578 38.83281707763672,-28.21369171142578 C38.83281707763672,-28.21369171142578 19,0 19,0 C19,0 38.83281707763672,28.21369171142578 38.83281707763672,28.21369171142578 C38.83281707763672,28.21369171142578 5.871323108673096,18.0700740814209 5.871323108673096,18.0700740814209 C5.871323108673096,18.0700740814209 -14.832816123962402,45.65071105957031 -14.832816123962402,45.65071105957031 C-14.832816123962402,45.65071105957031 -15.371322631835938,11.167920112609863 -15.371322631835938,11.167920112609863 C-15.371322631835938,11.167920112609863 -48,-5.878304468892332e-15 -48,-5.878304468892332e-15z"></path></g></g><g transform="matrix(1.0316575765609741,0,0,1.0316575765609741,256,256)" opacity="1" style="display: block;"><g opacity="1" transform="matrix(1,0,0,1,0,0)"><path fill="rgb(234,179,8)" fill-opacity="1" d=" M-48,-5.878304468892332e-15 C-48,-5.878304468892332e-15 -15.371322631835938,-11.167920112609863 -15.371322631835938,-11.167920112609863 C-15.371322631835938,-11.167920112609863 -14.832816123962402,-45.65071105957031 -14.832816123962402,-45.65071105957031 C-14.832816123962402,-45.65071105957031 5.871323108673096,-18.0700740814209 5.871323108673096,-18.0700740814209 C5.871323108673096,-18.0700740814209 38.83281707763672,-28.21369171142578 38.83281707763672,-28.21369171142578 C38.83281707763672,-28.21369171142578 19,0 19,0 C19,0 38.83281707763672,28.21369171142578 38.83281707763672,28.21369171142578 C38.83281707763672,28.21369171142578 5.871323108673096,18.0700740814209 5.871323108673096,18.0700740814209 C5.871323108673096,18.0700740814209 -14.832816123962402,45.65071105957031 -14.832816123962402,45.65071105957031 C-14.832816123962402,45.65071105957031 -15.371322631835938,11.167920112609863 -15.371322631835938,11.167920112609863 C-15.371322631835938,11.167920112609863 -48,-5.878304468892332e-15 -48,-5.878304468892332e-15z"></path></g></g><g transform="matrix(1,0,0,1,186,256)" opacity="1" style="display: block;"><g opacity="1" transform="matrix(1,0,0,1,0,0)"><path fill="rgb(234,179,8)" fill-opacity="1" d=" M-48,-5.878304468892332e-15 C-48,-5.878304468892332e-15 -15.371322631835938,-11.167920112609863 -15.371322631835938,-11.167920112609863 C-15.371322631835938,-11.167920112609863 -14.832816123962402,-45.65071105957031 -14.832816123962402,-45.65071105957031 C-14.832816123962402,-45.65071105957031 5.871323108673096,-18.0700740814209 5.871323108673096,-18.0700740814209 C5.871323108673096,-18.0700740814209 38.83281707763672,-28.21369171142578 38.83281707763672,-28.21369171142578 C38.83281707763672,-28.21369171142578 19,0 19,0 C19,0 38.83281707763672,28.21369171142578 38.83281707763672,28.21369171142578 C38.83281707763672,28.21369171142578 5.871323108673096,18.0700740814209 5.871323108673096,18.0700740814209 C5.871323108673096,18.0700740814209 -14.832816123962402,45.65071105957031 -14.832816123962402,45.65071105957031 C-14.832816123962402,45.65071105957031 -15.371322631835938,11.167920112609863 -15.371322631835938,11.167920112609863 C-15.371322631835938,11.167920112609863 -48,-5.878304468892332e-15 -48,-5.878304468892332e-15z"></path></g></g><g transform="matrix(1,0,0,1,116,256)" opacity="1" style="display: block;"><g opacity="1" transform="matrix(1,0,0,1,0,0)"><path fill="rgb(234,179,8)" fill-opacity="1" d=" M-48,-5.878304468892332e-15 C-48,-5.878304468892332e-15 -15.371322631835938,-11.167920112609863 -15.371322631835938,-11.167920112609863 C-15.371322631835938,-11.167920112609863 -14.832816123962402,-45.65071105957031 -14.832816123962402,-45.65071105957031 C-14.832816123962402,-45.65071105957031 5.871323108673096,-18.0700740814209 5.871323108673096,-18.0700740814209 C5.871323108673096,-18.0700740814209 38.83281707763672,-28.21369171142578 38.83281707763672,-28.21369171142578 C38.83281707763672,-28.21369171142578 19,0 19,0 C19,0 38.83281707763672,28.21369171142578 38.83281707763672,28.21369171142578 C38.83281707763672,28.21369171142578 5.871323108673096,18.0700740814209 5.871323108673096,18.0700740814209 C5.871323108673096,18.0700740814209 -14.832816123962402,45.65071105957031 -14.832816123962402,45.65071105957031 C-14.832816123962402,45.65071105957031 -15.371322631835938,11.167920112609863 -15.371322631835938,11.167920112609863 C-15.371322631835938,11.167920112609863 -48,-5.878304468892332e-15 -48,-5.878304468892332e-15z"></path></g></g></g></svg>