<svg xmlns="http://www.w3.org/2000/svg" xmlns:xlink="http://www.w3.org/1999/xlink" viewBox="0 0 512 512" width="512" height="512" preserveAspectRatio="xMidYMid meet" style="width: 100%; height: 100%; transform: translate3d(0px, 0px, 0px); content-visibility: visible;"><defs><clipPath id="__lottie_element_2"><rect width="512" height="512" x="0" y="0"></rect></clipPath></defs><g clip-path="url(#__lottie_element_2)"><g transform="matrix(1,0,0,1,256,256)" opacity="1" style="display: block;"><g opacity="1" transform="matrix(1,0,0,1,0,0)"><path fill="rgb(30,27,75)" fill-opacity="1" d=" M100,0 C100,0 100,0 100,0 C100,27.594999313354492 77.59500122070312,50 50,50 C50,50 -50,50 -50,50 C-77.59500122070312,50 -100,27.594999313354492 -100,0 C-100,0 -100,0 -100,0 C-100,-27.594999313354492 -77.59500122070312,-50 -50,-50 C-50,-50 50,-50 50,-50 C77.59500122070312,-50 100,-27.594999313354492 100,0z"></path></g></g><g transform="matrix(1,0,0,1,334.24285888671875,256)" opacity="1" style="display: block;"><g opacity="1" transform="matrix(1,0,0,1,0,0)"><path fill="rgb(224,231,255)" fill-opacity="1" d=" M0,-40 C22.076000213623047,-40 40,-22.076000213623047 40,0 C40,22.076000213623047 22.076000213623047,40 0,40 C-22.076000213623047,40 -40,22.076000213623047 -40,0 C-40,-22.076000213623047 -22.076000213623047,-40 0,-40z"></path></g></g></g></svg>