<svg xmlns="http://www.w3.org/2000/svg" xmlns:xlink="http://www.w3.org/1999/xlink" viewBox="0 0 512 512" width="512" height="512" preserveAspectRatio="xMidYMid meet" style="width: 100%; height: 100%; transform: translate3d(0px, 0px, 0px); content-visibility: visible;"><defs><clipPath id="__lottie_element_2"><rect width="512" height="512" x="0" y="0"></rect></clipPath></defs><g clip-path="url(#__lottie_element_2)"><g transform="matrix(1,0,0,1,256,256)" opacity="1" style="display: block;"><g opacity="1" transform="matrix(1,0,0,1,0,0)"><path fill="rgb(30,27,75)" fill-opacity="1" d=" M90,0 C90,0 90,0 90,0 C90,24.835500717163086 69.83550262451172,45 45,45 C45,45 -45,45 -45,45 C-69.83550262451172,45 -90,24.835500717163086 -90,0 C-90,0 -90,0 -90,0 C-90,-24.835500717163086 -69.83550262451172,-45 -45,-45 C-45,-45 45,-45 45,-45 C69.83550262451172,-45 90,-24.835500717163086 90,0z"></path></g></g><g transform="matrix(1,0,0,1,336,256)" opacity="1" style="display: block;"><g opacity="1" transform="matrix(1,0,0,1,0,0)"><path fill="rgb(224,231,255)" fill-opacity="1" d=" M0,-35 C19.316499710083008,-35 35,-19.316499710083008 35,0 C35,19.316499710083008 19.316499710083008,35 0,35 C-19.316499710083008,35 -35,19.316499710083008 -35,0 C-35,-19.316499710083008 -19.316499710083008,-35 0,-35z"></path></g></g></g></svg>