<svg xmlns="http://www.w3.org/2000/svg" xmlns:xlink="http://www.w3.org/1999/xlink" viewBox="0 0 512 512" width="512" height="512" preserveAspectRatio="xMidYMid meet" style="width: 100%; height: 100%; transform: translate3d(0px, 0px, 0px); content-visibility: visible;"><defs><clipPath id="__lottie_element_2"><rect width="512" height="512" x="0" y="0"></rect></clipPath></defs><g clip-path="url(#__lottie_element_2)"><g style="display: none;"><g><path></path></g></g><g transform="matrix(1,0,0,1,280,380)" opacity="0.15730466942039723" style="display: block;"><g opacity="1" transform="matrix(1,0,0,1,0,0)"><path fill="rgb(199,210,254)" fill-opacity="1" d=" M0,-10 C5.519000053405762,-10 10,-5.519000053405762 10,0 C10,5.519000053405762 5.519000053405762,10 0,10 C-5.519000053405762,10 -10,5.519000053405762 -10,0 C-10,-5.519000053405762 -5.519000053405762,-10 0,-10z"></path></g></g><g transform="matrix(1,0,0,1,190,380)" opacity="0.5" style="display: block;"><g opacity="1" transform="matrix(1,0,0,1,0,0)"><path fill="rgb(199,210,254)" fill-opacity="1" d=" M0,-7 C3.863300085067749,-7 7,-3.863300085067749 7,0 C7,3.863300085067749 3.863300085067749,7 0,7 C-3.863300085067749,7 -7,3.863300085067749 -7,0 C-7,-3.863300085067749 -3.863300085067749,-7 0,-7z"></path></g></g><g transform="matrix(1,0,0,1,100,380)" opacity="0.8426953305796029" style="display: block;"><g opacity="1" transform="matrix(1,0,0,1,0,0)"><path fill="rgb(199,210,254)" fill-opacity="1" d=" M0,-4 C2.2076001167297363,-4 4,-2.2076001167297363 4,0 C4,2.2076001167297363 2.2076001167297363,4 0,4 C-2.2076001167297363,4 -4,2.2076001167297363 -4,0 C-4,-2.2076001167297363 -2.2076001167297363,-4 0,-4z"></path></g></g><g transform="matrix(1,0,0,1,370,290)" opacity="1" style="display: block;"><g opacity="1" transform="matrix(1,0,0,1,0,0)"><path fill="rgb(199,210,254)" fill-opacity="1" d=" M0,-10 C5.519000053405762,-10 10,-5.519000053405762 10,0 C10,5.519000053405762 5.519000053405762,10 0,10 C-5.519000053405762,10 -10,5.519000053405762 -10,0 C-10,-5.519000053405762 -5.519000053405762,-10 0,-10z"></path></g></g><g transform="matrix(1,0,0,1,280,290)" opacity="0.9550907970587005" style="display: block;"><g opacity="1" transform="matrix(1,0,0,1,0,0)"><path fill="rgb(199,210,254)" fill-opacity="1" d=" M0,-7 C3.863300085067749,-7 7,-3.863300085067749 7,0 C7,3.863300085067749 3.863300085067749,7 0,7 C-3.863300085067749,7 -7,3.863300085067749 -7,0 C-7,-3.863300085067749 -3.863300085067749,-7 0,-7z"></path></g></g><g transform="matrix(1,0,0,1,190,290)" opacity="0.8438534983909315" style="display: block;"><g opacity="1" transform="matrix(1,0,0,1,0,0)"><path fill="rgb(199,210,254)" fill-opacity="1" d=" M0,-4 C2.2076001167297363,-4 4,-2.2076001167297363 4,0 C4,2.2076001167297363 2.2076001167297363,4 0,4 C-2.2076001167297363,4 -4,2.2076001167297363 -4,0 C-4,-2.2076001167297363 -2.2076001167297363,-4 0,-4z"></path></g></g><g transform="matrix(1,0,0,1,100,290)" opacity="0.7000000000000001" style="display: block;"><g opacity="1" transform="matrix(1,0,0,1,0,0)"><path fill="rgb(199,210,254)" fill-opacity="1" d=" M0,-10 C5.519000053405762,-10 10,-5.519000053405762 10,0 C10,5.519000053405762 5.519000053405762,10 0,10 C-5.519000053405762,10 -10,5.519000053405762 -10,0 C-10,-5.519000053405762 -5.519000053405762,-10 0,-10z"></path></g></g><g transform="matrix(1,0,0,1,370,200)" opacity="0.5561465016090685" style="display: block;"><g opacity="1" transform="matrix(1,0,0,1,0,0)"><path fill="rgb(199,210,254)" fill-opacity="1" d=" M0,-7 C3.863300085067749,-7 7,-3.863300085067749 7,0 C7,3.863300085067749 3.863300085067749,7 0,7 C-3.863300085067749,7 -7,3.863300085067749 -7,0 C-7,-3.863300085067749 -3.863300085067749,-7 0,-7z"></path></g></g><g transform="matrix(1,0,0,1,280,200)" opacity="0.4449092029412995" style="display: block;"><g opacity="1" transform="matrix(1,0,0,1,0,0)"><path fill="rgb(199,210,254)" fill-opacity="1" d=" M0,-4 C2.2076001167297363,-4 4,-2.2076001167297363 4,0 C4,2.2076001167297363 2.2076001167297363,4 0,4 C-2.2076001167297363,4 -4,2.2076001167297363 -4,0 C-4,-2.2076001167297363 -2.2076001167297363,-4 0,-4z"></path></g></g><g transform="matrix(1,0,0,1,190,200)" opacity="0.4" style="display: block;"><g opacity="1" transform="matrix(1,0,0,1,0,0)"><path fill="rgb(199,210,254)" fill-opacity="1" d=" M0,-10 C5.519000053405762,-10 10,-5.519000053405762 10,0 C10,5.519000053405762 5.519000053405762,10 0,10 C-5.519000053405762,10 -10,5.519000053405762 -10,0 C-10,-5.519000053405762 -5.519000053405762,-10 0,-10z"></path></g></g><g transform="matrix(1,0,0,1,100,200)" opacity="0.4943828016522383" style="display: block;"><g opacity="1" transform="matrix(1,0,0,1,0,0)"><path fill="rgb(199,210,254)" fill-opacity="1" d=" M0,-7 C3.863300085067749,-7 7,-3.863300085067749 7,0 C7,3.863300085067749 3.863300085067749,7 0,7 C-3.863300085067749,7 -7,3.863300085067749 -7,0 C-7,-3.863300085067749 -3.863300085067749,-7 0,-7z"></path></g></g><g transform="matrix(1,0,0,1,370,110)" opacity="0.7000000000000001" style="display: block;"><g opacity="1" transform="matrix(1,0,0,1,0,0)"><path fill="rgb(199,210,254)" fill-opacity="1" d=" M0,-4 C2.2076001167297363,-4 4,-2.2076001167297363 4,0 C4,2.2076001167297363 2.2076001167297363,4 0,4 C-2.2076001167297363,4 -4,2.2076001167297363 -4,0 C-4,-2.2076001167297363 -2.2076001167297363,-4 0,-4z"></path></g></g><g transform="matrix(1,0,0,1,280,110)" opacity="0.9056171983477617" style="display: block;"><g opacity="1" transform="matrix(1,0,0,1,0,0)"><path fill="rgb(199,210,254)" fill-opacity="1" d=" M0,-10 C5.519000053405762,-10 10,-5.519000053405762 10,0 C10,5.519000053405762 5.519000053405762,10 0,10 C-5.519000053405762,10 -10,5.519000053405762 -10,0 C-10,-5.519000053405762 -5.519000053405762,-10 0,-10z"></path></g></g><g transform="matrix(1,0,0,1,190,110)" opacity="1" style="display: block;"><g opacity="1" transform="matrix(1,0,0,1,0,0)"><path fill="rgb(199,210,254)" fill-opacity="1" d=" M0,-7 C3.863300085067749,-7 7,-3.863300085067749 7,0 C7,3.863300085067749 3.863300085067749,7 0,7 C-3.863300085067749,7 -7,3.863300085067749 -7,0 C-7,-3.863300085067749 -3.863300085067749,-7 0,-7z"></path></g></g><g transform="matrix(1,0,0,1,100,110)" opacity="1" style="display: block;"><g opacity="1" transform="matrix(1,0,0,1,0,0)"><path fill="rgb(199,210,254)" fill-opacity="1" d=" M0,-4 C2.2076001167297363,-4 4,-2.2076001167297363 4,0 C4,2.2076001167297363 2.2076001167297363,4 0,4 C-2.2076001167297363,4 -4,2.2076001167297363 -4,0 C-4,-2.2076001167297363 -2.2076001167297363,-4 0,-4z"></path></g></g></g></svg>