<svg xmlns="http://www.w3.org/2000/svg" xmlns:xlink="http://www.w3.org/1999/xlink" viewBox="0 0 512 512" width="512" height="512" preserveAspectRatio="xMidYMid meet" style="width: 100%; height: 100%; transform: translate3d(0px, 0px, 0px); content-visibility: visible;"><defs><clipPath id="__lottie_element_2"><rect width="512" height="512" x="0" y="0"></rect></clipPath></defs><g clip-path="url(#__lottie_element_2)"><g transform="matrix(1,0,0,1,256,256)" opacity="1" style="display: block;"><g opacity="1" transform="matrix(1,0,0,1,0,0)"><path fill="rgb(17,24,39)" fill-opacity="1" d=" M0,-130 C93.822998046875,-130 170,-71.74700164794922 170,0 C170,71.74700164794922 93.822998046875,130 0,130 C-93.822998046875,130 -170,71.74700164794922 -170,0 C-170,-71.74700164794922 -93.822998046875,-130 0,-130z"></path></g></g><g transform="matrix(1,0,0,1,256,256)" opacity="1" style="display: block;"><g opacity="1" transform="matrix(1,0,0,1,0,0)"><path fill="rgb(224,231,255)" fill-opacity="1" d=" M0,-75 C66.22799682617188,-75 120,-41.39250183105469 120,0 C120,41.39250183105469 66.22799682617188,75 0,75 C-66.22799682617188,75 -120,41.39250183105469 -120,0 C-120,-41.39250183105469 -66.22799682617188,-75 0,-75z"></path></g></g><g transform="matrix(1,0,0,1,256,256)" opacity="1" style="display: block;"><g opacity="1" transform="matrix(1,0,0,1,0,0)"><path fill="rgb(99,102,241)" fill-opacity="1" d=" M0,-50 C27.594999313354492,-50 50,-27.594999313354492 50,0 C50,27.594999313354492 27.594999313354492,50 0,50 C-27.594999313354492,50 -50,27.594999313354492 -50,0 C-50,-27.594999313354492 -27.594999313354492,-50 0,-50z"></path></g></g><g transform="matrix(1,0,0,1,256,256)" opacity="1" style="display: block;"><g opacity="1" transform="matrix(1,0,0,1,0,0)"><path fill="rgb(5,7,20)" fill-opacity="1" d=" M0,-23 C12.693699836730957,-23 23,-12.693699836730957 23,0 C23,12.693699836730957 12.693699836730957,23 0,23 C-12.693699836730957,23 -23,12.693699836730957 -23,0 C-23,-12.693699836730957 -12.693699836730957,-23 0,-23z"></path></g></g><g transform="matrix(1,0,0,1,256,186)" opacity="1" style="display: block;"><g opacity="1" transform="matrix(1,0,0,1,0,0)"><path fill="rgb(15,23,42)" fill-opacity="1" d=" M0,-30 C70.64320373535156,-30 128,-16.55699920654297 128,0 C128,16.55699920654297 70.64320373535156,30 0,30 C-70.64320373535156,30 -128,16.55699920654297 -128,0 C-128,-16.55699920654297 -70.64320373535156,-30 0,-30z"></path></g></g><g transform="matrix(1,0,0,0.1602308452129364,256,323.1815185546875)" opacity="1" style="display: block;"><g opacity="1" transform="matrix(1,0,0,1,0,0)"><path fill="rgb(31,41,55)" fill-opacity="1" d=" M140,-60 C140,-60 140,60 140,60 C140,71.03800201416016 131.03799438476562,80 120,80 C120,80 -120,80 -120,80 C-131.03799438476562,80 -140,71.03800201416016 -140,60 C-140,60 -140,-60 -140,-60 C-140,-71.03800201416016 -131.03799438476562,-80 -120,-80 C-120,-80 120,-80 120,-80 C131.03799438476562,-80 140,-71.03800201416016 140,-60z"></path></g></g><g transform="matrix(1,0,0,0.1602308452129364,256,188.81846618652344)" opacity="1" style="display: block;"><g opacity="1" transform="matrix(1,0,0,1,0,0)"><path fill="rgb(31,41,55)" fill-opacity="1" d=" M140,-60 C140,-60 140,60 140,60 C140,71.03800201416016 131.03799438476562,80 120,80 C120,80 -120,80 -120,80 C-131.03799438476562,80 -140,71.03800201416016 -140,60 C-140,60 -140,-60 -140,-60 C-140,-71.03800201416016 -131.03799438476562,-80 -120,-80 C-120,-80 120,-80 120,-80 C131.03799438476562,-80 140,-71.03800201416016 140,-60z"></path></g></g></g></svg>